<?xml version="1.0" encoding="utf-8"?>
<!-- Generator: Adobe Illustrator 22.0.1, SVG Export Plug-In . SVG Version: 6.00 Build 0)  -->
<svg version="1.1" id="Calque_1" xmlns="http://www.w3.org/2000/svg" xmlns:xlink="http://www.w3.org/1999/xlink" x="0px" y="0px"
	 viewBox="0 0 1757.9 818.5" style="enable-background:new 0 0 1757.9 818.5;" xml:space="preserve">
<style type="text/css">
	.st0{fill:#08602C;}
	.st1{fill:#FF0000;}
	.st2{fill:none;}
	.st3{fill:#006837;}
</style>
<path class="st0" d="M167.8,363.5v13.7h-4.2c0,4.2-2.1,6.3-4.2,6.3c-2.1,0-4.2-2.1-4.2-6.3h-5.3v14.8h9.5v21.1h-12.7v-14.8h-5.3
	c0,4.2-2.1,6.3-4.2,6.3c-2.1,0-4.3-2.1-4.3-6.3h-5.3v14.8v44.4h-6.3v4.2c32.7,0,66.9,0,95.2,0v-4.2h-6.3v-44.4v-14.8h-5.3
	c0,4.2-2.1,6.3-4.2,6.3c-2.1,0-4.3-2.1-4.3-6.3h-5.3v14.8h-12.7v-21.1h9.5v-14.8h-5.3c0,4.2-2.1,6.3-4.2,6.3c-2.1,0-4.2-2.1-4.2-6.3
	h-4.2c0-2.3,0-5.5,0-7.5l6.3-2.1c0.8-0.3,0.8-1.7,0-2c-2-0.7-4.7-1.6-6.4-2.1c0-0.6-0.5-1.1-1.2-1.1
	C168.1,362.4,167.8,362.9,167.8,363.5z M140.1,417.4c3.6,0,7.2,0,10.8,0c1.1,0,2.1,1,2.1,2.1v10.6c0,1.1-1,2.1-2.1,2.1h-10.6
	c-1.1,0-2.1-1-2.1-2.1v-10.6C138.2,418.5,139.1,417.5,140.1,417.4z M163.4,417.4c3.6,0,7.2,0,10.8,0c1.1,0,2.1,1,2.1,2.1v10.6
	c0,1.1-1,2.1-2.1,2.1h-10.6c-1.1,0-2.1-1-2.1-2.1v-10.6C161.5,418.5,162.3,417.5,163.4,417.4z M186.6,417.4c3.6,0,7.2,0,10.8,0
	c1.1,0,2.1,1,2.1,2.1v10.6c0,1.1-1,2.1-2.1,2.1h-10.6c-1.1,0-2.1-1-2.1-2.1v-10.6C184.7,418.5,185.6,417.5,186.6,417.4z
	 M168.8,434.4c3.7,0,7.3,1.2,10.1,3.3c2.8,2.2,4.8,5.5,4.8,9.4c0,3.5,0,7.1,0,10.6h-4.2c0-3.5,0-7.1,0-10.6c0-2.4-1.1-4.5-3.1-6
	c-1.5-1.1-3.4-1.9-5.4-2.2v18.8h-4.2v-18.9c-2,0.3-3.8,1.1-5.3,2.3c-2,1.5-3.2,3.5-3.2,6v10.6h-4.2V447c0-3.9,2-7.2,4.8-9.4
	C161.6,435.5,165.2,434.4,168.8,434.4L168.8,434.4z"/>
<path class="st0" d="M168,469.2v13.7h-4.2c0,4.2-2.1,6.3-4.2,6.3c-2.1,0-4.2-2.1-4.2-6.3H150v14.8h9.5v21.1h-12.7v-14.8h-5.3
	c0,4.2-2.1,6.3-4.2,6.3c-2.1,0-4.3-2.1-4.3-6.3h-5.3v14.8v44.4h-6.3v4.2c32.7,0,66.9,0,95.2,0v-4.2h-6.3v-44.4v-14.8H205
	c0,4.2-2.1,6.3-4.2,6.3c-2.1,0-4.3-2.1-4.3-6.3h-5.3v14.8h-12.7v-21.1h9.5v-14.8h-5.3c0,4.2-2.1,6.3-4.2,6.3c-2.1,0-4.2-2.1-4.2-6.3
	h-4.2c0-2.3,0-5.5,0-7.5l6.3-2.1c0.8-0.3,0.8-1.7,0-2c-2-0.7-4.7-1.6-6.4-2.1c0-0.6-0.5-1.1-1.2-1.1
	C168.2,468.1,168,468.6,168,469.2z M140.3,523.1c3.6,0,7.2,0,10.8,0c1.1,0,2.1,1,2.1,2.1v10.6c0,1.1-1,2.1-2.1,2.1h-10.6
	c-1.1,0-2.1-1-2.1-2.1v-10.6C138.3,524.2,139.2,523.2,140.3,523.1z M163.5,523.1c3.6,0,7.2,0,10.8,0c1.1,0,2.1,1,2.1,2.1v10.6
	c0,1.1-1,2.1-2.1,2.1h-10.6c-1.1,0-2.1-1-2.1-2.1v-10.6C161.6,524.2,162.5,523.2,163.5,523.1z M186.8,523.1c3.6,0,7.2,0,10.8,0
	c1.1,0,2.1,1,2.1,2.1v10.6c0,1.1-1,2.1-2.1,2.1H187c-1.1,0-2.1-1-2.1-2.1v-10.6C184.9,524.2,185.8,523.2,186.8,523.1z M169,540
	c3.7,0,7.3,1.2,10.1,3.3c2.8,2.2,4.8,5.5,4.8,9.4c0,3.5,0,7.1,0,10.6h-4.2c0-3.5,0-7.1,0-10.6c0-2.4-1.1-4.5-3.1-6
	c-1.5-1.1-3.4-1.9-5.4-2.2v18.8h-4.2v-18.9c-2,0.3-3.8,1.1-5.3,2.3c-2,1.5-3.2,3.5-3.2,6v10.6h-4.2v-10.6c0-3.9,2-7.2,4.8-9.4
	C161.8,541.2,165.4,540,169,540L169,540z"/>
<path class="st0" d="M167.9,151.6v13.7h-4.2c0,4.2-2.1,6.3-4.2,6.3c-2.1,0-4.2-2.1-4.2-6.3h-5.3v14.8h9.5v21.1h-12.7v-14.8h-5.3
	c0,4.2-2.1,6.3-4.2,6.3c-2.1,0-4.3-2.1-4.3-6.3h-5.3v14.8v44.4h-6.3v4.2c32.7,0,66.9,0,95.2,0v-4.2h-6.3v-44.4v-14.8h-5.3
	c0,4.2-2.1,6.3-4.2,6.3c-2.1,0-4.3-2.1-4.3-6.3h-5.3v14.8h-12.7v-21.1h9.5v-14.8h-5.3c0,4.2-2.1,6.3-4.2,6.3c-2.1,0-4.2-2.1-4.2-6.3
	H170c0-2.3,0-5.5,0-7.5l6.3-2.1c0.8-0.3,0.8-1.7,0-2c-2-0.7-4.7-1.6-6.4-2.1c0-0.6-0.5-1.1-1.2-1.1
	C168.2,150.5,167.9,151,167.9,151.6z M140.2,205.5c3.6,0,7.2,0,10.8,0c1.1,0,2.1,1,2.1,2.1v10.6c0,1.1-1,2.1-2.1,2.1h-10.6
	c-1.1,0-2.1-1-2.1-2.1v-10.6C138.3,206.6,139.1,205.6,140.2,205.5z M163.4,205.5c3.6,0,7.2,0,10.8,0c1.1,0,2.1,1,2.1,2.1v10.6
	c0,1.1-1,2.1-2.1,2.1h-10.6c-1.1,0-2.1-1-2.1-2.1v-10.6C161.5,206.6,162.4,205.6,163.4,205.5z M186.7,205.5c3.6,0,7.2,0,10.8,0
	c1.1,0,2.1,1,2.1,2.1v10.6c0,1.1-1,2.1-2.1,2.1h-10.6c-1.1,0-2.1-1-2.1-2.1v-10.6C184.8,206.6,185.7,205.6,186.7,205.5z
	 M168.9,222.4c3.7,0,7.3,1.2,10.1,3.3c2.8,2.2,4.8,5.5,4.8,9.4c0,3.5,0,7.1,0,10.6h-4.2c0-3.5,0-7.1,0-10.6c0-2.4-1.1-4.5-3.1-6
	c-1.5-1.1-3.4-1.9-5.4-2.2v18.8h-4.2v-18.9c-2,0.3-3.8,1.1-5.3,2.3c-2,1.5-3.2,3.5-3.2,6v10.6h-4.2v-10.6c0-3.9,2-7.2,4.8-9.4
	C161.7,223.6,165.3,222.4,168.9,222.4L168.9,222.4z"/>
<path class="st0" d="M168,257.6v13.7h-4.2c0,4.2-2.1,6.3-4.2,6.3c-2.1,0-4.2-2.1-4.2-6.3H150v14.8h9.5v21.1h-12.7v-14.8h-5.3
	c0,4.2-2.1,6.3-4.2,6.3c-2.1,0-4.3-2.1-4.3-6.3h-5.3v14.8v44.4h-6.3v4.2c32.7,0,66.9,0,95.2,0v-4.2h-6.3v-44.4v-14.8H205
	c0,4.2-2.1,6.3-4.2,6.3c-2.1,0-4.3-2.1-4.3-6.3h-5.3v14.8h-12.7v-21.1h9.5v-14.8h-5.3c0,4.2-2.1,6.3-4.2,6.3c-2.1,0-4.2-2.1-4.2-6.3
	h-4.2c0-2.3,0-5.5,0-7.5l6.3-2.1c0.8-0.3,0.8-1.7,0-2c-2-0.7-4.7-1.6-6.4-2.1c0-0.6-0.5-1.1-1.2-1.1C168.3,256.6,168,257,168,257.6z
	 M140.3,311.6c3.6,0,7.2,0,10.8,0c1.1,0,2.1,1,2.1,2.1v10.6c0,1.1-1,2.1-2.1,2.1h-10.6c-1.1,0-2.1-1-2.1-2.1v-10.6
	C138.4,312.6,139.3,311.7,140.3,311.6z M163.6,311.6c3.6,0,7.2,0,10.8,0c1.1,0,2.1,1,2.1,2.1v10.6c0,1.1-1,2.1-2.1,2.1h-10.6
	c-1.1,0-2.1-1-2.1-2.1v-10.6C161.7,312.6,162.5,311.7,163.6,311.6z M186.8,311.6c3.6,0,7.2,0,10.8,0c1.1,0,2.1,1,2.1,2.1v10.6
	c0,1.1-1,2.1-2.1,2.1H187c-1.1,0-2.1-1-2.1-2.1v-10.6C184.9,312.6,185.8,311.7,186.8,311.6z M169,328.5c3.7,0,7.3,1.2,10.1,3.3
	c2.8,2.2,4.8,5.5,4.8,9.4c0,3.5,0,7.1,0,10.6h-4.2c0-3.5,0-7.1,0-10.6c0-2.4-1.1-4.5-3.1-6c-1.5-1.1-3.4-1.9-5.4-2.2v18.8h-4.2
	v-18.9c-2,0.3-3.8,1.1-5.3,2.3c-2,1.5-3.2,3.5-3.2,6v10.6h-4.2v-10.6c0-3.9,2-7.2,4.8-9.4C161.8,329.6,165.4,328.5,169,328.5
	L169,328.5z"/>
<path class="st0" d="M168,574.8v13.7h-4.2c0,4.2-2.1,6.3-4.2,6.3c-2.1,0-4.2-2.1-4.2-6.3H150v14.8h9.5v21.1h-12.7v-14.8h-5.3
	c0,4.2-2.1,6.3-4.2,6.3c-2.1,0-4.3-2.1-4.3-6.3h-5.3v14.8v44.4h-6.3v4.2c32.7,0,66.9,0,95.2,0v-4.2h-6.3v-44.4v-14.8H205
	c0,4.2-2.1,6.3-4.2,6.3c-2.1,0-4.3-2.1-4.3-6.3h-5.3v14.8h-12.7v-21.1h9.5v-14.8h-5.3c0,4.2-2.1,6.3-4.2,6.3c-2.1,0-4.2-2.1-4.2-6.3
	h-4.2c0-2.3,0-5.5,0-7.5l6.3-2.1c0.8-0.3,0.8-1.7,0-2c-2-0.7-4.7-1.6-6.4-2.1c0-0.6-0.5-1.1-1.2-1.1
	C168.2,573.8,168,574.2,168,574.8z M140.3,628.7c3.6,0,7.2,0,10.8,0c1.1,0,2.1,1,2.1,2.1v10.6c0,1.1-1,2.1-2.1,2.1h-10.6
	c-1.1,0-2.1-1-2.1-2.1v-10.6C138.3,629.8,139.2,628.8,140.3,628.7z M163.5,628.7c3.6,0,7.2,0,10.8,0c1.1,0,2.1,1,2.1,2.1v10.6
	c0,1.1-1,2.1-2.1,2.1h-10.6c-1.1,0-2.1-1-2.1-2.1v-10.6C161.6,629.8,162.5,628.8,163.5,628.7z M186.8,628.7c3.6,0,7.2,0,10.8,0
	c1.1,0,2.1,1,2.1,2.1v10.6c0,1.1-1,2.1-2.1,2.1H187c-1.1,0-2.1-1-2.1-2.1v-10.6C184.9,629.8,185.8,628.8,186.8,628.7z M169,645.7
	c3.7,0,7.3,1.2,10.1,3.3c2.8,2.2,4.8,5.5,4.8,9.4c0,3.5,0,7.1,0,10.6h-4.2c0-3.5,0-7.1,0-10.6c0-2.4-1.1-4.5-3.1-6
	c-1.5-1.1-3.4-1.9-5.4-2.2v18.8h-4.2v-18.9c-2,0.3-3.8,1.1-5.3,2.3c-2,1.5-3.2,3.5-3.2,6v10.6h-4.2v-10.6c0-3.9,2-7.2,4.8-9.4
	C161.8,646.8,165.4,645.7,169,645.7L169,645.7z"/>
<path class="st0" d="M282.5,363.5v13.7h-4.2c0,4.2-2.1,6.3-4.2,6.3c-2.1,0-4.2-2.1-4.2-6.3h-5.3v14.8h9.5v21.1h-12.7v-14.8h-5.3
	c0,4.2-2.1,6.3-4.2,6.3c-2.1,0-4.3-2.1-4.3-6.3h-5.3v14.8v44.4H236v4.2c32.7,0,66.9,0,95.2,0v-4.2h-6.3v-44.4v-14.8h-5.3
	c0,4.2-2.1,6.3-4.2,6.3c-2.1,0-4.3-2.1-4.3-6.3h-5.3v14.8h-12.7v-21.1h9.5v-14.8h-5.3c0,4.2-2.1,6.3-4.2,6.3c-2.1,0-4.2-2.1-4.2-6.3
	h-4.2c0-2.3,0-5.5,0-7.5l6.3-2.1c0.8-0.3,0.8-1.7,0-2c-2-0.7-4.7-1.6-6.4-2.1c0-0.6-0.5-1.1-1.2-1.1
	C282.8,362.4,282.5,362.9,282.5,363.5z M254.8,417.4c3.6,0,7.2,0,10.8,0c1.1,0,2.1,1,2.1,2.1v10.6c0,1.1-1,2.1-2.1,2.1H255
	c-1.1,0-2.1-1-2.1-2.1v-10.6C252.9,418.5,253.8,417.5,254.8,417.4z M278.1,417.4c3.6,0,7.2,0,10.8,0c1.1,0,2.1,1,2.1,2.1v10.6
	c0,1.1-1,2.1-2.1,2.1h-10.6c-1.1,0-2.1-1-2.1-2.1v-10.6C276.2,418.5,277.1,417.5,278.1,417.4z M301.4,417.4c3.6,0,7.2,0,10.8,0
	c1.1,0,2.1,1,2.1,2.1v10.6c0,1.1-1,2.1-2.1,2.1h-10.6c-1.1,0-2.1-1-2.1-2.1v-10.6C299.5,418.5,300.3,417.5,301.4,417.4z
	 M283.6,434.4c3.7,0,7.3,1.2,10.1,3.3c2.8,2.2,4.8,5.5,4.8,9.4c0,3.5,0,7.1,0,10.6h-4.2c0-3.5,0-7.1,0-10.6c0-2.4-1.1-4.5-3.1-6
	c-1.5-1.1-3.4-1.9-5.4-2.2v18.8h-4.2v-18.9c-2,0.3-3.8,1.1-5.3,2.3c-2,1.5-3.2,3.5-3.2,6v10.6h-4.2V447c0-3.9,2-7.2,4.8-9.4
	C276.4,435.5,279.9,434.4,283.6,434.4L283.6,434.4z"/>
<path class="st0" d="M282.7,469.2v13.7h-4.2c0,4.2-2.1,6.3-4.2,6.3c-2.1,0-4.2-2.1-4.2-6.3h-5.3v14.8h9.5v21.1h-12.7v-14.8h-5.3
	c0,4.2-2.1,6.3-4.2,6.3c-2.1,0-4.3-2.1-4.3-6.3h-5.3v14.8v44.4h-6.3v4.2c32.7,0,66.9,0,95.2,0v-4.2H325v-44.4v-14.8h-5.3
	c0,4.2-2.1,6.3-4.2,6.3c-2.1,0-4.3-2.1-4.3-6.3H306v14.8h-12.7v-21.1h9.5v-14.8h-5.3c0,4.2-2.1,6.3-4.2,6.3c-2.1,0-4.2-2.1-4.2-6.3
	h-4.2c0-2.3,0-5.5,0-7.5l6.3-2.1c0.8-0.3,0.8-1.7,0-2c-2-0.7-4.7-1.6-6.4-2.1c0-0.6-0.5-1.1-1.2-1.1
	C283,468.1,282.7,468.6,282.7,469.2z M255,523.1c3.6,0,7.2,0,10.8,0c1.1,0,2.1,1,2.1,2.1v10.6c0,1.1-1,2.1-2.1,2.1h-10.6
	c-1.1,0-2.1-1-2.1-2.1v-10.6C253.1,524.2,253.9,523.2,255,523.1z M278.3,523.1c3.6,0,7.2,0,10.8,0c1.1,0,2.1,1,2.1,2.1v10.6
	c0,1.1-1,2.1-2.1,2.1h-10.6c-1.1,0-2.1-1-2.1-2.1v-10.6C276.3,524.2,277.2,523.2,278.3,523.1z M301.5,523.1c3.6,0,7.2,0,10.8,0
	c1.1,0,2.1,1,2.1,2.1v10.6c0,1.1-1,2.1-2.1,2.1h-10.6c-1.1,0-2.1-1-2.1-2.1v-10.6C299.6,524.2,300.5,523.2,301.5,523.1z M283.7,540
	c3.7,0,7.3,1.2,10.1,3.3c2.8,2.2,4.8,5.5,4.8,9.4c0,3.5,0,7.1,0,10.6h-4.2c0-3.5,0-7.1,0-10.6c0-2.4-1.1-4.5-3.1-6
	c-1.5-1.1-3.4-1.9-5.4-2.2v18.8h-4.2v-18.9c-2,0.3-3.8,1.1-5.3,2.3c-2,1.5-3.2,3.5-3.2,6v10.6h-4.2v-10.6c0-3.9,2-7.2,4.8-9.4
	C276.5,541.2,280.1,540,283.7,540L283.7,540z"/>
<path class="st0" d="M282.6,151.6v13.7h-4.2c0,4.2-2.1,6.3-4.2,6.3c-2.1,0-4.2-2.1-4.2-6.3h-5.3v14.8h9.5v21.1h-12.7v-14.8h-5.3
	c0,4.2-2.1,6.3-4.2,6.3c-2.1,0-4.3-2.1-4.3-6.3h-5.3v14.8v44.4h-6.3v4.2c32.7,0,66.9,0,95.2,0v-4.2h-6.3v-44.4v-14.8h-5.3
	c0,4.2-2.1,6.3-4.2,6.3c-2.1,0-4.3-2.1-4.3-6.3h-5.3v14.8h-12.7v-21.1h9.5v-14.8h-5.3c0,4.2-2.1,6.3-4.2,6.3c-2.1,0-4.2-2.1-4.2-6.3
	h-4.2c0-2.3,0-5.5,0-7.5l6.3-2.1c0.8-0.3,0.8-1.7,0-2c-2-0.7-4.7-1.6-6.4-2.1c0-0.6-0.5-1.1-1.2-1.1
	C282.9,150.5,282.6,151,282.6,151.6z M254.9,205.5c3.6,0,7.2,0,10.8,0c1.1,0,2.1,1,2.1,2.1v10.6c0,1.1-1,2.1-2.1,2.1h-10.6
	c-1.1,0-2.1-1-2.1-2.1v-10.6C253,206.6,253.9,205.6,254.9,205.5z M278.2,205.5c3.6,0,7.2,0,10.8,0c1.1,0,2.1,1,2.1,2.1v10.6
	c0,1.1-1,2.1-2.1,2.1h-10.6c-1.1,0-2.1-1-2.1-2.1v-10.6C276.3,206.6,277.1,205.6,278.2,205.5z M301.5,205.5c3.6,0,7.2,0,10.8,0
	c1.1,0,2.1,1,2.1,2.1v10.6c0,1.1-1,2.1-2.1,2.1h-10.6c-1.1,0-2.1-1-2.1-2.1v-10.6C299.5,206.6,300.4,205.6,301.5,205.5z
	 M283.6,222.4c3.7,0,7.3,1.2,10.1,3.3c2.8,2.2,4.8,5.5,4.8,9.4c0,3.5,0,7.1,0,10.6h-4.2c0-3.5,0-7.1,0-10.6c0-2.4-1.1-4.5-3.1-6
	c-1.5-1.1-3.4-1.9-5.4-2.2v18.8h-4.2v-18.9c-2,0.3-3.8,1.1-5.3,2.3c-2,1.5-3.2,3.5-3.2,6v10.6h-4.2v-10.6c0-3.9,2-7.2,4.8-9.4
	C276.4,223.6,280,222.4,283.6,222.4L283.6,222.4z"/>
<path class="st0" d="M282.7,257.6v13.7h-4.2c0,4.2-2.1,6.3-4.2,6.3c-2.1,0-4.2-2.1-4.2-6.3h-5.3v14.8h9.5v21.1h-12.7v-14.8h-5.3
	c0,4.2-2.1,6.3-4.2,6.3c-2.1,0-4.3-2.1-4.3-6.3h-5.3v14.8v44.4h-6.3v4.2c32.7,0,66.9,0,95.2,0v-4.2H325v-44.4v-14.8h-5.3
	c0,4.2-2.1,6.3-4.2,6.3c-2.1,0-4.3-2.1-4.3-6.3H306v14.8h-12.7v-21.1h9.5v-14.8h-5.3c0,4.2-2.1,6.3-4.2,6.3c-2.1,0-4.2-2.1-4.2-6.3
	h-4.2c0-2.3,0-5.5,0-7.5l6.3-2.1c0.8-0.3,0.8-1.7,0-2c-2-0.7-4.7-1.6-6.4-2.1c0-0.6-0.5-1.1-1.2-1.1
	C283,256.6,282.7,257,282.7,257.6z M255,311.6c3.6,0,7.2,0,10.8,0c1.1,0,2.1,1,2.1,2.1v10.6c0,1.1-1,2.1-2.1,2.1h-10.6
	c-1.1,0-2.1-1-2.1-2.1v-10.6C253.1,312.6,254,311.7,255,311.6z M278.3,311.6c3.6,0,7.2,0,10.8,0c1.1,0,2.1,1,2.1,2.1v10.6
	c0,1.1-1,2.1-2.1,2.1h-10.6c-1.1,0-2.1-1-2.1-2.1v-10.6C276.4,312.6,277.3,311.7,278.3,311.6z M301.6,311.6c3.6,0,7.2,0,10.8,0
	c1.1,0,2.1,1,2.1,2.1v10.6c0,1.1-1,2.1-2.1,2.1h-10.6c-1.1,0-2.1-1-2.1-2.1v-10.6C299.7,312.6,300.5,311.7,301.6,311.6z
	 M283.8,328.5c3.7,0,7.3,1.2,10.1,3.3c2.8,2.2,4.8,5.5,4.8,9.4c0,3.5,0,7.1,0,10.6h-4.2c0-3.5,0-7.1,0-10.6c0-2.4-1.1-4.5-3.1-6
	c-1.5-1.1-3.4-1.9-5.4-2.2v18.8h-4.2v-18.9c-2,0.3-3.8,1.1-5.3,2.3c-2,1.5-3.2,3.5-3.2,6v10.6H269v-10.6c0-3.9,2-7.2,4.8-9.4
	C276.6,329.6,280.1,328.5,283.8,328.5L283.8,328.5z"/>
<path class="st0" d="M282.7,574.8v13.7h-4.2c0,4.2-2.1,6.3-4.2,6.3c-2.1,0-4.2-2.1-4.2-6.3h-5.3v14.8h9.5v21.1h-12.7v-14.8h-5.3
	c0,4.2-2.1,6.3-4.2,6.3c-2.1,0-4.3-2.1-4.3-6.3h-5.3v14.8v44.4h-6.3v4.2c32.7,0,66.9,0,95.2,0v-4.2H325v-44.4v-14.8h-5.3
	c0,4.2-2.1,6.3-4.2,6.3c-2.1,0-4.3-2.1-4.3-6.3H306v14.8h-12.7v-21.1h9.5v-14.8h-5.3c0,4.2-2.1,6.3-4.2,6.3c-2.1,0-4.2-2.1-4.2-6.3
	h-4.2c0-2.3,0-5.5,0-7.5l6.3-2.1c0.8-0.3,0.8-1.7,0-2c-2-0.7-4.7-1.6-6.4-2.1c0-0.6-0.5-1.1-1.2-1.1
	C283,573.8,282.7,574.2,282.7,574.8z M255,628.7c3.6,0,7.2,0,10.8,0c1.1,0,2.1,1,2.1,2.1v10.6c0,1.1-1,2.1-2.1,2.1h-10.6
	c-1.1,0-2.1-1-2.1-2.1v-10.6C253.1,629.8,253.9,628.8,255,628.7z M278.3,628.7c3.6,0,7.2,0,10.8,0c1.1,0,2.1,1,2.1,2.1v10.6
	c0,1.1-1,2.1-2.1,2.1h-10.6c-1.1,0-2.1-1-2.1-2.1v-10.6C276.3,629.8,277.2,628.8,278.3,628.7z M301.5,628.7c3.6,0,7.2,0,10.8,0
	c1.1,0,2.1,1,2.1,2.1v10.6c0,1.1-1,2.1-2.1,2.1h-10.6c-1.1,0-2.1-1-2.1-2.1v-10.6C299.6,629.8,300.5,628.8,301.5,628.7z
	 M283.7,645.7c3.7,0,7.3,1.2,10.1,3.3c2.8,2.2,4.8,5.5,4.8,9.4c0,3.5,0,7.1,0,10.6h-4.2c0-3.5,0-7.1,0-10.6c0-2.4-1.1-4.5-3.1-6
	c-1.5-1.1-3.4-1.9-5.4-2.2v18.8h-4.2v-18.9c-2,0.3-3.8,1.1-5.3,2.3c-2,1.5-3.2,3.5-3.2,6v10.6h-4.2v-10.6c0-3.9,2-7.2,4.8-9.4
	C276.5,646.8,280.1,645.7,283.7,645.7L283.7,645.7z"/>
<path class="st1" d="M397.4,363.6v13.7h-4.2c0,4.2-2.1,6.3-4.2,6.3c-2.1,0-4.2-2.1-4.2-6.3h-5.3v14.8h9.5v21.1h-12.7v-14.8H371
	c0,4.2-2.1,6.3-4.2,6.3c-2.1,0-4.3-2.1-4.3-6.3h-5.3v14.8v44.4h-6.3v4.2c32.7,0,66.9,0,95.2,0v-4.2h-6.3v-44.4v-14.8h-5.3
	c0,4.2-2.1,6.3-4.2,6.3c-2.1,0-4.3-2.1-4.3-6.3h-5.3v14.8H408v-21.1h9.5v-14.8h-5.3c0,4.2-2.1,6.3-4.2,6.3c-2.1,0-4.2-2.1-4.2-6.3
	h-4.2c0-2.3,0-5.5,0-7.5l6.3-2.1c0.8-0.3,0.8-1.7,0-2c-2-0.7-4.7-1.6-6.4-2.1c0-0.6-0.5-1.1-1.2-1.1
	C397.7,362.5,397.4,363,397.4,363.6z M369.7,417.5c3.6,0,7.2,0,10.8,0c1.1,0,2.1,1,2.1,2.1v10.6c0,1.1-1,2.1-2.1,2.1h-10.6
	c-1.1,0-2.1-1-2.1-2.1v-10.6C367.8,418.6,368.7,417.6,369.7,417.5z M393,417.5c3.6,0,7.2,0,10.8,0c1.1,0,2.1,1,2.1,2.1v10.6
	c0,1.1-1,2.1-2.1,2.1h-10.6c-1.1,0-2.1-1-2.1-2.1v-10.6C391.1,418.6,391.9,417.6,393,417.5z M416.3,417.5c3.6,0,7.2,0,10.8,0
	c1.1,0,2.1,1,2.1,2.1v10.6c0,1.1-1,2.1-2.1,2.1h-10.6c-1.1,0-2.1-1-2.1-2.1v-10.6C414.3,418.6,415.2,417.6,416.3,417.5z
	 M398.4,434.4c3.7,0,7.3,1.2,10.1,3.3c2.8,2.2,4.8,5.5,4.8,9.4c0,3.5,0,7.1,0,10.6H409c0-3.5,0-7.1,0-10.6c0-2.4-1.1-4.5-3.1-6
	c-1.5-1.1-3.4-1.9-5.4-2.2v18.8h-4.2v-18.9c-2,0.3-3.8,1.1-5.3,2.3c-2,1.5-3.2,3.5-3.2,6v10.6h-4.2v-10.6c0-3.9,2-7.2,4.8-9.4
	C391.2,435.6,394.8,434.4,398.4,434.4L398.4,434.4z"/>
<g>
	<rect x="107.5" y="12" class="st2" width="243.9" height="98"/>
	<path d="M129.3,77.7c0,5.6,2,9.9,6.1,12.8c3.1,2.2,6.7,3.3,10.7,3.3c3.6,0,7.2-1.2,10.8-3.6c4.2-2.8,6.3-6.2,6.3-10.2
		c0-3.9-1.7-8-5-12.2c-2.2-2.7-6.2-6.7-12.3-12.1c-5.9-5.2-9.9-9.2-12-12.1c-3.2-4.2-4.8-8.5-4.8-12.8c0-5.1,2-9.4,6.1-13
		c4.4-3.9,10.1-5.8,17.1-5.8c6.1,0,10.7,0.6,13.8,1.7c1.6,0.5,2.5,1.1,2.8,1.7l-2.7,15.1c0-3-1-5.9-3.1-8.8
		c-2.6-3.6-6.1-5.4-10.5-5.4c-4.8,0-8.4,1-11,2.9c-2.4,1.9-3.6,4.6-3.6,8c0,5.7,5,12.6,14.9,20.8c6.1,5,10.1,8.7,12.2,11
		c4.3,5,6.5,10.1,6.5,15.2c0,8.1-3.7,14.6-11.1,19.5c-5.9,3.9-12.1,5.8-18.5,5.8c-4.1,0-7.7-1-10.8-3.1c-1.5-1.1-2.6-2.1-3.3-3.2
		C127.5,89,127.9,83.8,129.3,77.7z"/>
	<path d="M185.2,93.4c0.1,1.8,1.1,3.3,2.9,4.6c0.9,0.7,1.8,1.1,2.7,1.4H172c0.9-0.3,1.8-0.8,2.7-1.4c1.8-1.3,2.8-2.8,2.9-4.6V39.9
		c-0.1-1.8-1.1-3.3-2.9-4.6c-0.9-0.7-1.8-1.1-2.7-1.4h18.8c-0.9,0.3-1.8,0.8-2.7,1.4c-1.8,1.3-2.8,2.8-2.9,4.6V93.4z"/>
	<path d="M228.6,35l2.5-1.2l-2.5,12c-0.1-1.2-0.4-2.4-1.1-3.6c-1.2-2.4-3.1-3.6-5.8-3.6h-12.5v24.5H223c2.6-0.1,4.8-0.8,6.5-2.2
		l-1.6,12.8c0-1.2-0.4-2.3-1.1-3.5c-1.4-2.3-3.8-3.5-7-3.5h-10.5v24.3c0.7,0.9,1.7,1.8,3,2.8c2.6,1.8,5.5,2.8,8.5,2.8
		c3.1,0,5.9-1.4,8.5-4.3c1.3-1.5,2.3-2.9,3-4.3l-1.3,11.3h-35c0.9-0.3,1.8-0.8,2.8-1.5c1.9-1.4,2.8-3.1,2.8-5c0-3,0-20.9-0.1-53.5
		c-1-2-3.2-3.4-6.7-4.4H228.6z"/>
	<path d="M282.4,72.2c0.1-0.5,0-1.1-0.5-1.7c-0.9-1.3-3-2.3-6.1-3.1h21c-3.2,0.8-5.2,1.8-6.1,3.1c-0.5,0.6-0.7,1.2-0.5,1.7v22.6
		c-0.9,0.7-2.5,1.5-4.6,2.3c-4.3,1.5-9.4,2.3-15.4,2.3c-10.8,0-19.4-2.6-25.8-7.8c-7.3-5.9-10.9-14.7-10.9-26.3
		c-0.3-5.3,1-10.5,3.7-15.7c5.5-10.5,15.8-15.7,30.9-15.7c12.1,0.9,19.7,1.8,22.8,2.8l-2.2,14.5c-0.4-2.4-1.6-4.8-3.5-7.2
		c-3.7-4.8-9.2-7.2-16.4-7.2c-8.7,0-15.5,2.5-20.6,7.6c-5.1,5.1-7.6,12.2-7.6,21.1c0,8.6,3.5,15.9,10.4,21.8
		c6.4,5.5,13.5,8.3,21.3,8.3c4.3,0.2,7.7-0.8,10.1-3V72.2z"/>
	<path d="M328,35l2.5-1.2l-2.5,12c-0.1-1.2-0.4-2.4-1.1-3.6c-1.2-2.4-3.1-3.6-5.8-3.6h-12.5v24.5h13.7c2.6-0.1,4.8-0.8,6.5-2.2
		l-1.6,12.8c0-1.2-0.4-2.3-1.1-3.5c-1.4-2.3-3.8-3.5-7-3.5h-10.5v24.3c0.7,0.9,1.7,1.8,3,2.8c2.6,1.8,5.5,2.8,8.5,2.8
		c3.1,0,5.9-1.4,8.5-4.3c1.3-1.5,2.3-2.9,3-4.3l-1.3,11.3h-35c0.9-0.3,1.8-0.8,2.8-1.5c1.9-1.4,2.8-3.1,2.8-5c0-3,0-20.9-0.1-53.5
		c-1-2-3.2-3.4-6.7-4.4H328z"/>
</g>
<g>
	
		<rect x="808.5" y="-331" transform="matrix(5.660254e-03 -1 1 5.660254e-03 788.9659 920.662)" class="st2" width="97.8" height="789.1"/>
	<path d="M561.9,59.4c-0.4,0.5-1.7,1.1-3.8,1.6c-4.3,1.1-10.9,1.6-19.6,1.6v29.3c0.2,2.4,1.5,4.4,3.8,6.1c1.2,0.9,2.4,1.5,3.5,1.9
		h-24.9c1.2-0.4,2.3-1,3.5-1.9c2.4-1.7,3.7-3.8,3.8-6.1V21.1c-0.2-2.3-1.5-4.4-3.8-6.1c-1.2-0.9-2.4-1.5-3.5-1.9h17.5
		c6.1-1,12.2-0.9,18.4,0.4c12.3,2.5,18.4,9.4,18.4,20.7c0.2,2-0.2,4.7-1.2,7.8C571.9,48.2,567.9,54,561.9,59.4z M553,56.5
		c2-0.1,4-0.9,6-2.3c4-2.9,5.9-7.8,5.9-14.7c0-7.5-2-13.5-6.1-17.8c-3.3-3.5-7.1-5.3-11.2-5.3c-4.1,0-6.4,0.1-7,0.3
		c-1.3,0.5-1.9,2.4-1.9,5.5c0,4.5-0.1,15.9-0.3,34.2H553z"/>
	<path d="M589.1,93.8c0.1,1.8,1.1,3.3,2.9,4.6c0.9,0.7,1.8,1.1,2.7,1.4h-18.8c0.9-0.3,1.8-0.8,2.7-1.4c1.8-1.3,2.8-2.8,2.9-4.6V40.4
		c-0.1-1.8-1.1-3.3-2.9-4.6c-0.9-0.7-1.8-1.1-2.7-1.4h18.8c-0.9,0.3-1.8,0.8-2.7,1.4c-1.8,1.3-2.8,2.8-2.9,4.6V93.8z"/>
	<path d="M651,34.3l-2.5,12c-0.1-1.2-0.4-2.4-1.1-3.6c-1.2-2.4-3.1-3.6-5.8-3.6h-12.4v0.8c0,12.4,0,23.7-0.1,33.9v20
		c0.1,1.8,1.1,3.3,2.9,4.6c0.9,0.7,1.8,1.1,2.7,1.4H616c0.9-0.3,1.8-0.8,2.7-1.4c1.8-1.3,2.8-2.8,2.9-4.6v-20
		c0-10.2,0-21.5-0.1-33.9l0-0.8h-12.4c-2.6,0-4.6,1.2-5.8,3.6c-0.6,1.2-0.9,2.4-1,3.6l-2.5-12l2.5,1.2h46.2L651,34.3z"/>
	<path d="M704.8,94.8c-1,0.9-2.7,1.7-5,2.6c-4.5,1.7-9.7,2.5-15.7,2.5c-0.7,0-1.4,0-2.1,0c-10.2-0.4-18.4-3.1-24.4-8.4
		c-6.8-5.9-10.2-14.5-10.2-25.7c-0.3-5.3,1-10.5,3.7-15.7c5.5-10.5,15.8-15.7,30.9-15.7c12.1,0.9,19.7,1.8,22.8,2.8l-2.2,14.5
		c-0.4-2.4-1.6-4.8-3.5-7.2c-3.7-4.8-9.2-7.2-16.4-7.2c-8.7,0-15.5,2.5-20.6,7.6c-5.1,5.1-7.6,12.2-7.6,21.1
		c0,8.6,3.5,15.9,10.4,21.8c6.4,5.5,13.5,8.3,21.3,8.3c1.5-0.1,3.4-0.6,5.6-1.6c4.3-1.9,8.1-5.1,11.2-9.4L704.8,94.8z"/>
	<path d="M762,93.8c0.1,1.8,1.1,3.3,2.9,4.6c0.9,0.7,1.8,1.1,2.7,1.4h-18.8c0.9-0.3,1.8-0.8,2.7-1.4c1.8-1.3,2.8-2.8,2.9-4.6V66.2
		h-36v27.6c0.1,1.8,1.1,3.3,2.9,4.6c0.9,0.7,1.8,1.1,2.7,1.4h-18.8c0.9-0.3,1.8-0.8,2.7-1.4c1.8-1.3,2.8-2.8,2.9-4.6V40.4
		c-0.1-1.8-1.1-3.3-2.9-4.6c-0.9-0.7-1.8-1.1-2.7-1.4h18.8c-0.9,0.3-1.8,0.8-2.7,1.4c-1.8,1.3-2.8,2.8-2.9,4.6v21.3h36V40.4
		c-0.1-1.8-1.1-3.3-2.9-4.6c-0.9-0.7-1.8-1.1-2.7-1.4h18.8c-0.9,0.3-1.8,0.8-2.7,1.4c-1.8,1.3-2.8,2.8-2.9,4.6V93.8z"/>
	<path d="M805.1,35.5l2.5-1.2l-2.5,12c-0.1-1.2-0.4-2.4-1.1-3.6c-1.2-2.4-3.1-3.6-5.8-3.6h-12.5v24.5h13.7c2.6-0.1,4.8-0.8,6.5-2.2
		l-1.6,12.8c0-1.2-0.4-2.3-1.1-3.5c-1.4-2.3-3.8-3.5-7-3.5h-10.5v24.3c0.7,0.9,1.7,1.8,3,2.8c2.6,1.8,5.5,2.8,8.5,2.8
		c3.1,0,5.9-1.4,8.5-4.3c1.3-1.5,2.3-2.9,3-4.3l-1.3,11.3h-35c0.9-0.3,1.8-0.8,2.8-1.5c1.9-1.4,2.8-3.1,2.8-5c0-3,0-20.9-0.1-53.5
		c-1-2-3.2-3.4-6.7-4.4H805.1z"/>
	<path d="M840.6,34.3c14.7,0,24.8,5.2,30.2,15.6c2.7,5.2,3.9,10.4,3.6,15.6c0,11.4-3.6,20.2-10.7,26.2c-6.4,5.4-14.8,8.1-25.2,8.1
		h-26.1l3.3-1.1c1.9-0.9,3-1.9,3.2-3V39.1c0.2-0.5,0-1-0.4-1.7c-0.9-1.3-2.9-2.3-6-3.1H840.6z M836.4,96.1c7.6,0,14.5-2.9,20.8-8.6
		c6.8-6.1,10.2-13.4,10.2-21.8c0-8.8-2.5-15.7-7.5-20.6c-4.9-5-11.6-7.4-20.1-7.4c-5.4,0-9.9,1.4-13.4,4.3v51.2
		C828.9,95.3,832.2,96.3,836.4,96.1z"/>
	<path d="M936.9,53c6,5.4,10,11.2,12,17.5c1,3.2,1.4,5.8,1.2,7.8c0,8.5-3.6,14.5-10.7,18.1c-4.9,2.4-11.1,3.6-18.7,3.5h-23.8
		c0.4-0.1,0.8-0.3,1.3-0.6l-1.3,0.6c1.2-0.5,2.3-1.2,3.5-2.2c2.4-1.9,3.7-4.1,3.8-6.4V21.1c-0.2-2.3-1.5-4.5-3.8-6.4
		c-1.2-1-2.4-1.7-3.5-2.2l1.3,0.6c-0.5-0.3-1-0.4-1.3-0.6h20.4c8.2,0.1,14.3,0.9,18.4,2.4c7.6,2.8,11.4,8.2,11.4,16.1
		c-1.3,10-4.7,17.2-10.2,21.4c-0.1,0.1-0.2,0.2-0.3,0.3C936.7,52.8,936.8,52.9,936.9,53z M915,22.3c0,4.5-0.1,13.6-0.3,27.3h15.6
		c1.7-0.6,3.3-1.5,5-2.9c3.3-2.7,5-6.1,5-10.2c0-7.5-1.7-12.9-5.1-16.2c-2.6-2.5-5.9-3.7-10.2-3.7c-4.4,0-6.8,0.1-7.5,0.3
		C915.8,17.4,915,19.2,915,22.3z M924.9,95.9c4.1,0,7.9-1.8,11.2-5.3c4.1-4.3,6.1-10.2,6.1-17.8c0-6.9-2-11.8-6-14.7
		c-2-1.5-4-2.2-5.9-2.3h-15.6c0.2,18.3,0.3,29.7,0.3,34.2c0,3,0.8,4.9,2.4,5.5C918,95.8,920.5,95.9,924.9,95.9z"/>
	<path d="M993.4,99.9c1-1.4,2.7-2.5,5-3.1L990,75h-18.1L965,95.7c0,1.3,0.8,2.3,2.5,3.2c0.8,0.4,1.7,0.7,2.5,0.9h-19.2
		c2.8-0.4,5-1.5,6.6-3.3c0.8-0.9,1.4-1.8,1.7-2.7l22.5-59.5c15.2,37.1,23.6,57.1,25.1,60c0.9,1.8,2.5,3.3,4.5,4.4
		c1,0.6,2,0.9,2.8,1.1H993.4z M989,71.1l-7.9-22.2L972.9,71L989,71.1z"/>
	<path d="M1054.2,34.3l-2.5,12c-0.1-1.2-0.4-2.4-1.1-3.6c-1.2-2.4-3.1-3.6-5.8-3.6h-12.4v0.8c0,12.4,0,23.7-0.1,33.9v20
		c0.1,1.8,1.1,3.3,2.9,4.6c0.9,0.7,1.8,1.1,2.7,1.4h-18.8c0.9-0.3,1.8-0.8,2.7-1.4c1.8-1.3,2.8-2.8,2.9-4.6v-20
		c0-10.2,0-21.5-0.1-33.9l0-0.8h-12.4c-2.6,0-4.6,1.2-5.8,3.6c-0.6,1.2-0.9,2.4-1,3.6l-2.5-12l2.5,1.2h46.2L1054.2,34.3z"/>
	<path d="M1110.4,34.3l-2.5,12c-0.1-1.2-0.4-2.4-1.1-3.6c-1.2-2.4-3.1-3.6-5.8-3.6h-12.4v0.8c0,12.4,0,23.7-0.1,33.9v20
		c0.1,1.8,1.1,3.3,2.9,4.6c0.9,0.7,1.8,1.1,2.7,1.4h-18.8c0.9-0.3,1.8-0.8,2.7-1.4c1.8-1.3,2.8-2.8,2.9-4.6v-20
		c0-10.2,0-21.5-0.1-33.9l0-0.8h-12.4c-2.6,0-4.6,1.2-5.8,3.6c-0.6,1.2-0.9,2.4-1,3.6l-2.5-12l2.5,1.2h46.2L1110.4,34.3z"/>
	<path d="M1141.8,97.2c3.1,0,6-1.5,8.7-4.4c1.3-1.5,2.4-2.9,3.1-4.4l-1.3,11.5h-35.6c1-0.3,1.9-0.8,2.8-1.5c1.9-1.4,2.8-3.1,2.8-5
		c0-3.1,0-21.2-0.1-54.5c-1-2-3.2-3.5-6.8-4.5h21.3c-3.2,0.9-5.4,2.4-6.7,4.4v52.9c0.7,0.9,1.7,1.9,3.1,2.8
		C1135.8,96.2,1138.7,97.2,1141.8,97.2z M1130,38.9c-0.1,33.2-0.1,51.4-0.1,54.5l0.2-54.6C1130,38.8,1130,38.8,1130,38.9z"/>
	<path d="M1190.2,35.5l2.5-1.2l-2.5,12c-0.1-1.2-0.4-2.4-1.1-3.6c-1.2-2.4-3.1-3.6-5.8-3.6h-12.5v24.5h13.7c2.6-0.1,4.8-0.8,6.5-2.2
		l-1.6,12.8c0-1.2-0.4-2.3-1.1-3.5c-1.4-2.3-3.8-3.5-7-3.5h-10.5v24.3c0.7,0.9,1.7,1.8,3,2.8c2.6,1.8,5.5,2.8,8.5,2.8
		c3.1,0,5.9-1.4,8.5-4.3c1.3-1.5,2.3-2.9,3-4.3l-1.3,11.3h-35c0.9-0.3,1.8-0.8,2.8-1.5c1.9-1.4,2.8-3.1,2.8-5c0-3,0-20.9-0.1-53.5
		c-1-2-3.2-3.4-6.7-4.4H1190.2z"/>
</g>
<g>
	<rect x="1341.7" y="12" class="st2" width="374.2" height="98"/>
	<path d="M1402,99.4c1.3-1.9,3.6-3.3,6.7-4.2l-11.2-29h-24.1l-9.2,27.6c0,1.7,1.1,3.1,3.4,4.3c1.1,0.6,2.2,1,3.3,1.2h-25.6
		c3.7-0.5,6.6-2,8.8-4.4c1.1-1.3,1.8-2.4,2.2-3.6l30-79.4c20.3,49.5,31.5,76.1,33.5,80c1.3,2.4,3.3,4.4,6.1,5.9
		c1.4,0.7,2.7,1.2,3.8,1.5H1402z M1396.1,61l-10.5-29.5l-10.9,29.5L1396.1,61z"/>
	<path d="M1469.5,98.2L1469.5,98.2L1469.5,98.2l-0.3-0.3l-21.6-40.6l-4.5,33.3v2.1c0.1,1.8,1.1,3.3,2.9,4.6c0.9,0.7,1.8,1.1,2.7,1.4
		H1430c0.9-0.3,1.8-0.8,2.6-1.4c1.8-1.3,2.8-2.8,2.9-4.6l7.5-58.8l26.4,53.3l27.2-52.5l9.8,58.8c0.1,1.8,1.1,3.3,2.9,4.6
		c0.9,0.6,1.8,1.1,2.6,1.4h-18.6c0.9-0.3,1.7-0.8,2.6-1.4c1.8-1.3,2.8-2.8,2.9-4.6v-2.1l-7.5-32.5L1469.5,98.2L1469.5,98.2z"/>
	<path d="M1546.5,64.2c4.5,4,7.5,8.4,9,13.1c0.7,2.4,1,4.3,0.9,5.9c0,6.4-2.7,10.9-8,13.6c-3.7,1.8-8.4,2.7-14.1,2.6h-17.9
		c0.3-0.1,0.6-0.2,1-0.4l-1,0.4c0.9-0.4,1.8-0.9,2.7-1.6c1.8-1.5,2.8-3.1,2.9-4.8V40.3c-0.1-1.7-1.1-3.4-2.9-4.8
		c-0.9-0.7-1.8-1.3-2.7-1.6l1,0.4c-0.4-0.2-0.7-0.3-1-0.4h15.3c6.1,0.1,10.7,0.7,13.8,1.8c5.7,2.1,8.5,6.1,8.5,12.1
		c-0.9,7.5-3.5,12.9-7.7,16.1c0,0.1-0.1,0.1-0.3,0.2C1546.4,64.1,1546.5,64.2,1546.5,64.2z M1530.1,41.2c0,3.4-0.1,10.2-0.3,20.5
		h11.7c1.2-0.4,2.5-1.2,3.7-2.2c2.5-2,3.7-4.6,3.7-7.7c0-5.6-1.3-9.7-3.8-12.2c-1.9-1.9-4.5-2.8-7.6-2.8c-3.3,0-5.1,0.1-5.6,0.3
		C1530.7,37.5,1530.1,38.9,1530.1,41.2z M1537.5,96.4c3.1,0,5.9-1.3,8.4-3.9c3.1-3.2,4.6-7.7,4.6-13.3c0-5.2-1.5-8.9-4.5-11
		c-1.5-1.1-3-1.7-4.4-1.7h-11.7c0.2,13.7,0.3,22.3,0.3,25.7c0,2.3,0.6,3.6,1.8,4.1C1532.4,96.4,1534.2,96.4,1537.5,96.4z"/>
	<path d="M1619.8,33.9c-0.8,0.3-1.7,0.8-2.6,1.4c-1.8,1.3-2.7,2.8-2.9,4.5v29c0,9.5-2.8,17.1-8.5,22.9c-5.1,5.2-11,7.8-17.9,7.8
		c-7.4,0-13.8-2.3-19-6.8c-6.3-5.5-9.5-13.6-9.5-24.1V39.5c-0.3-1.9-1.2-3.5-2.8-4.6c-0.8-0.6-1.5-0.9-2.2-1.1h18.6
		c-0.9,0.3-1.8,0.8-2.7,1.4c-1.8,1.3-2.7,2.8-2.9,4.6l-0.1,19.8l0,7.9c0,15.9,4.5,25.1,13.5,27.8l1.9,0.5c0.7,0.1,1.4,0.3,2.1,0.4
		l3.1,0.2c1,0,1.8-0.1,2.5-0.2l1.9-0.3c4.2-0.9,7.3-3.1,9.5-6.6c2.8-4.5,4.2-11.3,4.2-20.4V41c0-2.5-0.8-4.4-2.5-5.9
		c-0.9-0.7-1.7-1.1-2.6-1.3H1619.8z"/>
	<path d="M1618.4,83.1c0,4.2,1.5,7.4,4.6,9.6c2.3,1.7,5,2.5,8,2.5c2.7,0,5.4-0.9,8.1-2.7c3.1-2.1,4.7-4.6,4.7-7.6
		c0-2.9-1.3-6-3.8-9.2c-1.6-2-4.7-5-9.2-9.1c-4.4-3.9-7.4-6.9-9-9.1c-2.4-3.2-3.6-6.4-3.6-9.6c0-3.8,1.5-7,4.6-9.7
		c3.3-2.9,7.6-4.4,12.8-4.4c4.6,0,8,0.4,10.3,1.2c1.2,0.4,1.9,0.8,2.1,1.2l-2,11.3c0-2.2-0.8-4.4-2.3-6.6c-2-2.7-4.6-4.1-7.9-4.1
		c-3.6,0-6.3,0.7-8.2,2.2c-1.8,1.4-2.7,3.4-2.7,6c0,4.3,3.7,9.5,11.2,15.6c4.6,3.7,7.6,6.5,9.1,8.3c3.2,3.8,4.9,7.6,4.9,11.4
		c0,6.1-2.8,10.9-8.3,14.6c-4.4,2.9-9,4.4-13.9,4.4c-3.1,0-5.8-0.8-8.1-2.3c-1.2-0.8-2-1.6-2.5-2.4
		C1617.1,91.6,1617.4,87.7,1618.4,83.1z"/>
	<path d="M1706.9,93.4c0.1,1.8,1.1,3.3,2.9,4.6c0.9,0.7,1.8,1.1,2.7,1.4h-18.8c0.9-0.3,1.8-0.8,2.7-1.4c1.8-1.3,2.8-2.8,2.9-4.6
		V65.7h-36v27.6c0.1,1.8,1.1,3.3,2.9,4.6c0.9,0.7,1.8,1.1,2.7,1.4h-18.8c0.9-0.3,1.8-0.8,2.7-1.4c1.8-1.3,2.8-2.8,2.9-4.6V39.9
		c-0.1-1.8-1.1-3.3-2.9-4.6c-0.9-0.7-1.8-1.1-2.7-1.4h18.8c-0.9,0.3-1.8,0.8-2.7,1.4c-1.8,1.3-2.8,2.8-2.9,4.6v21.3h36V39.9
		c-0.1-1.8-1.1-3.3-2.9-4.6c-0.9-0.7-1.8-1.1-2.7-1.4h18.8c-0.9,0.3-1.8,0.8-2.7,1.4c-1.8,1.3-2.8,2.8-2.9,4.6V93.4z"/>
</g>
<g>
	<path class="st3" d="M738.8,212.7l-10,10.5l9.2,10.9l-2.7,3.1l-10.7-9.5l-12.2,13.1c0.4,2-0.1,4.2-1.7,5.9c-2.6,3-7.2,3.3-10,0.7
		c-3-2.6-3.3-7-0.7-10c1.4-1.7,3.5-2.5,5.7-2.5l11.3-13.7l-10.8-9.5l2.7-3.1l12.1,7.8l9.9-12.1L738.8,212.7z"/>
	<polygon class="st3" points="776,161.9 773,176 748.8,201.9 741.1,192.5 762.5,166.7 	"/>
	<path class="st3" d="M705.4,163.9l3.1,14.1l41.8,44.8l-9.2,10.9l2.7,3.1l10.8-9.5l12.1,13c-0.4,2.1,0.3,4.3,1.7,6
		c2.6,3,7.2,3.3,10.2,0.7c2.9-2.6,3.1-7.2,0.5-10.2c-1.4-1.7-3.5-2.5-5.6-2.3l-11.5-13.8l10.8-9.5l-2.7-3.1l-12.1,7.8l-38.9-47.1
		L705.4,163.9z"/>
</g>
<g>
	<path class="st3" d="M737.8,319.7l-10,10.5l9.2,10.9l-2.7,3.1l-10.7-9.5l-12.2,13.1c0.4,2-0.1,4.2-1.7,5.9c-2.6,3-7.2,3.3-10,0.7
		c-3-2.6-3.3-7-0.7-10c1.4-1.7,3.5-2.5,5.7-2.5l11.3-13.7l-10.8-9.5l2.7-3.1l12.1,7.8l9.9-12.1L737.8,319.7z"/>
	<polygon class="st3" points="775,268.9 772,283 747.8,308.9 740.1,299.5 761.5,273.7 	"/>
	<path class="st3" d="M704.4,270.9l3.1,14.1l41.8,44.8l-9.2,10.9l2.7,3.1l10.8-9.5l12.1,13c-0.4,2.1,0.3,4.3,1.7,6
		c2.6,3,7.2,3.3,10.2,0.7c2.9-2.6,3.1-7.2,0.5-10.2c-1.4-1.7-3.5-2.5-5.6-2.3l-11.5-13.8l10.8-9.5l-2.7-3.1l-12.1,7.8l-38.9-47.1
		L704.4,270.9z"/>
</g>
<g>
	<path class="st3" d="M742.8,426.7l-10,10.5l9.2,10.9l-2.7,3.1l-10.7-9.5l-12.2,13.1c0.4,2-0.1,4.2-1.7,5.9c-2.6,3-7.2,3.3-10,0.7
		c-3-2.6-3.3-7-0.7-10c1.4-1.7,3.5-2.5,5.7-2.5l11.3-13.7l-10.8-9.5l2.7-3.1l12.1,7.8l9.9-12.1L742.8,426.7z"/>
	<polygon class="st3" points="780,375.9 777,390 752.8,415.9 745.1,406.5 766.5,380.7 	"/>
	<path class="st3" d="M709.4,377.9l3.1,14.1l41.8,44.8l-9.2,10.9l2.7,3.1l10.8-9.5l12.1,13c-0.4,2.1,0.3,4.3,1.7,6
		c2.6,3,7.2,3.3,10.2,0.7c2.9-2.6,3.1-7.2,0.5-10.2c-1.4-1.7-3.5-2.5-5.6-2.3l-11.5-13.8l10.8-9.5l-2.7-3.1l-12.1,7.8l-38.9-47.1
		L709.4,377.9z"/>
</g>
<g>
	<path class="st3" d="M742.8,533.7l-10,10.5l9.2,10.9l-2.7,3.1l-10.7-9.5l-12.2,13.1c0.4,2-0.1,4.2-1.7,5.9c-2.6,3-7.2,3.3-10,0.7
		c-3-2.6-3.3-7-0.7-10c1.4-1.7,3.5-2.5,5.7-2.5l11.3-13.7l-10.8-9.5l2.7-3.1l12.1,7.8l9.9-12.1L742.8,533.7z"/>
	<polygon class="st3" points="780,482.9 777,497 752.8,522.9 745.1,513.5 766.5,487.7 	"/>
	<path class="st3" d="M709.4,484.9l3.1,14.1l41.8,44.8l-9.2,10.9l2.7,3.1l10.8-9.5l12.1,13c-0.4,2.1,0.3,4.3,1.7,6
		c2.6,3,7.2,3.3,10.2,0.7c2.9-2.6,3.1-7.2,0.5-10.2c-1.4-1.7-3.5-2.5-5.6-2.3l-11.5-13.8l10.8-9.5l-2.7-3.1l-12.1,7.8l-38.9-47.1
		L709.4,484.9z"/>
</g>
<g>
	<path class="st3" d="M741.8,640.7l-10,10.5l9.2,10.9l-2.7,3.1l-10.7-9.5l-12.2,13.1c0.4,2-0.1,4.2-1.7,5.9c-2.6,3-7.2,3.3-10,0.7
		c-3-2.6-3.3-7-0.7-10c1.4-1.7,3.5-2.5,5.7-2.5l11.3-13.7l-10.8-9.5l2.7-3.1l12.1,7.8l9.9-12.1L741.8,640.7z"/>
	<polygon class="st3" points="779,589.9 776,604 751.8,629.9 744.1,620.5 765.5,594.7 	"/>
	<path class="st3" d="M708.4,591.9l3.1,14.1l41.8,44.8l-9.2,10.9l2.7,3.1l10.8-9.5l12.1,13c-0.4,2.1,0.3,4.3,1.7,6
		c2.6,3,7.2,3.3,10.2,0.7c2.9-2.6,3.1-7.2,0.5-10.2c-1.4-1.7-3.5-2.5-5.6-2.3l-11.5-13.8l10.8-9.5l-2.7-3.1l-12.1,7.8l-38.9-47.1
		L708.4,591.9z"/>
</g>
<g>
	<path class="st3" d="M864.8,217.7l-10,10.5l9.2,10.9l-2.7,3.1l-10.7-9.5l-12.2,13.1c0.4,2-0.1,4.2-1.7,5.9c-2.6,3-7.2,3.3-10,0.7
		c-3-2.6-3.3-7-0.7-10c1.4-1.7,3.5-2.5,5.7-2.5l11.3-13.7l-10.8-9.5l2.7-3.1l12.1,7.8l9.9-12.1L864.8,217.7z"/>
	<polygon class="st3" points="902,166.9 899,181 874.8,206.9 867.1,197.5 888.5,171.7 	"/>
	<path class="st3" d="M831.4,168.9l3.1,14.1l41.8,44.8l-9.2,10.9l2.7,3.1l10.8-9.5l12.1,13c-0.4,2.1,0.3,4.3,1.7,6
		c2.6,3,7.2,3.3,10.2,0.7c2.9-2.6,3.1-7.2,0.5-10.2c-1.4-1.7-3.5-2.5-5.6-2.3l-11.5-13.8l10.8-9.5l-2.7-3.1l-12.1,7.8l-38.9-47.1
		L831.4,168.9z"/>
</g>
<g>
	<path class="st3" d="M863.8,324.7l-10,10.5l9.2,10.9l-2.7,3.1l-10.7-9.5l-12.2,13.1c0.4,2-0.1,4.2-1.7,5.9c-2.6,3-7.2,3.3-10,0.7
		c-3-2.6-3.3-7-0.7-10c1.4-1.7,3.5-2.5,5.7-2.5l11.3-13.7l-10.8-9.5l2.7-3.1l12.1,7.8l9.9-12.1L863.8,324.7z"/>
	<polygon class="st3" points="901,273.9 898,288 873.8,313.9 866.1,304.5 887.5,278.7 	"/>
	<path class="st3" d="M830.4,275.9l3.1,14.1l41.8,44.8l-9.2,10.9l2.7,3.1l10.8-9.5l12.1,13c-0.4,2.1,0.3,4.3,1.7,6
		c2.6,3,7.2,3.3,10.2,0.7c2.9-2.6,3.1-7.2,0.5-10.2c-1.4-1.7-3.5-2.5-5.6-2.3l-11.5-13.8l10.8-9.5l-2.7-3.1l-12.1,7.8l-38.9-47.1
		L830.4,275.9z"/>
</g>
<g>
	<path class="st3" d="M868.8,431.7l-10,10.5l9.2,10.9l-2.7,3.1l-10.7-9.5l-12.2,13.1c0.4,2-0.1,4.2-1.7,5.9c-2.6,3-7.2,3.3-10,0.7
		c-3-2.6-3.3-7-0.7-10c1.4-1.7,3.5-2.5,5.7-2.5l11.3-13.7l-10.8-9.5l2.7-3.1l12.1,7.8l9.9-12.1L868.8,431.7z"/>
	<polygon class="st3" points="906,380.9 903,395 878.8,420.9 871.1,411.5 892.5,385.7 	"/>
	<path class="st3" d="M835.4,382.9l3.1,14.1l41.8,44.8l-9.2,10.9l2.7,3.1l10.8-9.5l12.1,13c-0.4,2.1,0.3,4.3,1.7,6
		c2.6,3,7.2,3.3,10.2,0.7c2.9-2.6,3.1-7.2,0.5-10.2c-1.4-1.7-3.5-2.5-5.6-2.3l-11.5-13.8l10.8-9.5l-2.7-3.1l-12.1,7.8l-38.9-47.1
		L835.4,382.9z"/>
</g>
<g>
	<path class="st3" d="M868.8,538.7l-10,10.5l9.2,10.9l-2.7,3.1l-10.7-9.5l-12.2,13.1c0.4,2-0.1,4.2-1.7,5.9c-2.6,3-7.2,3.3-10,0.7
		c-3-2.6-3.3-7-0.7-10c1.4-1.7,3.5-2.5,5.7-2.5l11.3-13.7l-10.8-9.5l2.7-3.1l12.1,7.8l9.9-12.1L868.8,538.7z"/>
	<polygon class="st3" points="906,487.9 903,502 878.8,527.9 871.1,518.5 892.5,492.7 	"/>
	<path class="st3" d="M835.4,489.9l3.1,14.1l41.8,44.8l-9.2,10.9l2.7,3.1l10.8-9.5l12.1,13c-0.4,2.1,0.3,4.3,1.7,6
		c2.6,3,7.2,3.3,10.2,0.7c2.9-2.6,3.1-7.2,0.5-10.2c-1.4-1.7-3.5-2.5-5.6-2.3l-11.5-13.8l10.8-9.5l-2.7-3.1l-12.1,7.8l-38.9-47.1
		L835.4,489.9z"/>
</g>
<g>
	<path class="st1" d="M989.8,217.7l-10,10.5l9.2,10.9l-2.7,3.1l-10.7-9.5l-12.2,13.1c0.4,2-0.1,4.2-1.7,5.9c-2.6,3-7.2,3.3-10,0.7
		c-3-2.6-3.3-7-0.7-10c1.4-1.7,3.5-2.5,5.7-2.5l11.3-13.7l-10.8-9.5l2.7-3.1l12.1,7.8l9.9-12.1L989.8,217.7z"/>
	<polygon class="st1" points="1027,166.9 1024,181 999.8,206.9 992.1,197.5 1013.5,171.7 	"/>
	<path class="st1" d="M956.4,168.9l3.1,14.1l41.8,44.8l-9.2,10.9l2.7,3.1l10.8-9.5l12.1,13c-0.4,2.1,0.3,4.3,1.7,6
		c2.6,3,7.2,3.3,10.2,0.7c2.9-2.6,3.1-7.2,0.5-10.2c-1.4-1.7-3.5-2.5-5.6-2.3l-11.5-13.8l10.8-9.5l-2.7-3.1l-12.1,7.8l-38.9-47.1
		L956.4,168.9z"/>
	<path class="st1" d="M988.8,324.7l-10,10.5l9.2,10.9l-2.7,3.1l-10.7-9.5l-12.2,13.1c0.4,2-0.1,4.2-1.7,5.9c-2.6,3-7.2,3.3-10,0.7
		c-3-2.6-3.3-7-0.7-10c1.4-1.7,3.5-2.5,5.7-2.5l11.3-13.7l-10.8-9.5l2.7-3.1l12.1,7.8l9.9-12.1L988.8,324.7z"/>
	<polygon class="st1" points="1026,273.9 1023,288 998.8,313.9 991.1,304.5 1012.5,278.7 	"/>
	<path class="st1" d="M955.4,275.9l3.1,14.1l41.8,44.8l-9.2,10.9l2.7,3.1l10.8-9.5l12.1,13c-0.4,2.1,0.3,4.3,1.7,6
		c2.6,3,7.2,3.3,10.2,0.7c2.9-2.6,3.1-7.2,0.5-10.2c-1.4-1.7-3.5-2.5-5.6-2.3l-11.5-13.8l10.8-9.5l-2.7-3.1l-12.1,7.8l-38.9-47.1
		L955.4,275.9z"/>
	<path class="st1" d="M993.8,431.7l-10,10.5l9.2,10.9l-2.7,3.1l-10.7-9.5l-12.2,13.1c0.4,2-0.1,4.2-1.7,5.9c-2.6,3-7.2,3.3-10,0.7
		c-3-2.6-3.3-7-0.7-10c1.4-1.7,3.5-2.5,5.7-2.5l11.3-13.7l-10.8-9.5l2.7-3.1l12.1,7.8l9.9-12.1L993.8,431.7z"/>
	<polygon class="st1" points="1031,380.9 1028,395 1003.8,420.9 996.1,411.5 1017.5,385.7 	"/>
	<path class="st1" d="M960.4,382.9l3.1,14.1l41.8,44.8l-9.2,10.9l2.7,3.1l10.8-9.5l12.1,13c-0.4,2.1,0.3,4.3,1.7,6
		c2.6,3,7.2,3.3,10.2,0.7c2.9-2.6,3.1-7.2,0.5-10.2c-1.4-1.7-3.5-2.5-5.6-2.3l-11.5-13.8l10.8-9.5l-2.7-3.1l-12.1,7.8l-38.9-47.1
		L960.4,382.9z"/>
	<path class="st1" d="M993.8,538.7l-10,10.5l9.2,10.9l-2.7,3.1l-10.7-9.5l-12.2,13.1c0.4,2-0.1,4.2-1.7,5.9c-2.6,3-7.2,3.3-10,0.7
		c-3-2.6-3.3-7-0.7-10c1.4-1.7,3.5-2.5,5.7-2.5l11.3-13.7l-10.8-9.5l2.7-3.1l12.1,7.8l9.9-12.1L993.8,538.7z"/>
	<polygon class="st1" points="1031,487.9 1028,502 1003.8,527.9 996.1,518.5 1017.5,492.7 	"/>
	<path class="st1" d="M960.4,489.9l3.1,14.1l41.8,44.8l-9.2,10.9l2.7,3.1l10.8-9.5l12.1,13c-0.4,2.1,0.3,4.3,1.7,6
		c2.6,3,7.2,3.3,10.2,0.7c2.9-2.6,3.1-7.2,0.5-10.2c-1.4-1.7-3.5-2.5-5.6-2.3l-11.5-13.8l10.8-9.5l-2.7-3.1l-12.1,7.8l-38.9-47.1
		L960.4,489.9z"/>
</g>
<g>
	<path class="st3" d="M867.8,645.7l-10,10.5l9.2,10.9l-2.7,3.1l-10.7-9.5l-12.2,13.1c0.4,2-0.1,4.2-1.7,5.9c-2.6,3-7.2,3.3-10,0.7
		c-3-2.6-3.3-7-0.7-10c1.4-1.7,3.5-2.5,5.7-2.5l11.3-13.7l-10.8-9.5l2.7-3.1l12.1,7.8l9.9-12.1L867.8,645.7z"/>
	<polygon class="st3" points="905,594.9 902,609 877.8,634.9 870.1,625.5 891.5,599.7 	"/>
	<path class="st3" d="M834.4,596.9l3.1,14.1l41.8,44.8l-9.2,10.9l2.7,3.1l10.8-9.5l12.1,13c-0.4,2.1,0.3,4.3,1.7,6
		c2.6,3,7.2,3.3,10.2,0.7c2.9-2.6,3.1-7.2,0.5-10.2c-1.4-1.7-3.5-2.5-5.6-2.3l-11.5-13.8l10.8-9.5l-2.7-3.1l-12.1,7.8l-38.9-47.1
		L834.4,596.9z"/>
</g>
<g>
	<path class="st3" d="M1483,218.9l11.8,24.8l-24.8-11.8l-9.3,25.9l-9.3-25.9l-24.8,11.8l11.8-24.8l-25.9-9.3l25.9-9.2l-11.8-24.9
		l24.8,11.8l9.3-25.9l9.3,25.9l24.8-11.8l-11.8,24.9l25.9,9.2L1483,218.9z M1473.9,204.2l7-14.7l-14.7,7l-5.4-15.3l-5.4,15.3
		l-14.7-7l7,14.7l-15.3,5.4l15.3,5.4l-7,14.7l14.7-7l5.4,15.3l5.4-15.3l14.7,7l-7-14.7l15.3-5.4L1473.9,204.2z"/>
	<path class="st3" d="M1483,322.8l11.8,24.8l-24.8-11.8l-9.3,25.9l-9.3-25.9l-24.8,11.8l11.8-24.8l-25.9-9.3l25.9-9.2l-11.8-24.9
		l24.8,11.8l9.3-25.9l9.3,25.9l24.8-11.8l-11.8,24.9l25.9,9.2L1483,322.8z M1473.9,308.1l7-14.7l-14.7,7l-5.4-15.3l-5.4,15.3
		l-14.7-7l7,14.7l-15.3,5.4l15.3,5.4l-7,14.7l14.7-7l5.4,15.3l5.4-15.3l14.7,7l-7-14.7l15.3-5.4L1473.9,308.1z"/>
	<path class="st3" d="M1483,426.9l11.8,24.8l-24.8-11.8l-9.3,25.9l-9.3-25.9l-24.8,11.8l11.8-24.8l-25.9-9.3l25.9-9.2l-11.8-24.9
		l24.8,11.8l9.3-25.9l9.3,25.9l24.8-11.8l-11.8,24.9l25.9,9.2L1483,426.9z M1473.9,412.2l7-14.7l-14.7,7l-5.4-15.3l-5.4,15.3
		l-14.7-7l7,14.7l-15.3,5.4l15.3,5.4l-7,14.7l14.7-7l5.4,15.3l5.4-15.3l14.7,7l-7-14.7l15.3-5.4L1473.9,412.2z"/>
	<path class="st3" d="M1483,530.8l11.8,24.8l-24.8-11.8l-9.3,25.9l-9.3-25.9l-24.8,11.8l11.8-24.8l-25.9-9.3l25.9-9.2l-11.8-24.9
		l24.8,11.8l9.3-25.9l9.3,25.9l24.8-11.8l-11.8,24.9l25.9,9.2L1483,530.8z M1473.9,516.1l7-14.7l-14.7,7l-5.4-15.3l-5.4,15.3
		l-14.7-7l7,14.7l-15.3,5.4l15.3,5.4l-7,14.7l14.7-7l5.4,15.3l5.4-15.3l14.7,7l-7-14.7l15.3-5.4L1473.9,516.1z"/>
	<path class="st3" d="M1483,634.8l11.8,24.8l-24.8-11.8l-9.3,25.9l-9.3-25.9l-24.8,11.8l11.8-24.8l-25.9-9.3l25.9-9.2l-11.8-24.9
		l24.8,11.8l9.3-25.9l9.3,25.9l24.8-11.8l-11.8,24.9l25.9,9.2L1483,634.8z M1473.9,620.1l7-14.7l-14.7,7l-5.4-15.3l-5.4,15.3
		l-14.7-7l7,14.7l-15.3,5.4l15.3,5.4l-7,14.7l14.7-7l5.4,15.3l5.4-15.3l14.7,7l-7-14.7l15.3-5.4L1473.9,620.1z"/>
	<path class="st3" d="M1619,219.9l11.8,24.8l-24.8-11.8l-9.3,25.9l-9.3-25.9l-24.8,11.8l11.8-24.8l-25.9-9.3l25.9-9.2l-11.8-24.9
		l24.8,11.8l9.3-25.9l9.3,25.9l24.8-11.8l-11.8,24.9l25.9,9.2L1619,219.9z M1609.9,205.2l7-14.7l-14.7,7l-5.4-15.3l-5.4,15.3
		l-14.7-7l7,14.7l-15.3,5.4l15.3,5.4l-7,14.7l14.7-7l5.4,15.3l5.4-15.3l14.7,7l-7-14.7l15.3-5.4L1609.9,205.2z"/>
	<path class="st3" d="M1619,323.8l11.8,24.8l-24.8-11.8l-9.3,25.9l-9.3-25.9l-24.8,11.8l11.8-24.8l-25.9-9.3l25.9-9.2l-11.8-24.9
		l24.8,11.8l9.3-25.9l9.3,25.9l24.8-11.8l-11.8,24.9l25.9,9.2L1619,323.8z M1609.9,309.1l7-14.7l-14.7,7l-5.4-15.3l-5.4,15.3
		l-14.7-7l7,14.7l-15.3,5.4l15.3,5.4l-7,14.7l14.7-7l5.4,15.3l5.4-15.3l14.7,7l-7-14.7l15.3-5.4L1609.9,309.1z"/>
	<path class="st3" d="M1619,427.9l11.8,24.8l-24.8-11.8l-9.3,25.9l-9.3-25.9l-24.8,11.8l11.8-24.8l-25.9-9.3l25.9-9.2l-11.8-24.9
		l24.8,11.8l9.3-25.9l9.3,25.9l24.8-11.8l-11.8,24.9l25.9,9.2L1619,427.9z M1609.9,413.2l7-14.7l-14.7,7l-5.4-15.3l-5.4,15.3
		l-14.7-7l7,14.7l-15.3,5.4l15.3,5.4l-7,14.7l14.7-7l5.4,15.3l5.4-15.3l14.7,7l-7-14.7l15.3-5.4L1609.9,413.2z"/>
	<path class="st3" d="M1619,531.8l11.8,24.8l-24.8-11.8l-9.3,25.9l-9.3-25.9l-24.8,11.8l11.8-24.8l-25.9-9.3l25.9-9.2l-11.8-24.9
		l24.8,11.8l9.3-25.9l9.3,25.9l24.8-11.8l-11.8,24.9l25.9,9.2L1619,531.8z M1609.9,517.1l7-14.7l-14.7,7l-5.4-15.3l-5.4,15.3
		l-14.7-7l7,14.7l-15.3,5.4l15.3,5.4l-7,14.7l14.7-7l5.4,15.3l5.4-15.3l14.7,7l-7-14.7l15.3-5.4L1609.9,517.1z"/>
	<path class="st3" d="M1619,635.8l11.8,24.8l-24.8-11.8l-9.3,25.9l-9.3-25.9l-24.8,11.8l11.8-24.8l-25.9-9.3l25.9-9.2l-11.8-24.9
		l24.8,11.8l9.3-25.9l9.3,25.9l24.8-11.8l-11.8,24.9l25.9,9.2L1619,635.8z M1609.9,621.1l7-14.7l-14.7,7l-5.4-15.3l-5.4,15.3
		l-14.7-7l7,14.7l-15.3,5.4l15.3,5.4l-7,14.7l14.7-7l5.4,15.3l5.4-15.3l14.7,7l-7-14.7l15.3-5.4L1609.9,621.1z"/>
</g>
<g>
	<rect y="718" class="st2" width="457.9" height="76.4"/>
	<path d="M67.5,764.8c1,0.1,2.2,0,3.8-0.2c2.7-0.4,5.2-1.5,7.2-3.3c2.3-2.1,3.9-5.1,4.6-9.2h-0.2c-1.9,2.3-4.7,3.7-8.1,3.7
		c-6.2,0-10.2-4.7-10.2-10.5c0-6.5,4.7-12.2,11.8-12.2c7,0,11.4,5.7,11.4,14.5c0,7.6-2.5,12.9-5.9,16.2c-2.6,2.6-6.3,4.2-10,4.6
		c-1.7,0.3-3.2,0.3-4.3,0.3V764.8z M69.2,744.9c0,4.3,2.6,7.3,6.6,7.3c3.1,0,5.6-1.5,6.8-3.6c0.3-0.4,0.4-1,0.4-1.7
		c0-5.9-2.2-10.4-7-10.4C72,736.6,69.2,740.1,69.2,744.9z"/>
	<path d="M102.1,737.9H102l-6,3.2l-0.9-3.6l7.5-4h4V768h-4.5V737.9z"/>
	<path d="M134.7,743.3c0,7.3-3.8,10.9-8.3,10.9c-4.3,0-8-3.4-8.1-10.4c0-6.9,3.8-10.8,8.3-10.8C131.5,733,134.7,736.7,134.7,743.3z
		 M122.1,743.6c-0.1,4.4,1.5,7.7,4.5,7.7c3.1,0,4.5-3.3,4.5-7.8c0-4.2-1.2-7.7-4.5-7.7C123.6,735.8,122.1,739.3,122.1,743.6z
		 M126.1,768.6l20.2-35.6h3l-20.2,35.6H126.1z M157.1,757.6c0,7.3-3.8,10.9-8.2,10.9c-4.3,0-8-3.4-8.1-10.3c0-6.9,3.8-10.8,8.3-10.8
		C154,747.3,157.1,751,157.1,757.6z M144.5,757.9c-0.1,4.4,1.6,7.7,4.5,7.7c3.1,0,4.5-3.3,4.5-7.8c0-4.2-1.2-7.7-4.5-7.7
		C146.1,750.1,144.5,753.5,144.5,757.9z"/>
	<path d="M183.7,760.4c0,2.8,1,4.9,3,6.3c1.5,1.1,3.3,1.6,5.2,1.6c1.8,0,3.6-0.6,5.3-1.8c2.1-1.4,3.1-3,3.1-5c0-1.9-0.8-3.9-2.5-6
		c-1.1-1.3-3.1-3.3-6-5.9c-2.9-2.6-4.9-4.5-5.9-5.9c-1.6-2.1-2.4-4.2-2.4-6.3c0-2.5,1-4.6,3-6.4c2.2-1.9,5-2.9,8.4-2.9
		c3,0,5.3,0.3,6.8,0.8c0.8,0.3,1.2,0.5,1.4,0.8l-1.3,7.4c0-1.5-0.5-2.9-1.5-4.3c-1.3-1.8-3-2.7-5.2-2.7c-2.4,0-4.2,0.5-5.4,1.4
		c-1.2,0.9-1.8,2.3-1.8,3.9c0,2.8,2.4,6.2,7.3,10.2c3,2.5,5,4.3,6,5.4c2.1,2.5,3.2,5,3.2,7.5c0,4-1.8,7.2-5.4,9.6
		c-2.9,1.9-5.9,2.9-9.1,2.9c-2,0-3.8-0.5-5.3-1.5c-0.8-0.5-1.3-1-1.6-1.6C182.8,765.9,183,763.4,183.7,760.4z"/>
	<path d="M247.1,728c-0.5,0.2-1.1,0.5-1.7,0.9c-1.2,0.8-1.8,1.8-1.9,3v19c0,6.2-1.8,11.2-5.5,15c-3.3,3.4-7.2,5.1-11.7,5.1
		c-4.9,0-9-1.5-12.4-4.4c-4.2-3.6-6.2-8.9-6.2-15.8v-19.1c-0.2-1.3-0.8-2.3-1.8-3c-0.5-0.4-1-0.6-1.4-0.7h12.2
		c-0.6,0.2-1.2,0.5-1.7,0.9c-1.2,0.9-1.8,1.9-1.9,3l0,13l0,5.2c0,10.4,3,16.5,8.9,18.2l1.2,0.3c0.5,0.1,0.9,0.2,1.4,0.2l2.1,0.1
		c0.7,0,1.2-0.1,1.7-0.1l1.2-0.2c2.7-0.6,4.8-2,6.3-4.3c1.8-2.9,2.8-7.4,2.8-13.4v-18.2c0-1.6-0.6-2.9-1.7-3.8
		c-0.6-0.4-1.1-0.7-1.7-0.9H247.1z"/>
	<path d="M283.8,767.7c-0.7,0.6-1.8,1.1-3.3,1.7c-3,1.1-6.4,1.7-10.3,1.7c-0.4,0-0.9,0-1.4,0c-6.7-0.2-12-2.1-16-5.5
		c-4.5-3.9-6.7-9.5-6.7-16.9c-0.2-3.4,0.7-6.9,2.5-10.3c3.6-6.9,10.4-10.3,20.3-10.3c8,0.6,12.9,1.2,14.9,1.8l-1.4,9.5
		c-0.3-1.6-1.1-3.1-2.3-4.7c-2.4-3.1-6-4.7-10.8-4.7c-5.7,0-10.2,1.7-13.5,5c-3.3,3.4-5,8-5,13.9c0,5.6,2.3,10.4,6.8,14.3
		c4.2,3.6,8.9,5.4,14,5.4c1-0.1,2.2-0.4,3.7-1c2.8-1.3,5.3-3.3,7.3-6.2L283.8,767.7z"/>
	<path d="M320.6,767.7c-0.7,0.6-1.8,1.1-3.3,1.7c-3,1.1-6.4,1.7-10.3,1.7c-0.4,0-0.9,0-1.4,0c-6.7-0.2-12-2.1-16-5.5
		c-4.5-3.9-6.7-9.5-6.7-16.9c-0.2-3.4,0.7-6.9,2.5-10.3c3.6-6.9,10.4-10.3,20.3-10.3c8,0.6,12.9,1.2,14.9,1.8l-1.4,9.5
		c-0.3-1.6-1.1-3.1-2.3-4.7c-2.4-3.1-6-4.7-10.8-4.7c-5.7,0-10.2,1.7-13.5,5c-3.3,3.4-5,8-5,13.9c0,5.6,2.3,10.4,6.8,14.3
		c4.2,3.6,8.9,5.4,14,5.4c1-0.1,2.2-0.4,3.7-1c2.8-1.3,5.3-3.3,7.3-6.2L320.6,767.7z"/>
	<path d="M344.4,728.8l1.6-0.8l-1.6,7.9c-0.1-0.8-0.3-1.6-0.7-2.3c-0.8-1.6-2.1-2.4-3.8-2.4h-8.2v16.1h9c1.7,0,3.2-0.5,4.3-1.4
		l-1,8.4c0-0.8-0.3-1.5-0.7-2.3c-0.9-1.5-2.5-2.3-4.6-2.3h-6.9v16c0.5,0.6,1.1,1.2,2,1.8c1.7,1.2,3.6,1.8,5.6,1.8
		c2,0,3.9-0.9,5.6-2.8c0.9-1,1.5-1.9,2-2.8L346,771H323c0.6-0.2,1.2-0.5,1.8-1c1.2-0.9,1.8-2,1.8-3.3c0-2,0-13.7-0.1-35.1
		c-0.6-1.3-2.1-2.3-4.4-2.9H344.4z"/>
	<path d="M350.3,760.4c0,2.8,1,4.9,3,6.3c1.5,1.1,3.3,1.6,5.2,1.6c1.8,0,3.6-0.6,5.3-1.8c2.1-1.4,3.1-3,3.1-5c0-1.9-0.8-3.9-2.5-6
		c-1.1-1.3-3.1-3.3-6-5.9c-2.9-2.6-4.9-4.5-5.9-5.9c-1.6-2.1-2.4-4.2-2.4-6.3c0-2.5,1-4.6,3-6.4c2.2-1.9,5-2.9,8.4-2.9
		c3,0,5.3,0.3,6.8,0.8c0.8,0.3,1.2,0.5,1.4,0.8l-1.3,7.4c0-1.5-0.5-2.9-1.5-4.3c-1.3-1.8-3-2.7-5.2-2.7c-2.4,0-4.2,0.5-5.4,1.4
		c-1.2,0.9-1.8,2.3-1.8,3.9c0,2.8,2.4,6.2,7.3,10.2c3,2.5,5,4.3,6,5.4c2.1,2.5,3.2,5,3.2,7.5c0,4-1.8,7.2-5.4,9.6
		c-2.9,1.9-5.9,2.9-9.1,2.9c-2,0-3.8-0.5-5.3-1.5c-0.8-0.5-1.3-1-1.6-1.6C349.4,765.9,349.6,763.4,350.3,760.4z"/>
	<path d="M374.6,760.4c0,2.8,1,4.9,3,6.3c1.5,1.1,3.3,1.6,5.2,1.6c1.8,0,3.6-0.6,5.3-1.8c2.1-1.4,3.1-3,3.1-5c0-1.9-0.8-3.9-2.5-6
		c-1.1-1.3-3.1-3.3-6-5.9c-2.9-2.6-4.8-4.5-5.9-5.9c-1.6-2.1-2.4-4.2-2.4-6.3c0-2.5,1-4.6,3-6.4c2.2-1.9,5-2.9,8.4-2.9
		c3,0,5.3,0.3,6.8,0.8c0.8,0.3,1.2,0.5,1.4,0.8l-1.3,7.4c0-1.5-0.5-2.9-1.5-4.3c-1.3-1.8-3-2.7-5.2-2.7c-2.4,0-4.2,0.5-5.4,1.4
		c-1.2,0.9-1.8,2.3-1.8,3.9c0,2.8,2.4,6.2,7.3,10.2c3,2.5,5,4.3,6,5.4c2.1,2.5,3.2,5,3.2,7.5c0,4-1.8,7.2-5.4,9.6
		c-2.9,1.9-5.9,2.9-9.1,2.9c-2,0-3.8-0.5-5.3-1.5c-0.8-0.5-1.3-1-1.6-1.6C373.7,765.9,373.9,763.4,374.6,760.4z"/>
</g>
<g>
	<rect x="635" y="718" class="st2" width="457.9" height="76.4"/>
	<path d="M722.2,733.6v3.1l-15,31.4h-4.8l14.9-30.5v-0.1h-16.9v-3.9H722.2z"/>
	<path d="M737.1,737.9H737l-6,3.2l-0.9-3.6l7.5-4h4V768h-4.5V737.9z"/>
	<path d="M769.7,743.3c0,7.3-3.8,10.9-8.3,10.9c-4.3,0-8-3.4-8.1-10.4c0-6.9,3.8-10.8,8.3-10.8C766.5,733,769.7,736.7,769.7,743.3z
		 M757.1,743.6c-0.1,4.4,1.5,7.7,4.5,7.7c3.1,0,4.5-3.3,4.5-7.8c0-4.2-1.2-7.7-4.5-7.7C758.6,735.8,757.1,739.3,757.1,743.6z
		 M761.1,768.6l20.2-35.6h3l-20.2,35.6H761.1z M792.1,757.6c0,7.3-3.8,10.9-8.2,10.9c-4.3,0-8-3.4-8.1-10.3c0-6.9,3.8-10.8,8.3-10.8
		C789,747.3,792.1,751,792.1,757.6z M779.5,757.9c-0.1,4.4,1.6,7.7,4.5,7.7c3.1,0,4.5-3.3,4.5-7.8c0-4.2-1.2-7.7-4.5-7.7
		C781.1,750.1,779.5,753.5,779.5,757.9z"/>
	<path d="M818.7,760.4c0,2.8,1,4.9,3,6.3c1.5,1.1,3.3,1.6,5.2,1.6c1.8,0,3.6-0.6,5.3-1.8c2.1-1.4,3.1-3,3.1-5c0-1.9-0.8-3.9-2.5-6
		c-1.1-1.3-3.1-3.3-6-5.9c-2.9-2.6-4.9-4.5-5.9-5.9c-1.6-2.1-2.4-4.2-2.4-6.3c0-2.5,1-4.6,3-6.4c2.2-1.9,5-2.9,8.4-2.9
		c3,0,5.3,0.3,6.8,0.8c0.8,0.3,1.2,0.5,1.4,0.8l-1.3,7.4c0-1.5-0.5-2.9-1.5-4.3c-1.3-1.8-3-2.7-5.2-2.7c-2.4,0-4.2,0.5-5.4,1.4
		c-1.2,0.9-1.8,2.3-1.8,3.9c0,2.8,2.4,6.2,7.3,10.2c3,2.5,5,4.3,6,5.4c2.1,2.5,3.2,5,3.2,7.5c0,4-1.8,7.2-5.4,9.6
		c-2.9,1.9-5.9,2.9-9.1,2.9c-2,0-3.8-0.5-5.3-1.5c-0.8-0.5-1.3-1-1.6-1.6C817.8,765.9,818,763.4,818.7,760.4z"/>
	<path d="M882.1,728c-0.5,0.2-1.1,0.5-1.7,0.9c-1.2,0.8-1.8,1.8-1.9,3v19c0,6.2-1.8,11.2-5.5,15c-3.3,3.4-7.2,5.1-11.7,5.1
		c-4.9,0-9-1.5-12.4-4.4c-4.2-3.6-6.2-8.9-6.2-15.8v-19.1c-0.2-1.3-0.8-2.3-1.8-3c-0.5-0.4-1-0.6-1.4-0.7h12.2
		c-0.6,0.2-1.2,0.5-1.7,0.9c-1.2,0.9-1.8,1.9-1.9,3l0,13l0,5.2c0,10.4,3,16.5,8.9,18.2l1.2,0.3c0.5,0.1,0.9,0.2,1.4,0.2l2.1,0.1
		c0.7,0,1.2-0.1,1.7-0.1l1.2-0.2c2.7-0.6,4.8-2,6.3-4.3c1.8-2.9,2.8-7.4,2.8-13.4v-18.2c0-1.6-0.6-2.9-1.7-3.8
		c-0.6-0.4-1.1-0.7-1.7-0.9H882.1z"/>
	<path d="M918.8,767.7c-0.7,0.6-1.8,1.1-3.3,1.7c-3,1.1-6.4,1.7-10.3,1.7c-0.4,0-0.9,0-1.4,0c-6.7-0.2-12-2.1-16-5.5
		c-4.5-3.9-6.7-9.5-6.7-16.9c-0.2-3.4,0.7-6.9,2.5-10.3c3.6-6.9,10.4-10.3,20.3-10.3c8,0.6,12.9,1.2,14.9,1.8l-1.4,9.5
		c-0.3-1.6-1.1-3.1-2.3-4.7c-2.5-3.1-6-4.7-10.8-4.7c-5.7,0-10.2,1.7-13.5,5c-3.3,3.4-5,8-5,13.9c0,5.6,2.3,10.4,6.8,14.3
		c4.2,3.6,8.9,5.4,14,5.4c1-0.1,2.2-0.4,3.7-1c2.8-1.3,5.3-3.3,7.3-6.2L918.8,767.7z"/>
	<path d="M955.6,767.7c-0.7,0.6-1.8,1.1-3.3,1.7c-3,1.1-6.4,1.7-10.3,1.7c-0.4,0-0.9,0-1.4,0c-6.7-0.2-12-2.1-16-5.5
		c-4.5-3.9-6.7-9.5-6.7-16.9c-0.2-3.4,0.7-6.9,2.5-10.3c3.6-6.9,10.4-10.3,20.3-10.3c8,0.6,12.9,1.2,14.9,1.8l-1.4,9.5
		c-0.3-1.6-1.1-3.1-2.3-4.7c-2.5-3.1-6-4.7-10.8-4.7c-5.7,0-10.2,1.7-13.5,5c-3.3,3.4-5,8-5,13.9c0,5.6,2.3,10.4,6.8,14.3
		c4.2,3.6,8.9,5.4,14,5.4c1-0.1,2.2-0.4,3.7-1c2.8-1.3,5.3-3.3,7.3-6.2L955.6,767.7z"/>
	<path d="M979.4,728.8l1.6-0.8l-1.6,7.9c-0.1-0.8-0.3-1.6-0.7-2.3c-0.8-1.6-2.1-2.4-3.8-2.4h-8.2v16.1h9c1.7,0,3.2-0.5,4.3-1.4
		l-1.1,8.4c0-0.8-0.3-1.5-0.7-2.3c-0.9-1.5-2.5-2.3-4.6-2.3h-6.9v16c0.5,0.6,1.1,1.2,2,1.8c1.7,1.2,3.6,1.8,5.6,1.8
		c2,0,3.9-0.9,5.6-2.8c0.9-1,1.5-1.9,2-2.8L981,771H958c0.6-0.2,1.2-0.5,1.8-1c1.2-0.9,1.8-2,1.8-3.3c0-2,0-13.7-0.1-35.1
		c-0.6-1.3-2.1-2.3-4.4-2.9H979.4z"/>
	<path d="M985.3,760.4c0,2.8,1,4.9,3,6.3c1.5,1.1,3.3,1.6,5.2,1.6c1.8,0,3.6-0.6,5.3-1.8c2.1-1.4,3.1-3,3.1-5c0-1.9-0.8-3.9-2.5-6
		c-1.1-1.3-3.1-3.3-6-5.9c-2.9-2.6-4.8-4.5-5.9-5.9c-1.6-2.1-2.4-4.2-2.4-6.3c0-2.5,1-4.6,3-6.4c2.2-1.9,5-2.9,8.4-2.9
		c3,0,5.3,0.3,6.8,0.8c0.8,0.3,1.2,0.5,1.4,0.8l-1.3,7.4c0-1.5-0.5-2.9-1.5-4.3c-1.3-1.8-3-2.7-5.2-2.7c-2.4,0-4.2,0.5-5.4,1.4
		c-1.2,0.9-1.8,2.3-1.8,3.9c0,2.8,2.4,6.2,7.3,10.2c3,2.5,5,4.3,6,5.4c2.1,2.5,3.2,5,3.2,7.5c0,4-1.8,7.2-5.4,9.6
		c-2.9,1.9-5.9,2.9-9.1,2.9c-2,0-3.8-0.5-5.3-1.5c-0.8-0.5-1.3-1-1.6-1.6C984.4,765.9,984.6,763.4,985.3,760.4z"/>
	<path d="M1009.6,760.4c0,2.8,1,4.9,3,6.3c1.5,1.1,3.3,1.6,5.2,1.6c1.8,0,3.6-0.6,5.3-1.8c2.1-1.4,3.1-3,3.1-5c0-1.9-0.8-3.9-2.5-6
		c-1.1-1.3-3.1-3.3-6-5.9c-2.9-2.6-4.8-4.5-5.9-5.9c-1.6-2.1-2.4-4.2-2.4-6.3c0-2.5,1-4.6,3-6.4c2.2-1.9,5-2.9,8.4-2.9
		c3,0,5.3,0.3,6.8,0.8c0.8,0.3,1.2,0.5,1.4,0.8l-1.3,7.4c0-1.5-0.5-2.9-1.5-4.3c-1.3-1.8-3-2.7-5.2-2.7c-2.4,0-4.2,0.5-5.4,1.4
		c-1.2,0.9-1.8,2.3-1.8,3.9c0,2.8,2.4,6.2,7.3,10.2c3,2.5,5,4.3,6,5.4c2.1,2.5,3.2,5,3.2,7.5c0,4-1.8,7.2-5.4,9.6
		c-2.9,1.9-5.9,2.9-9.1,2.9c-2,0-3.8-0.5-5.3-1.5c-0.8-0.5-1.3-1-1.6-1.6C1008.7,765.9,1008.9,763.4,1009.6,760.4z"/>
</g>
<g>
	<rect x="1300" y="718" class="st2" width="457.9" height="76.4"/>
	<path d="M1361.3,737.9h-0.1l-6,3.2l-0.9-3.6l7.5-4h4V768h-4.5V737.9z"/>
	<path d="M1401.3,750.5c0,11.7-4.3,18.2-12,18.2c-6.7,0-11.3-6.3-11.4-17.7c0-11.6,5-17.9,12-17.9
		C1397.2,733,1401.3,739.5,1401.3,750.5z M1382.6,751c0,9,2.8,14,7,14c4.8,0,7-5.6,7-14.4c0-8.5-2.2-14-7-14
		C1385.5,736.6,1382.6,741.6,1382.6,751z"/>
	<path d="M1428.5,750.5c0,11.7-4.3,18.2-12,18.2c-6.7,0-11.3-6.3-11.4-17.7c0-11.6,5-17.9,12-17.9
		C1424.3,733,1428.5,739.5,1428.5,750.5z M1409.8,751c0,9,2.8,14,7,14c4.8,0,7-5.6,7-14.4c0-8.5-2.2-14-7-14
		C1412.7,736.6,1409.8,741.6,1409.8,751z"/>
	<path d="M1448.3,743.3c0,7.3-3.8,10.9-8.3,10.9c-4.3,0-8-3.4-8.1-10.4c0-6.9,3.8-10.8,8.3-10.8
		C1445.1,733,1448.3,736.7,1448.3,743.3z M1435.7,743.6c-0.1,4.4,1.5,7.7,4.5,7.7c3.1,0,4.5-3.3,4.5-7.8c0-4.2-1.2-7.7-4.5-7.7
		C1437.2,735.8,1435.7,739.3,1435.7,743.6z M1439.7,768.6L1460,733h3l-20.2,35.6H1439.7z M1470.7,757.6c0,7.3-3.8,10.9-8.2,10.9
		c-4.3,0-8-3.4-8.1-10.3c0-6.9,3.8-10.8,8.3-10.8C1467.6,747.3,1470.7,751,1470.7,757.6z M1458.1,757.9c-0.1,4.4,1.6,7.7,4.5,7.7
		c3.1,0,4.5-3.3,4.5-7.8c0-4.2-1.2-7.7-4.5-7.7C1459.7,750.1,1458.1,753.5,1458.1,757.9z"/>
	<path d="M1497.3,760.4c0,2.8,1,4.9,3,6.3c1.5,1.1,3.3,1.6,5.2,1.6c1.8,0,3.6-0.6,5.3-1.8c2.1-1.4,3.1-3,3.1-5c0-1.9-0.8-3.9-2.5-6
		c-1.1-1.3-3.1-3.3-6-5.9c-2.9-2.6-4.9-4.5-5.9-5.9c-1.6-2.1-2.4-4.2-2.4-6.3c0-2.5,1-4.6,3-6.4c2.2-1.9,5-2.9,8.4-2.9
		c3,0,5.3,0.3,6.8,0.8c0.8,0.3,1.2,0.5,1.4,0.8l-1.3,7.4c0-1.5-0.5-2.9-1.5-4.3c-1.3-1.8-3-2.7-5.2-2.7c-2.4,0-4.2,0.5-5.4,1.4
		c-1.2,0.9-1.8,2.3-1.8,3.9c0,2.8,2.4,6.2,7.3,10.2c3,2.5,5,4.3,6,5.4c2.1,2.5,3.2,5,3.2,7.5c0,4-1.8,7.2-5.4,9.6
		c-2.9,1.9-5.9,2.9-9.1,2.9c-2,0-3.8-0.5-5.3-1.5c-0.8-0.5-1.3-1-1.6-1.6C1496.4,765.9,1496.6,763.4,1497.3,760.4z"/>
	<path d="M1560.7,728c-0.5,0.2-1.1,0.5-1.7,0.9c-1.2,0.8-1.8,1.8-1.9,3v19c0,6.2-1.8,11.2-5.5,15c-3.3,3.4-7.2,5.1-11.7,5.1
		c-4.9,0-9-1.5-12.4-4.4c-4.2-3.6-6.2-8.9-6.2-15.8v-19.1c-0.2-1.3-0.8-2.3-1.8-3c-0.5-0.4-1-0.6-1.4-0.7h12.2
		c-0.6,0.2-1.2,0.5-1.7,0.9c-1.2,0.9-1.8,1.9-1.9,3l0,13l0,5.2c0,10.4,3,16.5,8.9,18.2l1.2,0.3c0.5,0.1,0.9,0.2,1.4,0.2l2.1,0.1
		c0.7,0,1.2-0.1,1.7-0.1l1.2-0.2c2.7-0.6,4.8-2,6.3-4.3c1.8-2.9,2.8-7.4,2.8-13.4v-18.2c0-1.6-0.6-2.9-1.7-3.8
		c-0.6-0.4-1.1-0.7-1.7-0.9H1560.7z"/>
	<path d="M1597.4,767.7c-0.7,0.6-1.8,1.1-3.3,1.7c-3,1.1-6.4,1.7-10.3,1.7c-0.4,0-0.9,0-1.4,0c-6.7-0.2-12-2.1-16-5.5
		c-4.5-3.9-6.7-9.5-6.7-16.9c-0.2-3.4,0.7-6.9,2.5-10.3c3.6-6.9,10.4-10.3,20.3-10.3c8,0.6,12.9,1.2,14.9,1.8l-1.4,9.5
		c-0.3-1.6-1.1-3.1-2.3-4.7c-2.5-3.1-6-4.7-10.8-4.7c-5.7,0-10.2,1.7-13.5,5c-3.3,3.4-5,8-5,13.9c0,5.6,2.3,10.4,6.8,14.3
		c4.2,3.6,8.9,5.4,14,5.4c1-0.1,2.2-0.4,3.7-1c2.8-1.3,5.3-3.3,7.3-6.2L1597.4,767.7z"/>
	<path d="M1634.2,767.7c-0.7,0.6-1.8,1.1-3.3,1.7c-3,1.1-6.4,1.7-10.3,1.7c-0.4,0-0.9,0-1.4,0c-6.7-0.2-12-2.1-16-5.5
		c-4.5-3.9-6.7-9.5-6.7-16.9c-0.2-3.4,0.7-6.9,2.5-10.3c3.6-6.9,10.4-10.3,20.3-10.3c8,0.6,12.9,1.2,14.9,1.8l-1.4,9.5
		c-0.3-1.6-1.1-3.1-2.3-4.7c-2.5-3.1-6-4.7-10.8-4.7c-5.7,0-10.2,1.7-13.5,5c-3.3,3.4-5,8-5,13.9c0,5.6,2.3,10.4,6.8,14.3
		c4.2,3.6,8.9,5.4,14,5.4c1-0.1,2.2-0.4,3.7-1c2.8-1.3,5.3-3.3,7.3-6.2L1634.2,767.7z"/>
	<path d="M1657.9,728.8l1.6-0.8l-1.6,7.9c-0.1-0.8-0.3-1.6-0.7-2.3c-0.8-1.6-2.1-2.4-3.8-2.4h-8.2v16.1h9c1.7,0,3.2-0.5,4.3-1.4
		l-1.1,8.4c0-0.8-0.3-1.5-0.7-2.3c-0.9-1.5-2.5-2.3-4.6-2.3h-6.9v16c0.5,0.6,1.1,1.2,2,1.8c1.7,1.2,3.6,1.8,5.6,1.8
		c2,0,3.9-0.9,5.6-2.8c0.9-1,1.5-1.9,2-2.8l-0.9,7.4h-22.9c0.6-0.2,1.2-0.5,1.8-1c1.2-0.9,1.8-2,1.8-3.3c0-2,0-13.7-0.1-35.1
		c-0.6-1.3-2.1-2.3-4.4-2.9H1657.9z"/>
	<path d="M1663.8,760.4c0,2.8,1,4.9,3,6.3c1.5,1.1,3.3,1.6,5.2,1.6c1.8,0,3.6-0.6,5.3-1.8c2.1-1.4,3.1-3,3.1-5c0-1.9-0.8-3.9-2.5-6
		c-1.1-1.3-3.1-3.3-6-5.9c-2.9-2.6-4.8-4.5-5.9-5.9c-1.6-2.1-2.4-4.2-2.4-6.3c0-2.5,1-4.6,3-6.4c2.2-1.9,5-2.9,8.4-2.9
		c3,0,5.3,0.3,6.8,0.8c0.8,0.3,1.2,0.5,1.4,0.8l-1.3,7.4c0-1.5-0.5-2.9-1.5-4.3c-1.3-1.8-3-2.7-5.2-2.7c-2.4,0-4.2,0.5-5.4,1.4
		c-1.2,0.9-1.8,2.3-1.8,3.9c0,2.8,2.4,6.2,7.3,10.2c3,2.5,5,4.3,6,5.4c2.1,2.5,3.2,5,3.2,7.5c0,4-1.8,7.2-5.4,9.6
		c-2.9,1.9-5.9,2.9-9.1,2.9c-2,0-3.8-0.5-5.3-1.5c-0.8-0.5-1.3-1-1.6-1.6C1663,765.9,1663.2,763.4,1663.8,760.4z"/>
	<path d="M1688.2,760.4c0,2.8,1,4.9,3,6.3c1.5,1.1,3.3,1.6,5.2,1.6c1.8,0,3.6-0.6,5.3-1.8c2.1-1.4,3.1-3,3.1-5c0-1.9-0.8-3.9-2.5-6
		c-1.1-1.3-3.1-3.3-6-5.9c-2.9-2.6-4.8-4.5-5.9-5.9c-1.6-2.1-2.4-4.2-2.4-6.3c0-2.5,1-4.6,3-6.4c2.2-1.9,5-2.9,8.4-2.9
		c3,0,5.3,0.3,6.8,0.8c0.8,0.3,1.2,0.5,1.4,0.8l-1.3,7.4c0-1.5-0.5-2.9-1.5-4.3c-1.3-1.8-3-2.7-5.2-2.7c-2.4,0-4.2,0.5-5.4,1.4
		c-1.2,0.9-1.8,2.3-1.8,3.9c0,2.8,2.4,6.2,7.3,10.2c3,2.5,5,4.3,6,5.4c2.1,2.5,3.2,5,3.2,7.5c0,4-1.8,7.2-5.4,9.6
		c-2.9,1.9-5.9,2.9-9.1,2.9c-2,0-3.8-0.5-5.3-1.5c-0.8-0.5-1.3-1-1.6-1.6C1687.3,765.9,1687.5,763.4,1688.2,760.4z"/>
</g>
<g>
</g>
<g>
</g>
<g>
</g>
<g>
</g>
<g>
</g>
<g>
</g>
<g>
</g>
<g>
</g>
<g>
</g>
<g>
</g>
<g>
</g>
<g>
</g>
<g>
</g>
<g>
</g>
<g>
</g>
</svg>
