<?xml version="1.0" encoding="utf-8"?>
<!-- Generator: Adobe Illustrator 22.0.1, SVG Export Plug-In . SVG Version: 6.00 Build 0)  -->
<svg version="1.1" id="Calque_1" xmlns="http://www.w3.org/2000/svg" xmlns:xlink="http://www.w3.org/1999/xlink" x="0px" y="0px"
	 viewBox="0 0 1157 407.5" style="enable-background:new 0 0 1157 407.5;" xml:space="preserve">
<style type="text/css">
	.st0{fill:none;stroke:#000000;stroke-miterlimit:10;}
	.st1{opacity:0.25;}
	.st2{fill:none;}
	.st3{opacity:0.25;fill:none;stroke:#000000;stroke-miterlimit:10;}
	.st4{fill:none;stroke:#0010E7;stroke-width:3;stroke-miterlimit:10;}
	.st5{fill:none;stroke:#000000;stroke-width:3;stroke-miterlimit:10;}
	.st6{fill:none;stroke:#CC3333;stroke-width:3;stroke-miterlimit:10;}
	.st7{fill:none;stroke:#009933;stroke-width:3;stroke-miterlimit:10;}
	.st8{fill:none;stroke:#FFB317;stroke-width:3;stroke-miterlimit:10;}
	.st9{fill:none;stroke:#A26000;stroke-width:3;stroke-miterlimit:10;}
	.st10{fill:none;stroke:#00B1D0;stroke-width:3;stroke-miterlimit:10;}
	.st11{fill:none;stroke:#7C008B;stroke-width:3;stroke-miterlimit:10;}
	.st12{fill:#FFFFFF;stroke:#0010E7;stroke-width:4;stroke-miterlimit:10;}
	.st13{fill:#FFFFFF;stroke:#A26000;stroke-width:4;stroke-miterlimit:10;}
	.st14{fill:#FFFFFF;stroke:#009933;stroke-width:4;stroke-miterlimit:10;}
	.st15{fill:#FFFFFF;stroke:#FFB317;stroke-width:4;stroke-miterlimit:10;}
	.st16{fill:#FFFFFF;stroke:#00B1D0;stroke-width:4;stroke-miterlimit:10;}
	.st17{fill:#FFFFFF;stroke:#7C008B;stroke-width:4;stroke-miterlimit:10;}
	.st18{fill:#FFFFFF;stroke:#CC3333;stroke-width:4;stroke-miterlimit:10;}
	.st19{fill:#007273;stroke:#00B1D0;stroke-width:3;stroke-miterlimit:10;}
</style>
<g>
	<line class="st0" x1="51.1" y1="0.5" x2="51.1" y2="380.2"/>
</g>
<line class="st0" x1="848.2" y1="380" x2="51.1" y2="380.2"/>
<g class="st1">
	<line class="st0" x1="539" y1="0" x2="539" y2="379.7"/>
</g>
<g class="st1">
	<line class="st0" x1="438.9" y1="1" x2="438.9" y2="380.6"/>
</g>
<g class="st1">
	<line class="st0" x1="341.1" y1="1" x2="341.1" y2="380.6"/>
</g>
<g class="st1">
	<line class="st0" x1="242.2" y1="380.6" x2="242.2" y2="1"/>
</g>
<g class="st1">
	<line class="st0" x1="146.7" y1="1" x2="146.7" y2="380.6"/>
</g>
<g class="st1">
	<line class="st0" x1="738" y1="1" x2="738" y2="380.6"/>
</g>
<g class="st1">
	<line class="st0" x1="637.9" y1="1" x2="637.9" y2="380.6"/>
</g>
<g>
	<rect x="103.4" y="389.8" class="st2" width="83.8" height="17.8"/>
	<path d="M104,395.5l1.2-0.1c0.1,0.4,0.2,0.8,0.4,1c0.2,0.3,0.5,0.5,1,0.7c0.4,0.2,0.9,0.2,1.5,0.2c0.5,0,0.9-0.1,1.3-0.2
		c0.4-0.1,0.7-0.3,0.8-0.5c0.2-0.2,0.3-0.5,0.3-0.7c0-0.3-0.1-0.5-0.3-0.7c-0.2-0.2-0.5-0.4-0.9-0.5c-0.3-0.1-0.8-0.2-1.7-0.4
		c-0.9-0.2-1.5-0.4-1.9-0.5c-0.5-0.2-0.8-0.5-1-0.8c-0.2-0.3-0.3-0.7-0.3-1c0-0.4,0.1-0.8,0.4-1.2s0.7-0.6,1.2-0.8
		c0.5-0.2,1.1-0.3,1.8-0.3c0.7,0,1.4,0.1,1.9,0.3c0.6,0.2,1,0.5,1.3,0.9c0.3,0.4,0.5,0.8,0.5,1.3l-1.2,0.1c-0.1-0.5-0.3-0.9-0.7-1.2
		s-1-0.4-1.7-0.4c-0.8,0-1.4,0.1-1.7,0.4c-0.4,0.2-0.5,0.5-0.5,0.9c0,0.3,0.1,0.5,0.4,0.7c0.2,0.2,0.9,0.4,1.9,0.6
		c1.1,0.2,1.8,0.4,2.2,0.5c0.6,0.2,1,0.5,1.3,0.9s0.4,0.7,0.4,1.2c0,0.4-0.1,0.9-0.4,1.3c-0.3,0.4-0.7,0.7-1.3,0.9
		c-0.6,0.2-1.2,0.3-1.9,0.3c-0.9,0-1.6-0.1-2.2-0.3c-0.6-0.2-1.1-0.6-1.4-1S104.1,396,104,395.5z"/>
	<path d="M113.6,398.2v-8.4h7.1v1h-5.8v2.6h5.4v1h-5.4v2.9h6v1H113.6z"/>
	<path d="M121.6,398.2l3.8-8.4h1.4l4,8.4h-1.5l-1.1-2.5H124l-1.1,2.5H121.6z M124.4,394.7h3.3l-1-2.3c-0.3-0.7-0.5-1.3-0.7-1.7
		c-0.1,0.5-0.3,1.1-0.5,1.6L124.4,394.7z"/>
	<path d="M131.3,395.5l1.2-0.1c0.1,0.4,0.2,0.8,0.4,1c0.2,0.3,0.5,0.5,1,0.7c0.4,0.2,0.9,0.2,1.5,0.2c0.5,0,0.9-0.1,1.3-0.2
		c0.4-0.1,0.7-0.3,0.8-0.5c0.2-0.2,0.3-0.5,0.3-0.7c0-0.3-0.1-0.5-0.3-0.7c-0.2-0.2-0.5-0.4-0.9-0.5c-0.3-0.1-0.8-0.2-1.7-0.4
		c-0.9-0.2-1.5-0.4-1.9-0.5c-0.5-0.2-0.8-0.5-1-0.8c-0.2-0.3-0.3-0.7-0.3-1c0-0.4,0.1-0.8,0.4-1.2s0.7-0.6,1.2-0.8
		c0.5-0.2,1.1-0.3,1.8-0.3c0.7,0,1.4,0.1,1.9,0.3c0.6,0.2,1,0.5,1.3,0.9c0.3,0.4,0.5,0.8,0.5,1.3l-1.2,0.1c-0.1-0.5-0.3-0.9-0.7-1.2
		s-1-0.4-1.7-0.4c-0.8,0-1.4,0.1-1.7,0.4c-0.4,0.2-0.5,0.5-0.5,0.9c0,0.3,0.1,0.5,0.4,0.7c0.2,0.2,0.9,0.4,1.9,0.6
		c1.1,0.2,1.8,0.4,2.2,0.5c0.6,0.2,1,0.5,1.3,0.9s0.4,0.7,0.4,1.2c0,0.4-0.1,0.9-0.4,1.3c-0.3,0.4-0.7,0.7-1.3,0.9
		c-0.6,0.2-1.2,0.3-1.9,0.3c-0.9,0-1.6-0.1-2.2-0.3c-0.6-0.2-1.1-0.6-1.4-1S131.4,396,131.3,395.5z"/>
	<path d="M140.5,394.1c0-1.4,0.4-2.5,1.3-3.3c0.9-0.8,2-1.2,3.4-1.2c0.9,0,1.7,0.2,2.4,0.6c0.7,0.4,1.3,0.9,1.7,1.6s0.6,1.4,0.6,2.3
		c0,0.9-0.2,1.6-0.6,2.3s-1,1.2-1.7,1.5c-0.7,0.3-1.5,0.5-2.4,0.5c-0.9,0-1.7-0.2-2.5-0.6c-0.7-0.4-1.3-0.9-1.6-1.6
		S140.5,394.8,140.5,394.1z M141.8,394.1c0,1,0.3,1.8,0.9,2.4c0.6,0.6,1.4,0.9,2.4,0.9c1,0,1.8-0.3,2.4-0.9s0.9-1.4,0.9-2.5
		c0-0.7-0.1-1.3-0.4-1.8c-0.3-0.5-0.7-0.9-1.2-1.2c-0.5-0.3-1.1-0.4-1.7-0.4c-0.9,0-1.7,0.3-2.4,0.8
		C142.1,391.9,141.8,392.8,141.8,394.1z"/>
	<path d="M151.5,398.2v-8.4h1.3l5.1,6.6v-6.6h1.2v8.4h-1.3l-5.1-6.6v6.6H151.5z"/>
	<path d="M169.2,398.2H168v-6.6c-0.3,0.2-0.7,0.5-1.1,0.7c-0.5,0.2-0.9,0.4-1.3,0.5v-1c0.7-0.3,1.3-0.6,1.8-1
		c0.5-0.4,0.9-0.8,1.1-1.1h0.8V398.2z"/>
</g>
<g>
	<rect x="689" y="389.8" class="st2" width="83.8" height="17.8"/>
	<path d="M689.7,395.5l1.2-0.1c0.1,0.4,0.2,0.8,0.4,1c0.2,0.3,0.5,0.5,1,0.7c0.4,0.2,0.9,0.2,1.5,0.2c0.5,0,0.9-0.1,1.3-0.2
		c0.4-0.1,0.7-0.3,0.8-0.5s0.3-0.5,0.3-0.7c0-0.3-0.1-0.5-0.3-0.7c-0.2-0.2-0.5-0.4-0.9-0.5c-0.3-0.1-0.8-0.2-1.7-0.4
		c-0.9-0.2-1.5-0.4-1.9-0.5c-0.5-0.2-0.8-0.5-1-0.8s-0.3-0.7-0.3-1c0-0.4,0.1-0.8,0.4-1.2c0.3-0.4,0.7-0.6,1.2-0.8
		c0.5-0.2,1.1-0.3,1.8-0.3c0.7,0,1.4,0.1,1.9,0.3c0.6,0.2,1,0.5,1.3,0.9c0.3,0.4,0.5,0.8,0.5,1.3l-1.2,0.1c-0.1-0.5-0.3-0.9-0.7-1.2
		c-0.4-0.3-1-0.4-1.7-0.4c-0.8,0-1.4,0.1-1.7,0.4c-0.4,0.2-0.5,0.5-0.5,0.9c0,0.3,0.1,0.5,0.4,0.7c0.2,0.2,0.9,0.4,1.9,0.6
		c1.1,0.2,1.8,0.4,2.2,0.5c0.6,0.2,1,0.5,1.3,0.9c0.3,0.3,0.4,0.7,0.4,1.2c0,0.4-0.1,0.9-0.4,1.3c-0.3,0.4-0.7,0.7-1.3,0.9
		s-1.2,0.3-1.9,0.3c-0.9,0-1.6-0.1-2.2-0.3c-0.6-0.2-1.1-0.6-1.4-1S689.7,396,689.7,395.5z"/>
	<path d="M699.2,398.2v-8.4h7.1v1h-5.8v2.6h5.4v1h-5.4v2.9h6v1H699.2z"/>
	<path d="M707.2,398.2l3.8-8.4h1.4l4,8.4h-1.5l-1.1-2.5h-4.1l-1.1,2.5H707.2z M710,394.7h3.3l-1-2.3c-0.3-0.7-0.5-1.3-0.7-1.7
		c-0.1,0.5-0.3,1.1-0.5,1.6L710,394.7z"/>
	<path d="M717,395.5l1.2-0.1c0.1,0.4,0.2,0.8,0.4,1c0.2,0.3,0.5,0.5,1,0.7c0.4,0.2,0.9,0.2,1.5,0.2c0.5,0,0.9-0.1,1.3-0.2
		c0.4-0.1,0.7-0.3,0.8-0.5s0.3-0.5,0.3-0.7c0-0.3-0.1-0.5-0.3-0.7c-0.2-0.2-0.5-0.4-0.9-0.5c-0.3-0.1-0.8-0.2-1.7-0.4
		c-0.9-0.2-1.5-0.4-1.9-0.5c-0.5-0.2-0.8-0.5-1-0.8s-0.3-0.7-0.3-1c0-0.4,0.1-0.8,0.4-1.2c0.3-0.4,0.7-0.6,1.2-0.8
		c0.5-0.2,1.1-0.3,1.8-0.3c0.7,0,1.4,0.1,1.9,0.3c0.6,0.2,1,0.5,1.3,0.9c0.3,0.4,0.5,0.8,0.5,1.3l-1.2,0.1c-0.1-0.5-0.3-0.9-0.7-1.2
		c-0.4-0.3-1-0.4-1.7-0.4c-0.8,0-1.4,0.1-1.7,0.4c-0.4,0.2-0.5,0.5-0.5,0.9c0,0.3,0.1,0.5,0.4,0.7c0.2,0.2,0.9,0.4,1.9,0.6
		c1.1,0.2,1.8,0.4,2.2,0.5c0.6,0.2,1,0.5,1.3,0.9c0.3,0.3,0.4,0.7,0.4,1.2c0,0.4-0.1,0.9-0.4,1.3c-0.3,0.4-0.7,0.7-1.3,0.9
		s-1.2,0.3-1.9,0.3c-0.9,0-1.6-0.1-2.2-0.3c-0.6-0.2-1.1-0.6-1.4-1S717,396,717,395.5z"/>
	<path d="M726.1,394.1c0-1.4,0.4-2.5,1.3-3.3c0.9-0.8,2-1.2,3.4-1.2c0.9,0,1.7,0.2,2.4,0.6c0.7,0.4,1.3,0.9,1.7,1.6s0.6,1.4,0.6,2.3
		c0,0.9-0.2,1.6-0.6,2.3s-1,1.2-1.7,1.5c-0.7,0.3-1.5,0.5-2.4,0.5c-0.9,0-1.7-0.2-2.5-0.6c-0.7-0.4-1.3-0.9-1.6-1.6
		C726.3,395.5,726.1,394.8,726.1,394.1z M727.4,394.1c0,1,0.3,1.8,0.9,2.4s1.4,0.9,2.4,0.9c1,0,1.8-0.3,2.4-0.9s0.9-1.4,0.9-2.5
		c0-0.7-0.1-1.3-0.4-1.8c-0.3-0.5-0.7-0.9-1.2-1.2c-0.5-0.3-1.1-0.4-1.7-0.4c-0.9,0-1.7,0.3-2.4,0.8
		C727.8,391.9,727.4,392.8,727.4,394.1z"/>
	<path d="M737.1,398.2v-8.4h1.3l5.1,6.6v-6.6h1.2v8.4h-1.3l-5.1-6.6v6.6H737.1z"/>
	<path d="M750.4,390.9v-1h6.3v0.8c-0.6,0.6-1.2,1.3-1.8,2.3c-0.6,0.9-1.1,1.9-1.4,2.9c-0.2,0.7-0.4,1.5-0.5,2.3h-1.2
		c0-0.7,0.2-1.5,0.5-2.4c0.3-0.9,0.7-1.8,1.2-2.7c0.5-0.9,1.1-1.6,1.7-2.2H750.4z"/>
</g>
<g>
	<rect x="589" y="389.8" class="st2" width="83.8" height="17.8"/>
	<path d="M589.6,395.5l1.2-0.1c0.1,0.4,0.2,0.8,0.4,1c0.2,0.3,0.5,0.5,1,0.7c0.4,0.2,0.9,0.2,1.5,0.2c0.5,0,0.9-0.1,1.3-0.2
		c0.4-0.1,0.7-0.3,0.8-0.5c0.2-0.2,0.3-0.5,0.3-0.7c0-0.3-0.1-0.5-0.3-0.7c-0.2-0.2-0.5-0.4-0.9-0.5c-0.3-0.1-0.8-0.2-1.7-0.4
		c-0.9-0.2-1.5-0.4-1.9-0.5c-0.5-0.2-0.8-0.5-1-0.8c-0.2-0.3-0.3-0.7-0.3-1c0-0.4,0.1-0.8,0.4-1.2s0.7-0.6,1.2-0.8
		c0.5-0.2,1.1-0.3,1.8-0.3c0.7,0,1.4,0.1,1.9,0.3c0.6,0.2,1,0.5,1.3,0.9c0.3,0.4,0.5,0.8,0.5,1.3l-1.2,0.1c-0.1-0.5-0.3-0.9-0.7-1.2
		s-1-0.4-1.7-0.4c-0.8,0-1.4,0.1-1.7,0.4c-0.4,0.2-0.5,0.5-0.5,0.9c0,0.3,0.1,0.5,0.4,0.7c0.2,0.2,0.9,0.4,1.9,0.6
		c1.1,0.2,1.8,0.4,2.2,0.5c0.6,0.2,1,0.5,1.3,0.9s0.4,0.7,0.4,1.2c0,0.4-0.1,0.9-0.4,1.3c-0.3,0.4-0.7,0.7-1.3,0.9
		c-0.6,0.2-1.2,0.3-1.9,0.3c-0.9,0-1.6-0.1-2.2-0.3c-0.6-0.2-1.1-0.6-1.4-1S589.6,396,589.6,395.5z"/>
	<path d="M599.2,398.2v-8.4h7.1v1h-5.8v2.6h5.4v1h-5.4v2.9h6v1H599.2z"/>
	<path d="M607.2,398.2l3.8-8.4h1.4l4,8.4h-1.5l-1.1-2.5h-4.1l-1.1,2.5H607.2z M610,394.7h3.3l-1-2.3c-0.3-0.7-0.5-1.3-0.7-1.7
		c-0.1,0.5-0.3,1.1-0.5,1.6L610,394.7z"/>
	<path d="M616.9,395.5l1.2-0.1c0.1,0.4,0.2,0.8,0.4,1c0.2,0.3,0.5,0.5,1,0.7c0.4,0.2,0.9,0.2,1.5,0.2c0.5,0,0.9-0.1,1.3-0.2
		c0.4-0.1,0.7-0.3,0.8-0.5c0.2-0.2,0.3-0.5,0.3-0.7c0-0.3-0.1-0.5-0.3-0.7c-0.2-0.2-0.5-0.4-0.9-0.5c-0.3-0.1-0.8-0.2-1.7-0.4
		c-0.9-0.2-1.5-0.4-1.9-0.5c-0.5-0.2-0.8-0.5-1-0.8c-0.2-0.3-0.3-0.7-0.3-1c0-0.4,0.1-0.8,0.4-1.2s0.7-0.6,1.2-0.8
		c0.5-0.2,1.1-0.3,1.8-0.3c0.7,0,1.4,0.1,1.9,0.3c0.6,0.2,1,0.5,1.3,0.9c0.3,0.4,0.5,0.8,0.5,1.3l-1.2,0.1c-0.1-0.5-0.3-0.9-0.7-1.2
		s-1-0.4-1.7-0.4c-0.8,0-1.4,0.1-1.7,0.4c-0.4,0.2-0.5,0.5-0.5,0.9c0,0.3,0.1,0.5,0.4,0.7c0.2,0.2,0.9,0.4,1.9,0.6
		c1.1,0.2,1.8,0.4,2.2,0.5c0.6,0.2,1,0.5,1.3,0.9s0.4,0.7,0.4,1.2c0,0.4-0.1,0.9-0.4,1.3c-0.3,0.4-0.7,0.7-1.3,0.9
		c-0.6,0.2-1.2,0.3-1.9,0.3c-0.9,0-1.6-0.1-2.2-0.3c-0.6-0.2-1.1-0.6-1.4-1S616.9,396,616.9,395.5z"/>
	<path d="M626,394.1c0-1.4,0.4-2.5,1.3-3.3c0.9-0.8,2-1.2,3.4-1.2c0.9,0,1.7,0.2,2.4,0.6c0.7,0.4,1.3,0.9,1.7,1.6s0.6,1.4,0.6,2.3
		c0,0.9-0.2,1.6-0.6,2.3s-1,1.2-1.7,1.5c-0.7,0.3-1.5,0.5-2.4,0.5c-0.9,0-1.7-0.2-2.5-0.6c-0.7-0.4-1.3-0.9-1.6-1.6
		S626,394.8,626,394.1z M627.4,394.1c0,1,0.3,1.8,0.9,2.4c0.6,0.6,1.4,0.9,2.4,0.9c1,0,1.8-0.3,2.4-0.9s0.9-1.4,0.9-2.5
		c0-0.7-0.1-1.3-0.4-1.8c-0.3-0.5-0.7-0.9-1.2-1.2c-0.5-0.3-1.1-0.4-1.7-0.4c-0.9,0-1.7,0.3-2.4,0.8
		C627.7,391.9,627.4,392.8,627.4,394.1z"/>
	<path d="M637,398.2v-8.4h1.3l5.1,6.6v-6.6h1.2v8.4h-1.3l-5.1-6.6v6.6H637z"/>
	<path d="M656.4,391.8l-1.2,0.1c-0.1-0.4-0.3-0.7-0.5-0.9c-0.3-0.3-0.7-0.4-1.2-0.4c-0.4,0-0.7,0.1-1,0.3c-0.4,0.2-0.7,0.6-0.9,1
		c-0.2,0.5-0.3,1.1-0.3,1.9c0.3-0.4,0.6-0.7,1.1-0.8c0.4-0.2,0.9-0.3,1.3-0.3c0.8,0,1.5,0.3,2,0.8c0.6,0.5,0.8,1.2,0.8,2
		c0,0.5-0.1,1-0.4,1.5c-0.3,0.5-0.6,0.8-1.1,1c-0.5,0.2-1,0.4-1.6,0.4c-1,0-1.8-0.3-2.4-0.9s-0.9-1.7-0.9-3.1c0-1.6,0.3-2.8,1-3.5
		c0.6-0.6,1.4-1,2.5-1c0.8,0,1.4,0.2,1.9,0.6C656,390.7,656.3,391.2,656.4,391.8z M651.5,395.5c0,0.4,0.1,0.7,0.3,1
		c0.2,0.3,0.4,0.6,0.7,0.7c0.3,0.2,0.6,0.3,1,0.3c0.5,0,0.9-0.2,1.3-0.5s0.5-0.8,0.5-1.4c0-0.6-0.2-1-0.5-1.4
		c-0.4-0.3-0.8-0.5-1.4-0.5c-0.5,0-1,0.2-1.4,0.5C651.7,394.5,651.5,394.9,651.5,395.5z"/>
</g>
<g>
	<rect x="495.7" y="389.8" class="st2" width="83.8" height="17.8"/>
	<path d="M496.3,395.5l1.2-0.1c0.1,0.4,0.2,0.8,0.4,1c0.2,0.3,0.5,0.5,1,0.7c0.4,0.2,0.9,0.2,1.5,0.2c0.5,0,0.9-0.1,1.3-0.2
		c0.4-0.1,0.7-0.3,0.8-0.5c0.2-0.2,0.3-0.5,0.3-0.7c0-0.3-0.1-0.5-0.3-0.7c-0.2-0.2-0.5-0.4-0.9-0.5c-0.3-0.1-0.8-0.2-1.7-0.4
		c-0.9-0.2-1.5-0.4-1.9-0.5c-0.5-0.2-0.8-0.5-1-0.8c-0.2-0.3-0.3-0.7-0.3-1c0-0.4,0.1-0.8,0.4-1.2s0.7-0.6,1.2-0.8
		c0.5-0.2,1.1-0.3,1.8-0.3c0.7,0,1.4,0.1,1.9,0.3c0.6,0.2,1,0.5,1.3,0.9c0.3,0.4,0.5,0.8,0.5,1.3l-1.2,0.1c-0.1-0.5-0.3-0.9-0.7-1.2
		s-1-0.4-1.7-0.4c-0.8,0-1.4,0.1-1.7,0.4c-0.4,0.2-0.5,0.5-0.5,0.9c0,0.3,0.1,0.5,0.4,0.7c0.2,0.2,0.9,0.4,1.9,0.6
		c1.1,0.2,1.8,0.4,2.2,0.5c0.6,0.2,1,0.5,1.3,0.9s0.4,0.7,0.4,1.2c0,0.4-0.1,0.9-0.4,1.3c-0.3,0.4-0.7,0.7-1.3,0.9
		c-0.6,0.2-1.2,0.3-1.9,0.3c-0.9,0-1.6-0.1-2.2-0.3c-0.6-0.2-1.1-0.6-1.4-1S496.4,396,496.3,395.5z"/>
	<path d="M505.9,398.2v-8.4h7.1v1h-5.8v2.6h5.4v1h-5.4v2.9h6v1H505.9z"/>
	<path d="M513.9,398.2l3.8-8.4h1.4l4,8.4h-1.5l-1.1-2.5h-4.1l-1.1,2.5H513.9z M516.7,394.7h3.3l-1-2.3c-0.3-0.7-0.5-1.3-0.7-1.7
		c-0.1,0.5-0.3,1.1-0.5,1.6L516.7,394.7z"/>
	<path d="M523.6,395.5l1.2-0.1c0.1,0.4,0.2,0.8,0.4,1c0.2,0.3,0.5,0.5,1,0.7c0.4,0.2,0.9,0.2,1.5,0.2c0.5,0,0.9-0.1,1.3-0.2
		c0.4-0.1,0.7-0.3,0.8-0.5c0.2-0.2,0.3-0.5,0.3-0.7c0-0.3-0.1-0.5-0.3-0.7c-0.2-0.2-0.5-0.4-0.9-0.5c-0.3-0.1-0.8-0.2-1.7-0.4
		c-0.9-0.2-1.5-0.4-1.9-0.5c-0.5-0.2-0.8-0.5-1-0.8c-0.2-0.3-0.3-0.7-0.3-1c0-0.4,0.1-0.8,0.4-1.2s0.7-0.6,1.2-0.8
		c0.5-0.2,1.1-0.3,1.8-0.3c0.7,0,1.4,0.1,1.9,0.3c0.6,0.2,1,0.5,1.3,0.9c0.3,0.4,0.5,0.8,0.5,1.3l-1.2,0.1c-0.1-0.5-0.3-0.9-0.7-1.2
		s-1-0.4-1.7-0.4c-0.8,0-1.4,0.1-1.7,0.4c-0.4,0.2-0.5,0.5-0.5,0.9c0,0.3,0.1,0.5,0.4,0.7c0.2,0.2,0.9,0.4,1.9,0.6
		c1.1,0.2,1.8,0.4,2.2,0.5c0.6,0.2,1,0.5,1.3,0.9s0.4,0.7,0.4,1.2c0,0.4-0.1,0.9-0.4,1.3c-0.3,0.4-0.7,0.7-1.3,0.9
		c-0.6,0.2-1.2,0.3-1.9,0.3c-0.9,0-1.6-0.1-2.2-0.3c-0.6-0.2-1.1-0.6-1.4-1S523.7,396,523.6,395.5z"/>
	<path d="M532.8,394.1c0-1.4,0.4-2.5,1.3-3.3c0.9-0.8,2-1.2,3.4-1.2c0.9,0,1.7,0.2,2.4,0.6c0.7,0.4,1.3,0.9,1.7,1.6s0.6,1.4,0.6,2.3
		c0,0.9-0.2,1.6-0.6,2.3s-1,1.2-1.7,1.5c-0.7,0.3-1.5,0.5-2.4,0.5c-0.9,0-1.7-0.2-2.5-0.6c-0.7-0.4-1.3-0.9-1.6-1.6
		S532.8,394.8,532.8,394.1z M534.1,394.1c0,1,0.3,1.8,0.9,2.4c0.6,0.6,1.4,0.9,2.4,0.9c1,0,1.8-0.3,2.4-0.9s0.9-1.4,0.9-2.5
		c0-0.7-0.1-1.3-0.4-1.8c-0.3-0.5-0.7-0.9-1.2-1.2c-0.5-0.3-1.1-0.4-1.7-0.4c-0.9,0-1.7,0.3-2.4,0.8
		C534.5,391.9,534.1,392.8,534.1,394.1z"/>
	<path d="M543.8,398.2v-8.4h1.3l5.1,6.6v-6.6h1.2v8.4h-1.3l-5.1-6.6v6.6H543.8z"/>
	<path d="M557,396l1.3-0.1c0.1,0.5,0.3,0.9,0.6,1.2s0.7,0.4,1.2,0.4c0.6,0,1.1-0.2,1.5-0.6c0.4-0.4,0.6-0.9,0.6-1.5
		c0-0.6-0.2-1.1-0.6-1.4c-0.4-0.3-0.9-0.5-1.5-0.5c-0.4,0-0.7,0.1-1,0.2c-0.3,0.2-0.6,0.3-0.7,0.6l-1.1-0.1l0.9-4.3h4.9v1h-3.9
		l-0.5,2.3c0.6-0.4,1.2-0.5,1.8-0.5c0.9,0,1.6,0.3,2.2,0.8c0.6,0.5,0.9,1.2,0.9,2c0,0.8-0.3,1.4-0.8,2c-0.6,0.7-1.5,1-2.6,1
		c-0.9,0-1.6-0.2-2.2-0.6C557.4,397.3,557,396.7,557,396z"/>
</g>
<g>
	<rect x="390" y="389.8" class="st2" width="83.8" height="17.8"/>
	<path d="M390.6,395.5l1.2-0.1c0.1,0.4,0.2,0.8,0.4,1c0.2,0.3,0.5,0.5,1,0.7c0.4,0.2,0.9,0.2,1.5,0.2c0.5,0,0.9-0.1,1.3-0.2
		c0.4-0.1,0.7-0.3,0.8-0.5c0.2-0.2,0.3-0.5,0.3-0.7c0-0.3-0.1-0.5-0.3-0.7c-0.2-0.2-0.5-0.4-0.9-0.5c-0.3-0.1-0.8-0.2-1.7-0.4
		c-0.9-0.2-1.5-0.4-1.9-0.5c-0.5-0.2-0.8-0.5-1-0.8c-0.2-0.3-0.3-0.7-0.3-1c0-0.4,0.1-0.8,0.4-1.2s0.7-0.6,1.2-0.8
		c0.5-0.2,1.1-0.3,1.8-0.3c0.7,0,1.4,0.1,1.9,0.3c0.6,0.2,1,0.5,1.3,0.9c0.3,0.4,0.5,0.8,0.5,1.3l-1.2,0.1c-0.1-0.5-0.3-0.9-0.7-1.2
		s-1-0.4-1.7-0.4c-0.8,0-1.4,0.1-1.7,0.4c-0.4,0.2-0.5,0.5-0.5,0.9c0,0.3,0.1,0.5,0.4,0.7c0.2,0.2,0.9,0.4,1.9,0.6
		c1.1,0.2,1.8,0.4,2.2,0.5c0.6,0.2,1,0.5,1.3,0.9s0.4,0.7,0.4,1.2c0,0.4-0.1,0.9-0.4,1.3c-0.3,0.4-0.7,0.7-1.3,0.9
		c-0.6,0.2-1.2,0.3-1.9,0.3c-0.9,0-1.6-0.1-2.2-0.3c-0.6-0.2-1.1-0.6-1.4-1S390.6,396,390.6,395.5z"/>
	<path d="M400.2,398.2v-8.4h7.1v1h-5.8v2.6h5.4v1h-5.4v2.9h6v1H400.2z"/>
	<path d="M408.2,398.2l3.8-8.4h1.4l4,8.4h-1.5l-1.1-2.5h-4.1l-1.1,2.5H408.2z M411,394.7h3.3l-1-2.3c-0.3-0.7-0.5-1.3-0.7-1.7
		c-0.1,0.5-0.3,1.1-0.5,1.6L411,394.7z"/>
	<path d="M417.9,395.5l1.2-0.1c0.1,0.4,0.2,0.8,0.4,1c0.2,0.3,0.5,0.5,1,0.7c0.4,0.2,0.9,0.2,1.5,0.2c0.5,0,0.9-0.1,1.3-0.2
		c0.4-0.1,0.7-0.3,0.8-0.5c0.2-0.2,0.3-0.5,0.3-0.7c0-0.3-0.1-0.5-0.3-0.7c-0.2-0.2-0.5-0.4-0.9-0.5c-0.3-0.1-0.8-0.2-1.7-0.4
		c-0.9-0.2-1.5-0.4-1.9-0.5c-0.5-0.2-0.8-0.5-1-0.8c-0.2-0.3-0.3-0.7-0.3-1c0-0.4,0.1-0.8,0.4-1.2s0.7-0.6,1.2-0.8
		c0.5-0.2,1.1-0.3,1.8-0.3c0.7,0,1.4,0.1,1.9,0.3c0.6,0.2,1,0.5,1.3,0.9c0.3,0.4,0.5,0.8,0.5,1.3l-1.2,0.1c-0.1-0.5-0.3-0.9-0.7-1.2
		s-1-0.4-1.7-0.4c-0.8,0-1.4,0.1-1.7,0.4c-0.4,0.2-0.5,0.5-0.5,0.9c0,0.3,0.1,0.5,0.4,0.7c0.2,0.2,0.9,0.4,1.9,0.6
		c1.1,0.2,1.8,0.4,2.2,0.5c0.6,0.2,1,0.5,1.3,0.9s0.4,0.7,0.4,1.2c0,0.4-0.1,0.9-0.4,1.3c-0.3,0.4-0.7,0.7-1.3,0.9
		c-0.6,0.2-1.2,0.3-1.9,0.3c-0.9,0-1.6-0.1-2.2-0.3c-0.6-0.2-1.1-0.6-1.4-1S417.9,396,417.9,395.5z"/>
	<path d="M427,394.1c0-1.4,0.4-2.5,1.3-3.3c0.9-0.8,2-1.2,3.4-1.2c0.9,0,1.7,0.2,2.4,0.6c0.7,0.4,1.3,0.9,1.7,1.6s0.6,1.4,0.6,2.3
		c0,0.9-0.2,1.6-0.6,2.3s-1,1.2-1.7,1.5c-0.7,0.3-1.5,0.5-2.4,0.5c-0.9,0-1.7-0.2-2.5-0.6c-0.7-0.4-1.3-0.9-1.6-1.6
		S427,394.8,427,394.1z M428.4,394.1c0,1,0.3,1.8,0.9,2.4c0.6,0.6,1.4,0.9,2.4,0.9c1,0,1.8-0.3,2.4-0.9s0.9-1.4,0.9-2.5
		c0-0.7-0.1-1.3-0.4-1.8c-0.3-0.5-0.7-0.9-1.2-1.2c-0.5-0.3-1.1-0.4-1.7-0.4c-0.9,0-1.7,0.3-2.4,0.8
		C428.7,391.9,428.4,392.8,428.4,394.1z"/>
	<path d="M438,398.2v-8.4h1.3l5.1,6.6v-6.6h1.2v8.4h-1.3l-5.1-6.6v6.6H438z"/>
	<path d="M455.1,398.2v-2h-4.2v-0.9l4.5-5.4h1v5.4h1.3v0.9h-1.3v2H455.1z M455.1,395.2v-3.8l-3.1,3.8H455.1z"/>
</g>
<g>
	<rect x="292.2" y="389.8" class="st2" width="83.8" height="17.8"/>
	<path d="M292.8,395.5l1.2-0.1c0.1,0.4,0.2,0.8,0.4,1c0.2,0.3,0.5,0.5,1,0.7c0.4,0.2,0.9,0.2,1.5,0.2c0.5,0,0.9-0.1,1.3-0.2
		c0.4-0.1,0.7-0.3,0.8-0.5c0.2-0.2,0.3-0.5,0.3-0.7c0-0.3-0.1-0.5-0.3-0.7c-0.2-0.2-0.5-0.4-0.9-0.5c-0.3-0.1-0.8-0.2-1.7-0.4
		c-0.9-0.2-1.5-0.4-1.9-0.5c-0.5-0.2-0.8-0.5-1-0.8c-0.2-0.3-0.3-0.7-0.3-1c0-0.4,0.1-0.8,0.4-1.2s0.7-0.6,1.2-0.8
		c0.5-0.2,1.1-0.3,1.8-0.3c0.7,0,1.4,0.1,1.9,0.3c0.6,0.2,1,0.5,1.3,0.9c0.3,0.4,0.5,0.8,0.5,1.3l-1.2,0.1c-0.1-0.5-0.3-0.9-0.7-1.2
		s-1-0.4-1.7-0.4c-0.8,0-1.4,0.1-1.7,0.4c-0.4,0.2-0.5,0.5-0.5,0.9c0,0.3,0.1,0.5,0.4,0.7c0.2,0.2,0.9,0.4,1.9,0.6
		c1.1,0.2,1.8,0.4,2.2,0.5c0.6,0.2,1,0.5,1.3,0.9s0.4,0.7,0.4,1.2c0,0.4-0.1,0.9-0.4,1.3c-0.3,0.4-0.7,0.7-1.3,0.9
		c-0.6,0.2-1.2,0.3-1.9,0.3c-0.9,0-1.6-0.1-2.2-0.3c-0.6-0.2-1.1-0.6-1.4-1S292.8,396,292.8,395.5z"/>
	<path d="M302.4,398.2v-8.4h7.1v1h-5.8v2.6h5.4v1h-5.4v2.9h6v1H302.4z"/>
	<path d="M310.4,398.2l3.8-8.4h1.4l4,8.4H318l-1.1-2.5h-4.1l-1.1,2.5H310.4z M313.2,394.7h3.3l-1-2.3c-0.3-0.7-0.5-1.3-0.7-1.7
		c-0.1,0.5-0.3,1.1-0.5,1.6L313.2,394.7z"/>
	<path d="M320.1,395.5l1.2-0.1c0.1,0.4,0.2,0.8,0.4,1c0.2,0.3,0.5,0.5,1,0.7c0.4,0.2,0.9,0.2,1.5,0.2c0.5,0,0.9-0.1,1.3-0.2
		c0.4-0.1,0.7-0.3,0.8-0.5c0.2-0.2,0.3-0.5,0.3-0.7c0-0.3-0.1-0.5-0.3-0.7c-0.2-0.2-0.5-0.4-0.9-0.5c-0.3-0.1-0.8-0.2-1.7-0.4
		c-0.9-0.2-1.5-0.4-1.9-0.5c-0.5-0.2-0.8-0.5-1-0.8c-0.2-0.3-0.3-0.7-0.3-1c0-0.4,0.1-0.8,0.4-1.2s0.7-0.6,1.2-0.8
		c0.5-0.2,1.1-0.3,1.8-0.3c0.7,0,1.4,0.1,1.9,0.3c0.6,0.2,1,0.5,1.3,0.9c0.3,0.4,0.5,0.8,0.5,1.3l-1.2,0.1c-0.1-0.5-0.3-0.9-0.7-1.2
		s-1-0.4-1.7-0.4c-0.8,0-1.4,0.1-1.7,0.4c-0.4,0.2-0.5,0.5-0.5,0.9c0,0.3,0.1,0.5,0.4,0.7c0.2,0.2,0.9,0.4,1.9,0.6
		c1.1,0.2,1.8,0.4,2.2,0.5c0.6,0.2,1,0.5,1.3,0.9s0.4,0.7,0.4,1.2c0,0.4-0.1,0.9-0.4,1.3c-0.3,0.4-0.7,0.7-1.3,0.9
		c-0.6,0.2-1.2,0.3-1.9,0.3c-0.9,0-1.6-0.1-2.2-0.3c-0.6-0.2-1.1-0.6-1.4-1S320.1,396,320.1,395.5z"/>
	<path d="M329.3,394.1c0-1.4,0.4-2.5,1.3-3.3c0.9-0.8,2-1.2,3.4-1.2c0.9,0,1.7,0.2,2.4,0.6c0.7,0.4,1.3,0.9,1.7,1.6s0.6,1.4,0.6,2.3
		c0,0.9-0.2,1.6-0.6,2.3s-1,1.2-1.7,1.5c-0.7,0.3-1.5,0.5-2.4,0.5c-0.9,0-1.7-0.2-2.5-0.6c-0.7-0.4-1.3-0.9-1.6-1.6
		S329.3,394.8,329.3,394.1z M330.6,394.1c0,1,0.3,1.8,0.9,2.4c0.6,0.6,1.4,0.9,2.4,0.9c1,0,1.8-0.3,2.4-0.9s0.9-1.4,0.9-2.5
		c0-0.7-0.1-1.3-0.4-1.8c-0.3-0.5-0.7-0.9-1.2-1.2c-0.5-0.3-1.1-0.4-1.7-0.4c-0.9,0-1.7,0.3-2.4,0.8
		C330.9,391.9,330.6,392.8,330.6,394.1z"/>
	<path d="M340.2,398.2v-8.4h1.3l5.1,6.6v-6.6h1.2v8.4h-1.3l-5.1-6.6v6.6H340.2z"/>
	<path d="M353.4,396l1.2-0.1c0.1,0.6,0.4,1,0.7,1.3c0.3,0.3,0.7,0.4,1.2,0.4c0.6,0,1-0.2,1.4-0.5c0.4-0.3,0.6-0.8,0.6-1.3
		c0-0.5-0.2-0.9-0.5-1.2s-0.8-0.5-1.4-0.5c-0.2,0-0.5,0-0.8,0.1l0.1-0.9c0.1,0,0.1,0,0.2,0c0.5,0,1-0.1,1.4-0.3s0.6-0.6,0.6-1.1
		c0-0.4-0.1-0.7-0.4-0.9c-0.3-0.2-0.7-0.4-1.2-0.4c-0.5,0-0.9,0.1-1.2,0.4c-0.3,0.3-0.5,0.6-0.6,1.1l-1.2-0.2c0.1-0.7,0.5-1.2,1-1.6
		c0.5-0.4,1.2-0.6,1.9-0.6c0.5,0,1,0.1,1.5,0.3c0.4,0.2,0.8,0.5,1,0.8c0.2,0.3,0.4,0.7,0.4,1.1c0,0.4-0.1,0.7-0.3,1
		c-0.2,0.3-0.6,0.5-1,0.7c0.6,0.1,1,0.4,1.3,0.7s0.5,0.8,0.5,1.4c0,0.7-0.3,1.4-0.9,1.9c-0.6,0.5-1.4,0.8-2.4,0.8
		c-0.9,0-1.6-0.2-2.1-0.7C353.8,397.2,353.5,396.7,353.4,396z"/>
</g>
<g>
	<rect x="193.3" y="389.8" class="st2" width="83.8" height="17.8"/>
	<path d="M193.9,395.5l1.2-0.1c0.1,0.4,0.2,0.8,0.4,1c0.2,0.3,0.5,0.5,1,0.7c0.4,0.2,0.9,0.2,1.5,0.2c0.5,0,0.9-0.1,1.3-0.2
		c0.4-0.1,0.7-0.3,0.8-0.5c0.2-0.2,0.3-0.5,0.3-0.7c0-0.3-0.1-0.5-0.3-0.7c-0.2-0.2-0.5-0.4-0.9-0.5c-0.3-0.1-0.8-0.2-1.7-0.4
		c-0.9-0.2-1.5-0.4-1.9-0.5c-0.5-0.2-0.8-0.5-1-0.8c-0.2-0.3-0.3-0.7-0.3-1c0-0.4,0.1-0.8,0.4-1.2s0.7-0.6,1.2-0.8
		c0.5-0.2,1.1-0.3,1.8-0.3c0.7,0,1.4,0.1,1.9,0.3c0.6,0.2,1,0.5,1.3,0.9c0.3,0.4,0.5,0.8,0.5,1.3l-1.2,0.1c-0.1-0.5-0.3-0.9-0.7-1.2
		s-1-0.4-1.7-0.4c-0.8,0-1.4,0.1-1.7,0.4c-0.4,0.2-0.5,0.5-0.5,0.9c0,0.3,0.1,0.5,0.4,0.7c0.2,0.2,0.9,0.4,1.9,0.6
		c1.1,0.2,1.8,0.4,2.2,0.5c0.6,0.2,1,0.5,1.3,0.9s0.4,0.7,0.4,1.2c0,0.4-0.1,0.9-0.4,1.3c-0.3,0.4-0.7,0.7-1.3,0.9
		c-0.6,0.2-1.2,0.3-1.9,0.3c-0.9,0-1.6-0.1-2.2-0.3c-0.6-0.2-1.1-0.6-1.4-1S193.9,396,193.9,395.5z"/>
	<path d="M203.4,398.2v-8.4h7.1v1h-5.8v2.6h5.4v1h-5.4v2.9h6v1H203.4z"/>
	<path d="M211.4,398.2l3.8-8.4h1.4l4,8.4h-1.5l-1.1-2.5h-4.1l-1.1,2.5H211.4z M214.3,394.7h3.3l-1-2.3c-0.3-0.7-0.5-1.3-0.7-1.7
		c-0.1,0.5-0.3,1.1-0.5,1.6L214.3,394.7z"/>
	<path d="M221.2,395.5l1.2-0.1c0.1,0.4,0.2,0.8,0.4,1c0.2,0.3,0.5,0.5,1,0.7c0.4,0.2,0.9,0.2,1.5,0.2c0.5,0,0.9-0.1,1.3-0.2
		c0.4-0.1,0.7-0.3,0.8-0.5c0.2-0.2,0.3-0.5,0.3-0.7c0-0.3-0.1-0.5-0.3-0.7c-0.2-0.2-0.5-0.4-0.9-0.5c-0.3-0.1-0.8-0.2-1.7-0.4
		c-0.9-0.2-1.5-0.4-1.9-0.5c-0.5-0.2-0.8-0.5-1-0.8c-0.2-0.3-0.3-0.7-0.3-1c0-0.4,0.1-0.8,0.4-1.2s0.7-0.6,1.2-0.8
		c0.5-0.2,1.1-0.3,1.8-0.3c0.7,0,1.4,0.1,1.9,0.3c0.6,0.2,1,0.5,1.3,0.9c0.3,0.4,0.5,0.8,0.5,1.3l-1.2,0.1c-0.1-0.5-0.3-0.9-0.7-1.2
		s-1-0.4-1.7-0.4c-0.8,0-1.4,0.1-1.7,0.4c-0.4,0.2-0.5,0.5-0.5,0.9c0,0.3,0.1,0.5,0.4,0.7c0.2,0.2,0.9,0.4,1.9,0.6
		c1.1,0.2,1.8,0.4,2.2,0.5c0.6,0.2,1,0.5,1.3,0.9s0.4,0.7,0.4,1.2c0,0.4-0.1,0.9-0.4,1.3c-0.3,0.4-0.7,0.7-1.3,0.9
		c-0.6,0.2-1.2,0.3-1.9,0.3c-0.9,0-1.6-0.1-2.2-0.3c-0.6-0.2-1.1-0.6-1.4-1S221.2,396,221.2,395.5z"/>
	<path d="M230.3,394.1c0-1.4,0.4-2.5,1.3-3.3c0.9-0.8,2-1.2,3.4-1.2c0.9,0,1.7,0.2,2.4,0.6c0.7,0.4,1.3,0.9,1.7,1.6s0.6,1.4,0.6,2.3
		c0,0.9-0.2,1.6-0.6,2.3s-1,1.2-1.7,1.5c-0.7,0.3-1.5,0.5-2.4,0.5c-0.9,0-1.7-0.2-2.5-0.6c-0.7-0.4-1.3-0.9-1.6-1.6
		S230.3,394.8,230.3,394.1z M231.7,394.1c0,1,0.3,1.8,0.9,2.4c0.6,0.6,1.4,0.9,2.4,0.9c1,0,1.8-0.3,2.4-0.9s0.9-1.4,0.9-2.5
		c0-0.7-0.1-1.3-0.4-1.8c-0.3-0.5-0.7-0.9-1.2-1.2c-0.5-0.3-1.1-0.4-1.7-0.4c-0.9,0-1.7,0.3-2.4,0.8
		C232,391.9,231.7,392.8,231.7,394.1z"/>
	<path d="M241.3,398.2v-8.4h1.3l5.1,6.6v-6.6h1.2v8.4h-1.3l-5.1-6.6v6.6H241.3z"/>
	<path d="M260.8,397.2v1h-6.5c0-0.2,0-0.5,0.1-0.7c0.2-0.4,0.4-0.8,0.8-1.1c0.4-0.4,0.9-0.8,1.6-1.3c1.1-0.7,1.8-1.3,2.2-1.8
		c0.4-0.4,0.6-0.9,0.6-1.2c0-0.4-0.2-0.8-0.5-1s-0.8-0.4-1.3-0.4c-0.6,0-1,0.1-1.4,0.4c-0.3,0.3-0.5,0.7-0.5,1.2l-1.2-0.1
		c0.1-0.8,0.4-1.4,1-1.8c0.6-0.4,1.3-0.6,2.2-0.6c0.9,0,1.7,0.2,2.2,0.7s0.8,1,0.8,1.7c0,0.3-0.1,0.7-0.2,1c-0.2,0.3-0.4,0.7-0.8,1
		c-0.4,0.4-1,0.9-1.8,1.5c-0.7,0.5-1.2,0.9-1.4,1.1c-0.2,0.2-0.4,0.4-0.5,0.6H260.8z"/>
</g>
<line class="st3" x1="848.2" y1="331.3" x2="51.1" y2="331.4"/>
<line class="st3" x1="848.2" y1="282.6" x2="51.1" y2="282.7"/>
<line class="st3" x1="848.2" y1="89.4" x2="51.1" y2="89.6"/>
<line class="st3" x1="848.2" y1="138.2" x2="51.1" y2="138.3"/>
<line class="st3" x1="848.2" y1="185.1" x2="51.1" y2="185.2"/>
<line class="st3" x1="848.2" y1="233.8" x2="51.1" y2="234"/>
<line class="st3" x1="848.2" y1="40.7" x2="51.1" y2="40.9"/>
<g>
	<rect y="29.4" class="st2" width="69.1" height="23.8"/>
	<path d="M36.4,40.1h-1.7v-8.4c-0.4,0.3-0.9,0.6-1.6,0.9s-1.3,0.5-1.8,0.7v-1.3c1-0.3,1.8-0.8,2.5-1.3c0.7-0.5,1.2-1,1.5-1.4h1.1
		V40.1z"/>
</g>
<g>
	<rect y="319.2" class="st2" width="69.1" height="23.8"/>
	<path d="M30.1,320.6v-1.3h9v1c-0.9,0.7-1.8,1.7-2.6,2.9c-0.9,1.2-1.5,2.4-2,3.7c-0.3,0.9-0.6,1.9-0.7,2.9H32c0-0.8,0.2-1.9,0.6-3
		c0.4-1.2,1-2.3,1.8-3.4c0.8-1.1,1.6-2,2.4-2.8H30.1z"/>
</g>
<g>
	<rect y="270.7" class="st2" width="69.1" height="23.8"/>
	<path d="M38.8,273.3l-1.7,0.1c-0.2-0.5-0.4-0.9-0.6-1.1c-0.5-0.4-1-0.6-1.7-0.6c-0.5,0-1,0.1-1.4,0.3c-0.5,0.3-1,0.7-1.3,1.3
		c-0.3,0.6-0.5,1.4-0.5,2.5c0.4-0.5,0.9-0.8,1.5-1.1c0.6-0.2,1.2-0.3,1.9-0.3c1.1,0,2.1,0.3,2.9,1s1.2,1.5,1.2,2.5
		c0,0.7-0.2,1.3-0.6,1.9c-0.4,0.6-0.9,1-1.5,1.3c-0.7,0.3-1.4,0.5-2.2,0.5c-1.4,0-2.6-0.4-3.5-1.2c-0.9-0.8-1.3-2.1-1.3-4
		c0-2.1,0.5-3.6,1.5-4.5c0.9-0.8,2-1.2,3.5-1.2c1.1,0,2,0.2,2.7,0.7C38.3,271.8,38.7,272.5,38.8,273.3z M31.9,277.9
		c0,0.5,0.1,0.9,0.4,1.3c0.2,0.4,0.6,0.7,1,0.9c0.4,0.2,0.9,0.3,1.4,0.3c0.7,0,1.3-0.2,1.9-0.7c0.5-0.4,0.8-1.1,0.8-1.8
		c0-0.7-0.3-1.3-0.8-1.7s-1.2-0.6-1.9-0.6c-0.8,0-1.4,0.2-2,0.6C32.1,276.6,31.9,277.2,31.9,277.9z"/>
</g>
<g>
	<rect y="222.2" class="st2" width="69.1" height="23.8"/>
	<path d="M30,230.1l1.8-0.1c0.1,0.7,0.4,1.2,0.9,1.5c0.5,0.3,1.1,0.5,1.7,0.5c0.8,0,1.5-0.2,2.1-0.7c0.6-0.5,0.9-1.1,0.9-1.9
		c0-0.7-0.3-1.3-0.8-1.8c-0.5-0.4-1.3-0.6-2.1-0.6c-0.5,0-1,0.1-1.5,0.3c-0.4,0.2-0.8,0.4-1,0.7l-1.6-0.2l1.3-5.5h6.9v1.3H33
		l-0.7,2.9c0.8-0.4,1.7-0.7,2.6-0.7c1.2,0,2.2,0.3,3.1,1c0.8,0.6,1.2,1.5,1.2,2.5c0,1-0.4,1.8-1.1,2.5c-0.9,0.9-2.1,1.3-3.6,1.3
		c-1.3,0-2.3-0.3-3.1-0.8S30.1,231,30,230.1z"/>
</g>
<g>
	<rect y="173.7" class="st2" width="69.1" height="23.8"/>
	<path d="M35.4,184.4v-2.6h-6v-1.2l6.3-6.9h1.4v6.9H39v1.2h-1.9v2.6H35.4z M35.4,180.6v-4.8l-4.3,4.8H35.4z"/>
</g>
<g>
	<rect y="126.4" class="st2" width="69.1" height="23.8"/>
	<path d="M30,134.3l1.7-0.2c0.2,0.7,0.5,1.3,1,1.6c0.5,0.3,1,0.5,1.7,0.5c0.8,0,1.5-0.2,2-0.6c0.6-0.4,0.8-1,0.8-1.6
		c0-0.6-0.3-1.1-0.8-1.5c-0.5-0.4-1.2-0.6-2-0.6c-0.3,0-0.7,0-1.2,0.1l0.2-1.2c0.1,0,0.2,0,0.3,0c0.7,0,1.4-0.1,2-0.4
		c0.6-0.3,0.9-0.7,0.9-1.3c0-0.5-0.2-0.9-0.6-1.2c-0.4-0.3-1-0.5-1.6-0.5c-0.7,0-1.2,0.2-1.7,0.5c-0.4,0.3-0.7,0.8-0.9,1.4l-1.7-0.2
		c0.2-0.9,0.7-1.6,1.4-2c0.7-0.5,1.7-0.7,2.8-0.7c0.8,0,1.5,0.1,2.1,0.4c0.6,0.3,1.1,0.6,1.5,1c0.3,0.4,0.5,0.9,0.5,1.4
		c0,0.5-0.2,0.9-0.5,1.3c-0.3,0.4-0.8,0.7-1.4,0.9c0.8,0.1,1.5,0.4,1.9,0.9c0.5,0.5,0.7,1,0.7,1.7c0,0.9-0.4,1.7-1.3,2.4
		c-0.9,0.6-2,1-3.4,1c-1.2,0-2.2-0.3-3-0.8S30.1,135.2,30,134.3z"/>
</g>
<g>
	<rect y="77.9" class="st2" width="69.1" height="23.8"/>
	<path d="M38.9,87.4v1.3h-9.2c0-0.3,0.1-0.6,0.2-0.9c0.2-0.5,0.6-1,1.1-1.4c0.5-0.5,1.3-1,2.2-1.6c1.5-1,2.5-1.7,3.1-2.3
		c0.5-0.6,0.8-1.1,0.8-1.6c0-0.5-0.2-1-0.7-1.3C36,79.2,35.3,79,34.6,79c-0.8,0-1.5,0.2-2,0.6c-0.5,0.4-0.7,0.9-0.7,1.6L30.1,81
		c0.1-1,0.6-1.8,1.4-2.3c0.8-0.5,1.8-0.8,3.2-0.8c1.3,0,2.4,0.3,3.2,0.9s1.2,1.3,1.2,2.1c0,0.4-0.1,0.8-0.3,1.3
		c-0.2,0.4-0.6,0.8-1.1,1.3c-0.5,0.5-1.4,1.1-2.6,1.9c-1,0.7-1.7,1.1-2,1.3c-0.3,0.2-0.5,0.5-0.7,0.7H38.9z"/>
</g>
<line class="st2" x1="145.9" y1="40.8" x2="242.9" y2="233.5"/>
<line class="st2" x1="145.9" y1="40.8" x2="242.9" y2="233.5"/>
<polyline class="st4" points="145.9,40.8 242.1,234.2 341.1,89.8 537.7,89.8 637.9,40.8 738,40.8 "/>
<path class="st5" d="M145.1,89.9"/>
<line class="st6" x1="145.1" y1="89.9" x2="242.1" y2="89.9"/>
<line class="st6" x1="242.9" y1="88.7" x2="340.6" y2="234.2"/>
<line class="st6" x1="439.2" y1="282.6" x2="340.6" y2="234.2"/>
<line class="st6" x1="539.3" y1="185.7" x2="439.2" y2="282.6"/>
<line class="st6" x1="637.9" y1="282.6" x2="539.3" y2="185.7"/>
<line class="st6" x1="738.1" y1="89.9" x2="637.9" y2="282.6"/>
<line class="st7" x1="145.1" y1="138.4" x2="242.1" y2="40.2"/>
<line class="st7" x1="440.8" y1="41.4" x2="242.1" y2="40.2"/>
<line class="st7" x1="539.6" y1="138.4" x2="438.6" y2="41.4"/>
<line class="st7" x1="738.9" y1="138.4" x2="540.2" y2="137.2"/>
<line class="st8" x1="242.1" y1="138.4" x2="146.8" y2="185.7"/>
<line class="st8" x1="342.2" y1="282.6" x2="242.1" y2="138.4"/>
<line class="st8" x1="439.6" y1="331.1" x2="342.2" y2="281.4"/>
<line class="st8" x1="636.3" y1="234.2" x2="440.8" y2="331.1"/>
<line class="st8" x1="738.1" y1="282.6" x2="636" y2="234.2"/>
<line class="st9" x1="241" y1="184.7" x2="146" y2="232.1"/>
<line class="st9" x1="342.4" y1="331.1" x2="241" y2="184.7"/>
<line class="st9" x1="439.2" y1="137.2" x2="342.4" y2="331.1"/>
<line class="st9" x1="537.7" y1="41.4" x2="440.8" y2="134.7"/>
<line class="st9" x1="539.3" y1="38.9" x2="639.2" y2="331.1"/>
<line class="st9" x1="636.8" y1="331.4" x2="737" y2="331.4"/>
<line class="st10" x1="242.1" y1="282.6" x2="145.1" y2="283.9"/>
<line class="st10" x1="340.6" y1="185.7" x2="239.7" y2="282.6"/>
<line class="st10" x1="439.2" y1="234.2" x2="339.8" y2="186.9"/>
<line class="st10" x1="537.7" y1="234.2" x2="441.6" y2="234.2"/>
<line class="st10" x1="639.2" y1="89.9" x2="538.9" y2="234.2"/>
<line class="st10" x1="738.1" y1="186.9" x2="639.5" y2="89.9"/>
<line class="st11" x1="244.5" y1="329.9" x2="147.6" y2="331.1"/>
<line class="st11" x1="340.6" y1="138.4" x2="244.5" y2="331.1"/>
<line class="st11" x1="440.8" y1="185.7" x2="341.4" y2="138.4"/>
<line class="st11" x1="539.3" y1="331.1" x2="441.6" y2="185.7"/>
<line class="st11" x1="643.6" y1="178.4" x2="540.2" y2="331.1"/>
<line class="st11" x1="738.1" y1="235.4" x2="630.5" y2="179.4"/>
<ellipse class="st12" cx="146.6" cy="40.9" rx="10.9" ry="10.5"/>
<g>
	<rect x="130.5" y="36" class="st2" width="31.2" height="26.2"/>
	<path d="M147.4,45.1h-1.2V38c-0.3,0.3-0.6,0.5-1.1,0.8c-0.4,0.3-0.9,0.4-1.2,0.6v-1.1c0.6-0.3,1.2-0.6,1.7-1.1
		c0.5-0.4,0.8-0.8,1-1.2h0.7V45.1z"/>
</g>
<ellipse class="st13" cx="538.3" cy="38.8" rx="10.9" ry="10.5"/>
<g>
	<rect x="522.3" y="33.9" class="st2" width="31.2" height="26.2"/>
	<path d="M539.1,43H538v-7.1c-0.3,0.3-0.6,0.5-1.1,0.8c-0.4,0.3-0.9,0.4-1.2,0.6v-1.1c0.6-0.3,1.2-0.6,1.7-1.1
		c0.5-0.4,0.8-0.8,1-1.2h0.7V43z"/>
</g>
<ellipse class="st12" cx="638.7" cy="39.8" rx="10.9" ry="10.5"/>
<g>
	<rect x="622.7" y="35" class="st2" width="31.2" height="26.2"/>
	<path d="M639.5,44h-1.2v-7.1c-0.3,0.3-0.6,0.5-1.1,0.8c-0.4,0.3-0.9,0.4-1.2,0.6v-1.1c0.6-0.3,1.2-0.6,1.7-1.1
		c0.5-0.4,0.8-0.8,1-1.2h0.7V44z"/>
</g>
<ellipse class="st14" cx="241.5" cy="39.8" rx="10.9" ry="10.5"/>
<g>
	<rect x="226" y="35.5" class="st2" width="31.2" height="26.2"/>
	<path d="M242.9,44.5h-1.2v-7.1c-0.3,0.3-0.6,0.5-1.1,0.8c-0.4,0.3-0.9,0.4-1.2,0.6v-1.1c0.6-0.3,1.2-0.6,1.7-1.1
		c0.5-0.4,0.8-0.8,1-1.2h0.7V44.5z"/>
</g>
<ellipse class="st12" cx="738" cy="39.8" rx="10.9" ry="10.5"/>
<g>
	<rect x="722.5" y="35.5" class="st2" width="31.2" height="26.2"/>
	<path d="M739.3,44.5h-1.2v-7.1c-0.3,0.3-0.6,0.5-1.1,0.8c-0.5,0.3-0.9,0.4-1.2,0.6v-1.1c0.6-0.3,1.2-0.6,1.7-1.1
		c0.5-0.4,0.8-0.8,1-1.2h0.7V44.5z"/>
</g>
<ellipse class="st14" cx="437.9" cy="39.8" rx="10.9" ry="10.5"/>
<g>
	<rect x="422.4" y="35.5" class="st2" width="31.2" height="26.2"/>
	<path d="M439.3,44.5h-1.2v-7.1c-0.3,0.3-0.6,0.5-1.1,0.8c-0.4,0.3-0.9,0.4-1.2,0.6v-1.1c0.6-0.3,1.2-0.6,1.7-1.1
		c0.5-0.4,0.8-0.8,1-1.2h0.7V44.5z"/>
</g>
<ellipse class="st12" cx="439" cy="89.3" rx="10.9" ry="10.5"/>
<ellipse class="st14" cx="341.9" cy="40.9" rx="10.9" ry="10.5"/>
<g>
	<rect x="325.9" y="36" class="st2" width="31.2" height="26.2"/>
	<path d="M342.7,45.1h-1.2V38c-0.3,0.3-0.6,0.5-1.1,0.8c-0.4,0.3-0.9,0.4-1.2,0.6v-1.1c0.6-0.3,1.2-0.6,1.7-1.1
		c0.5-0.4,0.8-0.8,1-1.2h0.7V45.1z"/>
</g>
<g>
	<rect x="423.5" y="83.9" class="st2" width="31.2" height="26.2"/>
	<path d="M442.1,91.9V93h-6.2c0-0.3,0-0.5,0.1-0.8c0.2-0.4,0.4-0.8,0.8-1.2c0.3-0.4,0.8-0.9,1.5-1.4c1-0.8,1.7-1.4,2.1-1.9
		c0.4-0.5,0.5-0.9,0.5-1.3c0-0.4-0.2-0.8-0.5-1.1c-0.3-0.3-0.8-0.5-1.3-0.5c-0.6,0-1,0.2-1.3,0.5c-0.3,0.3-0.5,0.8-0.5,1.3l-1.2-0.1
		c0.1-0.9,0.4-1.5,0.9-1.9c0.5-0.4,1.2-0.7,2.1-0.7c0.9,0,1.6,0.2,2.1,0.7c0.5,0.5,0.8,1.1,0.8,1.8c0,0.4-0.1,0.7-0.2,1.1
		c-0.2,0.4-0.4,0.7-0.8,1.1c-0.4,0.4-0.9,0.9-1.8,1.6c-0.7,0.6-1.1,0.9-1.3,1.1c-0.2,0.2-0.4,0.4-0.5,0.6H442.1z"/>
</g>
<ellipse class="st14" cx="539.4" cy="137.8" rx="10.9" ry="10.5"/>
<g>
	<rect x="523.9" y="132.4" class="st2" width="31.2" height="26.2"/>
	<path d="M536.4,139.1l1.2-0.1c0.1,0.6,0.4,1.1,0.7,1.4c0.3,0.3,0.7,0.4,1.2,0.4c0.5,0,1-0.2,1.4-0.5c0.4-0.4,0.6-0.8,0.6-1.3
		c0-0.5-0.2-0.9-0.5-1.3c-0.3-0.3-0.8-0.5-1.3-0.5c-0.2,0-0.5,0-0.8,0.1l0.1-1c0.1,0,0.1,0,0.2,0c0.5,0,0.9-0.1,1.3-0.4
		c0.4-0.2,0.6-0.6,0.6-1.1c0-0.4-0.1-0.7-0.4-1s-0.7-0.4-1.1-0.4c-0.4,0-0.8,0.1-1.1,0.4c-0.3,0.3-0.5,0.7-0.6,1.2l-1.2-0.2
		c0.1-0.7,0.5-1.3,1-1.7c0.5-0.4,1.1-0.6,1.9-0.6c0.5,0,1,0.1,1.4,0.3s0.8,0.5,1,0.9c0.2,0.4,0.3,0.8,0.3,1.2c0,0.4-0.1,0.7-0.3,1.1
		s-0.5,0.6-1,0.8c0.6,0.1,1,0.4,1.3,0.8c0.3,0.4,0.5,0.9,0.5,1.5c0,0.8-0.3,1.5-0.9,2c-0.6,0.5-1.4,0.8-2.3,0.8
		c-0.8,0-1.5-0.2-2-0.7C536.8,140.4,536.5,139.8,536.4,139.1z"/>
</g>
<ellipse class="st15" cx="146.6" cy="184.2" rx="10.9" ry="10.5"/>
<g>
	<rect x="131.1" y="178.8" class="st2" width="31.2" height="26.2"/>
	<path d="M147.3,187.8v-2.2h-4.1v-1l4.3-5.9h0.9v5.9h1.3v1h-1.3v2.2H147.3z M147.3,184.6v-4.1l-2.9,4.1H147.3z"/>
</g>
<ellipse class="st13" cx="145.5" cy="233.7" rx="10.9" ry="10.5"/>
<g>
	<rect x="130" y="228.3" class="st2" width="31.2" height="26.2"/>
	<path d="M142.5,235l1.2-0.1c0.1,0.6,0.3,1,0.6,1.3c0.3,0.3,0.7,0.4,1.2,0.4c0.6,0,1-0.2,1.4-0.6s0.6-0.9,0.6-1.6
		c0-0.6-0.2-1.1-0.6-1.5s-0.9-0.5-1.4-0.5c-0.4,0-0.7,0.1-1,0.2c-0.3,0.2-0.5,0.4-0.7,0.6l-1.1-0.1l0.9-4.6h4.7v1.1h-3.7l-0.5,2.4
		c0.6-0.4,1.2-0.6,1.8-0.6c0.8,0,1.5,0.3,2.1,0.8c0.6,0.5,0.8,1.3,0.8,2.1c0,0.8-0.2,1.5-0.7,2.1c-0.6,0.7-1.4,1.1-2.5,1.1
		c-0.9,0-1.5-0.2-2.1-0.7S142.6,235.7,142.5,235z"/>
</g>
<ellipse class="st16" cx="146.6" cy="282.2" rx="10.9" ry="10.5"/>
<g>
	<rect x="131.1" y="276.8" class="st2" width="31.2" height="26.2"/>
	<path d="M149.6,279l-1.1,0.1c-0.1-0.4-0.2-0.8-0.4-1c-0.3-0.3-0.7-0.5-1.2-0.5c-0.4,0-0.7,0.1-1,0.3c-0.4,0.3-0.6,0.6-0.9,1.1
		c-0.2,0.5-0.3,1.2-0.3,2.1c0.3-0.4,0.6-0.7,1-0.9c0.4-0.2,0.8-0.3,1.3-0.3c0.8,0,1.4,0.3,2,0.8c0.5,0.5,0.8,1.3,0.8,2.1
		c0,0.6-0.1,1.1-0.4,1.6c-0.3,0.5-0.6,0.9-1,1.1c-0.4,0.3-0.9,0.4-1.5,0.4c-1,0-1.7-0.3-2.3-1c-0.6-0.7-0.9-1.8-0.9-3.4
		c0-1.7,0.3-3,1-3.8c0.6-0.7,1.4-1,2.4-1c0.7,0,1.3,0.2,1.8,0.6C149.2,277.7,149.5,278.3,149.6,279z M144.9,282.9
		c0,0.4,0.1,0.7,0.3,1.1c0.2,0.3,0.4,0.6,0.7,0.8c0.3,0.2,0.6,0.3,1,0.3c0.5,0,0.9-0.2,1.3-0.6s0.5-0.9,0.5-1.5
		c0-0.6-0.2-1.1-0.5-1.5c-0.3-0.4-0.8-0.5-1.3-0.5c-0.5,0-1,0.2-1.3,0.5C145,281.8,144.9,282.3,144.9,282.9z"/>
</g>
<ellipse class="st17" cx="146.6" cy="331.7" rx="10.9" ry="10.5"/>
<g>
	<rect x="131.1" y="326.3" class="st2" width="31.2" height="26.2"/>
	<path d="M143.7,327.5v-1.1h6.1v0.9c-0.6,0.6-1.2,1.4-1.8,2.4c-0.6,1-1,2.1-1.4,3.1c-0.2,0.8-0.4,1.6-0.4,2.5H145
		c0-0.7,0.2-1.6,0.4-2.6c0.3-1,0.7-2,1.2-2.9c0.5-0.9,1.1-1.7,1.7-2.4H143.7z"/>
</g>
<ellipse class="st12" cx="341.9" cy="89.3" rx="10.9" ry="10.5"/>
<g>
	<rect x="326.4" y="83.9" class="st2" width="31.2" height="26.2"/>
	<path d="M345,91.9V93h-6.2c0-0.3,0-0.5,0.1-0.8c0.2-0.4,0.4-0.8,0.8-1.2c0.3-0.4,0.8-0.9,1.5-1.4c1-0.8,1.7-1.4,2.1-1.9
		c0.4-0.5,0.5-0.9,0.5-1.3c0-0.4-0.2-0.8-0.5-1.1c-0.3-0.3-0.8-0.5-1.3-0.5c-0.6,0-1,0.2-1.3,0.5c-0.3,0.3-0.5,0.8-0.5,1.3l-1.2-0.1
		c0.1-0.9,0.4-1.5,0.9-1.9c0.5-0.4,1.2-0.7,2.1-0.7c0.9,0,1.6,0.2,2.1,0.7c0.5,0.5,0.8,1.1,0.8,1.8c0,0.4-0.1,0.7-0.2,1.1
		c-0.2,0.4-0.4,0.7-0.8,1.1c-0.4,0.4-0.9,0.9-1.8,1.6c-0.7,0.6-1.1,0.9-1.3,1.1c-0.2,0.2-0.4,0.4-0.5,0.6H345z"/>
</g>
<ellipse class="st12" cx="341.9" cy="89.3" rx="10.9" ry="10.5"/>
<g>
	<rect x="326.4" y="83.9" class="st2" width="31.2" height="26.2"/>
	<path d="M345,91.9V93h-6.2c0-0.3,0-0.5,0.1-0.8c0.2-0.4,0.4-0.8,0.8-1.2c0.3-0.4,0.8-0.9,1.5-1.4c1-0.8,1.7-1.4,2.1-1.9
		c0.4-0.5,0.5-0.9,0.5-1.3c0-0.4-0.2-0.8-0.5-1.1c-0.3-0.3-0.8-0.5-1.3-0.5c-0.6,0-1,0.2-1.3,0.5c-0.3,0.3-0.5,0.8-0.5,1.3l-1.2-0.1
		c0.1-0.9,0.4-1.5,0.9-1.9c0.5-0.4,1.2-0.7,2.1-0.7c0.9,0,1.6,0.2,2.1,0.7c0.5,0.5,0.8,1.1,0.8,1.8c0,0.4-0.1,0.7-0.2,1.1
		c-0.2,0.4-0.4,0.7-0.8,1.1c-0.4,0.4-0.9,0.9-1.8,1.6c-0.7,0.6-1.1,0.9-1.3,1.1c-0.2,0.2-0.4,0.4-0.5,0.6H345z"/>
</g>
<ellipse class="st12" cx="341.9" cy="89.3" rx="10.9" ry="10.5"/>
<g>
	<rect x="326.4" y="83.9" class="st2" width="31.2" height="26.2"/>
	<path d="M345,91.9V93h-6.2c0-0.3,0-0.5,0.1-0.8c0.2-0.4,0.4-0.8,0.8-1.2c0.3-0.4,0.8-0.9,1.5-1.4c1-0.8,1.7-1.4,2.1-1.9
		c0.4-0.5,0.5-0.9,0.5-1.3c0-0.4-0.2-0.8-0.5-1.1c-0.3-0.3-0.8-0.5-1.3-0.5c-0.6,0-1,0.2-1.3,0.5c-0.3,0.3-0.5,0.8-0.5,1.3l-1.2-0.1
		c0.1-0.9,0.4-1.5,0.9-1.9c0.5-0.4,1.2-0.7,2.1-0.7c0.9,0,1.6,0.2,2.1,0.7c0.5,0.5,0.8,1.1,0.8,1.8c0,0.4-0.1,0.7-0.2,1.1
		c-0.2,0.4-0.4,0.7-0.8,1.1c-0.4,0.4-0.9,0.9-1.8,1.6c-0.7,0.6-1.1,0.9-1.3,1.1c-0.2,0.2-0.4,0.4-0.5,0.6H345z"/>
</g>
<ellipse class="st17" cx="242.6" cy="330.6" rx="10.9" ry="10.5"/>
<g>
	<rect x="227.1" y="326.3" class="st2" width="31.2" height="26.2"/>
	<path d="M239.7,327.5v-1.1h6.1v0.9c-0.6,0.6-1.2,1.4-1.8,2.4c-0.6,1-1,2.1-1.4,3.1c-0.2,0.8-0.4,1.6-0.4,2.5H241
		c0-0.7,0.2-1.6,0.4-2.6c0.3-1,0.7-2,1.2-2.9c0.5-0.9,1.1-1.7,1.7-2.4H239.7z"/>
</g>
<ellipse class="st13" cx="340.8" cy="331.7" rx="10.9" ry="10.5"/>
<g>
	<rect x="325.3" y="326.3" class="st2" width="31.2" height="26.2"/>
	<path d="M337.9,327.5v-1.1h6.1v0.9c-0.6,0.6-1.2,1.4-1.8,2.4c-0.6,1-1,2.1-1.4,3.1c-0.2,0.8-0.4,1.6-0.4,2.5h-1.2
		c0-0.7,0.2-1.6,0.4-2.6c0.3-1,0.7-2,1.2-2.9c0.5-0.9,1.1-1.7,1.7-2.4H337.9z"/>
</g>
<ellipse class="st15" cx="441.2" cy="330.6" rx="10.9" ry="10.5"/>
<g>
	<rect x="425.7" y="325.2" class="st2" width="31.2" height="26.2"/>
	<path d="M438.3,326.4v-1.1h6.1v0.9c-0.6,0.6-1.2,1.4-1.8,2.4c-0.6,1-1,2.1-1.4,3.1c-0.2,0.8-0.4,1.6-0.4,2.5h-1.2
		c0-0.7,0.2-1.6,0.4-2.6c0.3-1,0.7-2,1.2-2.9c0.5-0.9,1.1-1.7,1.7-2.4H438.3z"/>
</g>
<ellipse class="st17" cx="539.4" cy="330.6" rx="10.9" ry="10.5"/>
<g>
	<rect x="523.9" y="325.2" class="st2" width="31.2" height="26.2"/>
	<path d="M536.5,326.4v-1.1h6.1v0.9c-0.6,0.6-1.2,1.4-1.8,2.4c-0.6,1-1,2.1-1.4,3.1c-0.2,0.8-0.4,1.6-0.4,2.5h-1.2
		c0-0.7,0.2-1.6,0.4-2.6c0.3-1,0.7-2,1.2-2.9c0.5-0.9,1.1-1.7,1.7-2.4H536.5z"/>
</g>
<ellipse class="st13" cx="637.6" cy="331.7" rx="10.9" ry="10.5"/>
<g>
	<rect x="622.1" y="326.3" class="st2" width="31.2" height="26.2"/>
	<path d="M634.7,327.5v-1.1h6.1v0.9c-0.6,0.6-1.2,1.4-1.8,2.4c-0.6,1-1,2.1-1.4,3.1c-0.2,0.8-0.4,1.6-0.4,2.5H636
		c0-0.7,0.2-1.6,0.4-2.6c0.3-1,0.7-2,1.2-2.9c0.5-0.9,1.1-1.7,1.7-2.4H634.7z"/>
</g>
<ellipse class="st13" cx="738" cy="331.7" rx="10.9" ry="10.5"/>
<g>
	<rect x="722.5" y="326.3" class="st2" width="31.2" height="26.2"/>
	<path d="M735.1,327.5v-1.1h6.1v0.9c-0.6,0.6-1.2,1.4-1.8,2.4s-1,2.1-1.4,3.1c-0.2,0.8-0.4,1.6-0.4,2.5h-1.2c0-0.7,0.2-1.6,0.4-2.6
		c0.3-1,0.7-2,1.2-2.9c0.5-0.9,1.1-1.7,1.7-2.4H735.1z"/>
</g>
<ellipse class="st12" cx="537.2" cy="90.4" rx="10.9" ry="10.5"/>
<g>
	<rect x="521.7" y="85" class="st2" width="31.2" height="26.2"/>
	<path d="M540.3,93v1.1h-6.2c0-0.3,0-0.5,0.1-0.8c0.2-0.4,0.4-0.8,0.8-1.2c0.3-0.4,0.8-0.9,1.5-1.4c1-0.8,1.7-1.4,2.1-1.9
		c0.4-0.5,0.5-0.9,0.5-1.3c0-0.4-0.2-0.8-0.5-1.1c-0.3-0.3-0.8-0.5-1.3-0.5c-0.6,0-1,0.2-1.3,0.5c-0.3,0.3-0.5,0.8-0.5,1.3l-1.2-0.1
		c0.1-0.9,0.4-1.5,0.9-1.9c0.5-0.4,1.2-0.7,2.1-0.7c0.9,0,1.6,0.2,2.1,0.7c0.5,0.5,0.8,1.1,0.8,1.8c0,0.4-0.1,0.7-0.2,1.1
		c-0.2,0.4-0.4,0.7-0.8,1.1c-0.4,0.4-0.9,0.9-1.8,1.6c-0.7,0.6-1.1,0.9-1.3,1.1c-0.2,0.2-0.4,0.4-0.5,0.6H540.3z"/>
</g>
<ellipse class="st12" cx="537.2" cy="90.4" rx="10.9" ry="10.5"/>
<g>
	<rect x="521.7" y="85" class="st2" width="31.2" height="26.2"/>
	<path d="M540.3,93v1.1h-6.2c0-0.3,0-0.5,0.1-0.8c0.2-0.4,0.4-0.8,0.8-1.2c0.3-0.4,0.8-0.9,1.5-1.4c1-0.8,1.7-1.4,2.1-1.9
		c0.4-0.5,0.5-0.9,0.5-1.3c0-0.4-0.2-0.8-0.5-1.1c-0.3-0.3-0.8-0.5-1.3-0.5c-0.6,0-1,0.2-1.3,0.5c-0.3,0.3-0.5,0.8-0.5,1.3l-1.2-0.1
		c0.1-0.9,0.4-1.5,0.9-1.9c0.5-0.4,1.2-0.7,2.1-0.7c0.9,0,1.6,0.2,2.1,0.7c0.5,0.5,0.8,1.1,0.8,1.8c0,0.4-0.1,0.7-0.2,1.1
		c-0.2,0.4-0.4,0.7-0.8,1.1c-0.4,0.4-0.9,0.9-1.8,1.6c-0.7,0.6-1.1,0.9-1.3,1.1c-0.2,0.2-0.4,0.4-0.5,0.6H540.3z"/>
</g>
<ellipse class="st12" cx="537.2" cy="90.4" rx="10.9" ry="10.5"/>
<g>
	<rect x="521.7" y="85" class="st2" width="31.2" height="26.2"/>
	<path d="M540.3,93v1.1h-6.2c0-0.3,0-0.5,0.1-0.8c0.2-0.4,0.4-0.8,0.8-1.2c0.3-0.4,0.8-0.9,1.5-1.4c1-0.8,1.7-1.4,2.1-1.9
		c0.4-0.5,0.5-0.9,0.5-1.3c0-0.4-0.2-0.8-0.5-1.1c-0.3-0.3-0.8-0.5-1.3-0.5c-0.6,0-1,0.2-1.3,0.5c-0.3,0.3-0.5,0.8-0.5,1.3l-1.2-0.1
		c0.1-0.9,0.4-1.5,0.9-1.9c0.5-0.4,1.2-0.7,2.1-0.7c0.9,0,1.6,0.2,2.1,0.7c0.5,0.5,0.8,1.1,0.8,1.8c0,0.4-0.1,0.7-0.2,1.1
		c-0.2,0.4-0.4,0.7-0.8,1.1c-0.4,0.4-0.9,0.9-1.8,1.6c-0.7,0.6-1.1,0.9-1.3,1.1c-0.2,0.2-0.4,0.4-0.5,0.6H540.3z"/>
</g>
<ellipse class="st12" cx="146.6" cy="88.3" rx="10.9" ry="10.5"/>
<g>
	<rect x="131.1" y="82.9" class="st2" width="31.2" height="26.2"/>
	<path d="M149.6,90.9v1.1h-6.2c0-0.3,0-0.5,0.1-0.8c0.2-0.4,0.4-0.8,0.8-1.2c0.3-0.4,0.8-0.9,1.5-1.4c1-0.8,1.7-1.4,2.1-1.9
		c0.4-0.5,0.5-0.9,0.5-1.3c0-0.4-0.2-0.8-0.5-1.1c-0.3-0.3-0.8-0.5-1.3-0.5c-0.6,0-1,0.2-1.3,0.5c-0.3,0.3-0.5,0.8-0.5,1.3l-1.2-0.1
		c0.1-0.9,0.4-1.5,0.9-1.9c0.5-0.4,1.2-0.7,2.1-0.7c0.9,0,1.6,0.2,2.1,0.7c0.5,0.5,0.8,1.1,0.8,1.8c0,0.4-0.1,0.7-0.2,1.1
		c-0.2,0.4-0.4,0.7-0.8,1.1c-0.4,0.4-0.9,0.9-1.8,1.6c-0.7,0.6-1.1,0.9-1.3,1.1c-0.2,0.2-0.4,0.4-0.5,0.6H149.6z"/>
</g>
<ellipse class="st12" cx="146.6" cy="88.3" rx="10.9" ry="10.5"/>
<g>
	<rect x="131.1" y="82.9" class="st2" width="31.2" height="26.2"/>
	<path d="M149.6,90.9v1.1h-6.2c0-0.3,0-0.5,0.1-0.8c0.2-0.4,0.4-0.8,0.8-1.2c0.3-0.4,0.8-0.9,1.5-1.4c1-0.8,1.7-1.4,2.1-1.9
		c0.4-0.5,0.5-0.9,0.5-1.3c0-0.4-0.2-0.8-0.5-1.1c-0.3-0.3-0.8-0.5-1.3-0.5c-0.6,0-1,0.2-1.3,0.5c-0.3,0.3-0.5,0.8-0.5,1.3l-1.2-0.1
		c0.1-0.9,0.4-1.5,0.9-1.9c0.5-0.4,1.2-0.7,2.1-0.7c0.9,0,1.6,0.2,2.1,0.7c0.5,0.5,0.8,1.1,0.8,1.8c0,0.4-0.1,0.7-0.2,1.1
		c-0.2,0.4-0.4,0.7-0.8,1.1c-0.4,0.4-0.9,0.9-1.8,1.6c-0.7,0.6-1.1,0.9-1.3,1.1c-0.2,0.2-0.4,0.4-0.5,0.6H149.6z"/>
</g>
<ellipse class="st18" cx="146.6" cy="88.3" rx="10.9" ry="10.5"/>
<g>
	<rect x="131.1" y="82.9" class="st2" width="31.2" height="26.2"/>
	<path d="M149.6,90.9v1.1h-6.2c0-0.3,0-0.5,0.1-0.8c0.2-0.4,0.4-0.8,0.8-1.2c0.3-0.4,0.8-0.9,1.5-1.4c1-0.8,1.7-1.4,2.1-1.9
		c0.4-0.5,0.5-0.9,0.5-1.3c0-0.4-0.2-0.8-0.5-1.1c-0.3-0.3-0.8-0.5-1.3-0.5c-0.6,0-1,0.2-1.3,0.5c-0.3,0.3-0.5,0.8-0.5,1.3l-1.2-0.1
		c0.1-0.9,0.4-1.5,0.9-1.9c0.5-0.4,1.2-0.7,2.1-0.7c0.9,0,1.6,0.2,2.1,0.7c0.5,0.5,0.8,1.1,0.8,1.8c0,0.4-0.1,0.7-0.2,1.1
		c-0.2,0.4-0.4,0.7-0.8,1.1c-0.4,0.4-0.9,0.9-1.8,1.6c-0.7,0.6-1.1,0.9-1.3,1.1c-0.2,0.2-0.4,0.4-0.5,0.6H149.6z"/>
</g>
<ellipse class="st12" cx="241.5" cy="89.3" rx="10.9" ry="10.5"/>
<g>
	<rect x="226" y="83.9" class="st2" width="31.2" height="26.2"/>
	<path d="M244.6,91.9V93h-6.2c0-0.3,0-0.5,0.1-0.8c0.2-0.4,0.4-0.8,0.8-1.2c0.3-0.4,0.8-0.9,1.5-1.4c1-0.8,1.7-1.4,2.1-1.9
		c0.4-0.5,0.5-0.9,0.5-1.3c0-0.4-0.2-0.8-0.5-1.1c-0.3-0.3-0.8-0.5-1.3-0.5c-0.6,0-1,0.2-1.3,0.5c-0.3,0.3-0.5,0.8-0.5,1.3l-1.2-0.1
		c0.1-0.9,0.4-1.5,0.9-1.9c0.5-0.4,1.2-0.7,2.1-0.7c0.9,0,1.6,0.2,2.1,0.7c0.5,0.5,0.8,1.1,0.8,1.8c0,0.4-0.1,0.7-0.2,1.1
		c-0.2,0.4-0.4,0.7-0.8,1.1c-0.4,0.4-0.9,0.9-1.8,1.6c-0.7,0.6-1.1,0.9-1.3,1.1c-0.2,0.2-0.4,0.4-0.5,0.6H244.6z"/>
</g>
<ellipse class="st12" cx="241.5" cy="89.3" rx="10.9" ry="10.5"/>
<g>
	<rect x="226" y="83.9" class="st2" width="31.2" height="26.2"/>
	<path d="M244.6,91.9V93h-6.2c0-0.3,0-0.5,0.1-0.8c0.2-0.4,0.4-0.8,0.8-1.2c0.3-0.4,0.8-0.9,1.5-1.4c1-0.8,1.7-1.4,2.1-1.9
		c0.4-0.5,0.5-0.9,0.5-1.3c0-0.4-0.2-0.8-0.5-1.1c-0.3-0.3-0.8-0.5-1.3-0.5c-0.6,0-1,0.2-1.3,0.5c-0.3,0.3-0.5,0.8-0.5,1.3l-1.2-0.1
		c0.1-0.9,0.4-1.5,0.9-1.9c0.5-0.4,1.2-0.7,2.1-0.7c0.9,0,1.6,0.2,2.1,0.7c0.5,0.5,0.8,1.1,0.8,1.8c0,0.4-0.1,0.7-0.2,1.1
		c-0.2,0.4-0.4,0.7-0.8,1.1c-0.4,0.4-0.9,0.9-1.8,1.6c-0.7,0.6-1.1,0.9-1.3,1.1c-0.2,0.2-0.4,0.4-0.5,0.6H244.6z"/>
</g>
<ellipse class="st18" cx="241.5" cy="89.3" rx="10.9" ry="10.5"/>
<g>
	<rect x="226" y="83.9" class="st2" width="31.2" height="26.2"/>
	<path d="M244.6,91.9V93h-6.2c0-0.3,0-0.5,0.1-0.8c0.2-0.4,0.4-0.8,0.8-1.2c0.3-0.4,0.8-0.9,1.5-1.4c1-0.8,1.7-1.4,2.1-1.9
		c0.4-0.5,0.5-0.9,0.5-1.3c0-0.4-0.2-0.8-0.5-1.1c-0.3-0.3-0.8-0.5-1.3-0.5c-0.6,0-1,0.2-1.3,0.5c-0.3,0.3-0.5,0.8-0.5,1.3l-1.2-0.1
		c0.1-0.9,0.4-1.5,0.9-1.9c0.5-0.4,1.2-0.7,2.1-0.7c0.9,0,1.6,0.2,2.1,0.7c0.5,0.5,0.8,1.1,0.8,1.8c0,0.4-0.1,0.7-0.2,1.1
		c-0.2,0.4-0.4,0.7-0.8,1.1c-0.4,0.4-0.9,0.9-1.8,1.6c-0.7,0.6-1.1,0.9-1.3,1.1c-0.2,0.2-0.4,0.4-0.5,0.6H244.6z"/>
</g>
<ellipse class="st12" cx="637.6" cy="88.3" rx="10.9" ry="10.5"/>
<g>
	<rect x="622.1" y="82.9" class="st2" width="31.2" height="26.2"/>
	<path d="M640.7,90.9v1.1h-6.2c0-0.3,0-0.5,0.1-0.8c0.2-0.4,0.4-0.8,0.8-1.2c0.3-0.4,0.8-0.9,1.5-1.4c1-0.8,1.7-1.4,2.1-1.9
		c0.4-0.5,0.5-0.9,0.5-1.3c0-0.4-0.2-0.8-0.5-1.1c-0.3-0.3-0.8-0.5-1.3-0.5c-0.6,0-1,0.2-1.3,0.5c-0.3,0.3-0.5,0.8-0.5,1.3l-1.2-0.1
		c0.1-0.9,0.4-1.5,0.9-1.9c0.5-0.4,1.2-0.7,2.1-0.7c0.9,0,1.6,0.2,2.1,0.7c0.5,0.5,0.8,1.1,0.8,1.8c0,0.4-0.1,0.7-0.2,1.1
		c-0.2,0.4-0.4,0.7-0.8,1.1c-0.4,0.4-0.9,0.9-1.8,1.6c-0.7,0.6-1.1,0.9-1.3,1.1c-0.2,0.2-0.4,0.4-0.5,0.6H640.7z"/>
</g>
<ellipse class="st12" cx="637.6" cy="88.3" rx="10.9" ry="10.5"/>
<g>
	<rect x="622.1" y="82.9" class="st2" width="31.2" height="26.2"/>
	<path d="M640.7,90.9v1.1h-6.2c0-0.3,0-0.5,0.1-0.8c0.2-0.4,0.4-0.8,0.8-1.2c0.3-0.4,0.8-0.9,1.5-1.4c1-0.8,1.7-1.4,2.1-1.9
		c0.4-0.5,0.5-0.9,0.5-1.3c0-0.4-0.2-0.8-0.5-1.1c-0.3-0.3-0.8-0.5-1.3-0.5c-0.6,0-1,0.2-1.3,0.5c-0.3,0.3-0.5,0.8-0.5,1.3l-1.2-0.1
		c0.1-0.9,0.4-1.5,0.9-1.9c0.5-0.4,1.2-0.7,2.1-0.7c0.9,0,1.6,0.2,2.1,0.7c0.5,0.5,0.8,1.1,0.8,1.8c0,0.4-0.1,0.7-0.2,1.1
		c-0.2,0.4-0.4,0.7-0.8,1.1c-0.4,0.4-0.9,0.9-1.8,1.6c-0.7,0.6-1.1,0.9-1.3,1.1c-0.2,0.2-0.4,0.4-0.5,0.6H640.7z"/>
</g>
<ellipse class="st16" cx="637.6" cy="88.3" rx="10.9" ry="10.5"/>
<g>
	<rect x="622.1" y="82.9" class="st2" width="31.2" height="26.2"/>
	<path d="M640.7,90.9v1.1h-6.2c0-0.3,0-0.5,0.1-0.8c0.2-0.4,0.4-0.8,0.8-1.2c0.3-0.4,0.8-0.9,1.5-1.4c1-0.8,1.7-1.4,2.1-1.9
		c0.4-0.5,0.5-0.9,0.5-1.3c0-0.4-0.2-0.8-0.5-1.1c-0.3-0.3-0.8-0.5-1.3-0.5c-0.6,0-1,0.2-1.3,0.5c-0.3,0.3-0.5,0.8-0.5,1.3l-1.2-0.1
		c0.1-0.9,0.4-1.5,0.9-1.9c0.5-0.4,1.2-0.7,2.1-0.7c0.9,0,1.6,0.2,2.1,0.7c0.5,0.5,0.8,1.1,0.8,1.8c0,0.4-0.1,0.7-0.2,1.1
		c-0.2,0.4-0.4,0.7-0.8,1.1c-0.4,0.4-0.9,0.9-1.8,1.6c-0.7,0.6-1.1,0.9-1.3,1.1c-0.2,0.2-0.4,0.4-0.5,0.6H640.7z"/>
</g>
<ellipse class="st12" cx="738" cy="88.3" rx="10.9" ry="10.5"/>
<g>
	<rect x="722.5" y="82.9" class="st2" width="31.2" height="26.2"/>
	<path d="M741.1,90.9v1.1h-6.2c0-0.3,0-0.5,0.1-0.8c0.2-0.4,0.4-0.8,0.8-1.2s0.8-0.9,1.5-1.4c1-0.8,1.7-1.4,2.1-1.9
		c0.4-0.5,0.5-0.9,0.5-1.3c0-0.4-0.2-0.8-0.5-1.1c-0.3-0.3-0.8-0.5-1.3-0.5c-0.6,0-1,0.2-1.3,0.5c-0.3,0.3-0.5,0.8-0.5,1.3l-1.2-0.1
		c0.1-0.9,0.4-1.5,0.9-1.9c0.5-0.4,1.2-0.7,2.1-0.7c0.9,0,1.6,0.2,2.1,0.7c0.5,0.5,0.8,1.1,0.8,1.8c0,0.4-0.1,0.7-0.2,1.1
		c-0.2,0.4-0.4,0.7-0.8,1.1c-0.4,0.4-0.9,0.9-1.8,1.6c-0.7,0.6-1.1,0.9-1.3,1.1s-0.4,0.4-0.5,0.6H741.1z"/>
</g>
<ellipse class="st12" cx="738" cy="88.3" rx="10.9" ry="10.5"/>
<g>
	<rect x="722.5" y="82.9" class="st2" width="31.2" height="26.2"/>
	<path d="M741.1,90.9v1.1h-6.2c0-0.3,0-0.5,0.1-0.8c0.2-0.4,0.4-0.8,0.8-1.2s0.8-0.9,1.5-1.4c1-0.8,1.7-1.4,2.1-1.9
		c0.4-0.5,0.5-0.9,0.5-1.3c0-0.4-0.2-0.8-0.5-1.1c-0.3-0.3-0.8-0.5-1.3-0.5c-0.6,0-1,0.2-1.3,0.5c-0.3,0.3-0.5,0.8-0.5,1.3l-1.2-0.1
		c0.1-0.9,0.4-1.5,0.9-1.9c0.5-0.4,1.2-0.7,2.1-0.7c0.9,0,1.6,0.2,2.1,0.7c0.5,0.5,0.8,1.1,0.8,1.8c0,0.4-0.1,0.7-0.2,1.1
		c-0.2,0.4-0.4,0.7-0.8,1.1c-0.4,0.4-0.9,0.9-1.8,1.6c-0.7,0.6-1.1,0.9-1.3,1.1s-0.4,0.4-0.5,0.6H741.1z"/>
</g>
<ellipse class="st18" cx="738" cy="88.3" rx="10.9" ry="10.5"/>
<g>
	<rect x="722.5" y="82.9" class="st2" width="31.2" height="26.2"/>
	<path d="M741.1,90.9v1.1h-6.2c0-0.3,0-0.5,0.1-0.8c0.2-0.4,0.4-0.8,0.8-1.2s0.8-0.9,1.5-1.4c1-0.8,1.7-1.4,2.1-1.9
		c0.4-0.5,0.5-0.9,0.5-1.3c0-0.4-0.2-0.8-0.5-1.1c-0.3-0.3-0.8-0.5-1.3-0.5c-0.6,0-1,0.2-1.3,0.5c-0.3,0.3-0.5,0.8-0.5,1.3l-1.2-0.1
		c0.1-0.9,0.4-1.5,0.9-1.9c0.5-0.4,1.2-0.7,2.1-0.7c0.9,0,1.6,0.2,2.1,0.7c0.5,0.5,0.8,1.1,0.8,1.8c0,0.4-0.1,0.7-0.2,1.1
		c-0.2,0.4-0.4,0.7-0.8,1.1c-0.4,0.4-0.9,0.9-1.8,1.6c-0.7,0.6-1.1,0.9-1.3,1.1s-0.4,0.4-0.5,0.6H741.1z"/>
</g>
<ellipse class="st13" cx="439" cy="136.8" rx="10.9" ry="10.5"/>
<g>
	<rect x="423.5" y="131.4" class="st2" width="31.2" height="26.2"/>
	<path d="M436,138l1.2-0.1c0.1,0.6,0.4,1.1,0.7,1.4c0.3,0.3,0.7,0.4,1.2,0.4c0.5,0,1-0.2,1.4-0.5c0.4-0.4,0.6-0.8,0.6-1.3
		c0-0.5-0.2-0.9-0.5-1.3c-0.3-0.3-0.8-0.5-1.3-0.5c-0.2,0-0.5,0-0.8,0.1l0.1-1c0.1,0,0.1,0,0.2,0c0.5,0,0.9-0.1,1.3-0.4
		c0.4-0.2,0.6-0.6,0.6-1.1c0-0.4-0.1-0.7-0.4-1s-0.7-0.4-1.1-0.4c-0.4,0-0.8,0.1-1.1,0.4c-0.3,0.3-0.5,0.7-0.6,1.2l-1.2-0.2
		c0.1-0.7,0.5-1.3,1-1.7c0.5-0.4,1.1-0.6,1.9-0.6c0.5,0,1,0.1,1.4,0.3s0.8,0.5,1,0.9c0.2,0.4,0.3,0.8,0.3,1.2c0,0.4-0.1,0.7-0.3,1.1
		s-0.5,0.6-1,0.8c0.6,0.1,1,0.4,1.3,0.8c0.3,0.4,0.5,0.9,0.5,1.5c0,0.8-0.3,1.5-0.9,2c-0.6,0.5-1.4,0.8-2.3,0.8
		c-0.8,0-1.5-0.2-2-0.7C436.4,139.4,436.1,138.8,436,138z"/>
</g>
<ellipse class="st17" cx="341.9" cy="137.8" rx="10.9" ry="10.5"/>
<g>
	<rect x="326.4" y="132.4" class="st2" width="31.2" height="26.2"/>
	<path d="M338.9,139.1l1.2-0.1c0.1,0.6,0.4,1.1,0.7,1.4c0.3,0.3,0.7,0.4,1.2,0.4c0.5,0,1-0.2,1.4-0.5c0.4-0.4,0.6-0.8,0.6-1.3
		c0-0.5-0.2-0.9-0.5-1.3c-0.3-0.3-0.8-0.5-1.3-0.5c-0.2,0-0.5,0-0.8,0.1l0.1-1c0.1,0,0.1,0,0.2,0c0.5,0,0.9-0.1,1.3-0.4
		c0.4-0.2,0.6-0.6,0.6-1.1c0-0.4-0.1-0.7-0.4-1s-0.7-0.4-1.1-0.4c-0.4,0-0.8,0.1-1.1,0.4c-0.3,0.3-0.5,0.7-0.6,1.2l-1.2-0.2
		c0.1-0.7,0.5-1.3,1-1.7c0.5-0.4,1.1-0.6,1.9-0.6c0.5,0,1,0.1,1.4,0.3s0.8,0.5,1,0.9c0.2,0.4,0.3,0.8,0.3,1.2c0,0.4-0.1,0.7-0.3,1.1
		s-0.5,0.6-1,0.8c0.6,0.1,1,0.4,1.3,0.8c0.3,0.4,0.5,0.9,0.5,1.5c0,0.8-0.3,1.5-0.9,2c-0.6,0.5-1.4,0.8-2.3,0.8
		c-0.8,0-1.5-0.2-2-0.7C339.3,140.4,339,139.8,338.9,139.1z"/>
</g>
<ellipse class="st15" cx="241.5" cy="137.8" rx="10.9" ry="10.5"/>
<g>
	<rect x="226" y="132.4" class="st2" width="31.2" height="26.2"/>
	<path d="M238.5,139.1l1.2-0.1c0.1,0.6,0.4,1.1,0.7,1.4c0.3,0.3,0.7,0.4,1.2,0.4c0.5,0,1-0.2,1.4-0.5c0.4-0.4,0.6-0.8,0.6-1.3
		c0-0.5-0.2-0.9-0.5-1.3c-0.3-0.3-0.8-0.5-1.3-0.5c-0.2,0-0.5,0-0.8,0.1l0.1-1c0.1,0,0.1,0,0.2,0c0.5,0,0.9-0.1,1.3-0.4
		c0.4-0.2,0.6-0.6,0.6-1.1c0-0.4-0.1-0.7-0.4-1s-0.7-0.4-1.1-0.4c-0.4,0-0.8,0.1-1.1,0.4c-0.3,0.3-0.5,0.7-0.6,1.2l-1.2-0.2
		c0.1-0.7,0.5-1.3,1-1.7c0.5-0.4,1.1-0.6,1.9-0.6c0.5,0,1,0.1,1.4,0.3s0.8,0.5,1,0.9c0.2,0.4,0.3,0.8,0.3,1.2c0,0.4-0.1,0.7-0.3,1.1
		s-0.5,0.6-1,0.8c0.6,0.1,1,0.4,1.3,0.8c0.3,0.4,0.5,0.9,0.5,1.5c0,0.8-0.3,1.5-0.9,2c-0.6,0.5-1.4,0.8-2.3,0.8
		c-0.8,0-1.5-0.2-2-0.7C238.9,140.4,238.6,139.8,238.5,139.1z"/>
</g>
<ellipse class="st14" cx="145.5" cy="138.9" rx="10.9" ry="10.5"/>
<g>
	<rect x="130" y="133.5" class="st2" width="31.2" height="26.2"/>
	<path d="M142.5,140.1l1.2-0.1c0.1,0.6,0.4,1.1,0.7,1.4c0.3,0.3,0.7,0.4,1.2,0.4c0.5,0,1-0.2,1.4-0.5c0.4-0.4,0.6-0.8,0.6-1.3
		c0-0.5-0.2-0.9-0.5-1.3c-0.3-0.3-0.8-0.5-1.3-0.5c-0.2,0-0.5,0-0.8,0.1l0.1-1c0.1,0,0.1,0,0.2,0c0.5,0,0.9-0.1,1.3-0.4
		c0.4-0.2,0.6-0.6,0.6-1.1c0-0.4-0.1-0.7-0.4-1s-0.7-0.4-1.1-0.4c-0.4,0-0.8,0.1-1.1,0.4c-0.3,0.3-0.5,0.7-0.6,1.2l-1.2-0.2
		c0.1-0.7,0.5-1.3,1-1.7c0.5-0.4,1.1-0.6,1.9-0.6c0.5,0,1,0.1,1.4,0.3s0.8,0.5,1,0.9c0.2,0.4,0.3,0.8,0.3,1.2c0,0.4-0.1,0.7-0.3,1.1
		s-0.5,0.6-1,0.8c0.6,0.1,1,0.4,1.3,0.8c0.3,0.4,0.5,0.9,0.5,1.5c0,0.8-0.3,1.5-0.9,2c-0.6,0.5-1.4,0.8-2.3,0.8
		c-0.8,0-1.5-0.2-2-0.7C142.9,141.5,142.6,140.9,142.5,140.1z"/>
</g>
<ellipse class="st14" cx="637.6" cy="136.8" rx="10.9" ry="10.5"/>
<g>
	<rect x="622.1" y="131.4" class="st2" width="31.2" height="26.2"/>
	<path d="M634.6,138l1.2-0.1c0.1,0.6,0.4,1.1,0.7,1.4c0.3,0.3,0.7,0.4,1.2,0.4c0.5,0,1-0.2,1.4-0.5c0.4-0.4,0.6-0.8,0.6-1.3
		c0-0.5-0.2-0.9-0.5-1.3c-0.3-0.3-0.8-0.5-1.3-0.5c-0.2,0-0.5,0-0.8,0.1l0.1-1c0.1,0,0.1,0,0.2,0c0.5,0,0.9-0.1,1.3-0.4
		c0.4-0.2,0.6-0.6,0.6-1.1c0-0.4-0.1-0.7-0.4-1s-0.7-0.4-1.1-0.4c-0.4,0-0.8,0.1-1.1,0.4c-0.3,0.3-0.5,0.7-0.6,1.2l-1.2-0.2
		c0.1-0.7,0.5-1.3,1-1.7c0.5-0.4,1.1-0.6,1.9-0.6c0.5,0,1,0.1,1.4,0.3s0.8,0.5,1,0.9c0.2,0.4,0.3,0.8,0.3,1.2c0,0.4-0.1,0.7-0.3,1.1
		s-0.5,0.6-1,0.8c0.6,0.1,1,0.4,1.3,0.8c0.3,0.4,0.5,0.9,0.5,1.5c0,0.8-0.3,1.5-0.9,2c-0.6,0.5-1.4,0.8-2.3,0.8
		c-0.8,0-1.5-0.2-2-0.7C635,139.4,634.7,138.8,634.6,138z"/>
</g>
<ellipse class="st14" cx="738" cy="136.8" rx="10.9" ry="10.5"/>
<g>
	<rect x="722.5" y="131.4" class="st2" width="31.2" height="26.2"/>
	<path d="M735,138l1.2-0.1c0.1,0.6,0.4,1.1,0.7,1.4c0.3,0.3,0.7,0.4,1.2,0.4c0.5,0,1-0.2,1.4-0.5s0.6-0.8,0.6-1.3
		c0-0.5-0.2-0.9-0.5-1.3c-0.3-0.3-0.8-0.5-1.3-0.5c-0.2,0-0.5,0-0.8,0.1l0.1-1c0.1,0,0.1,0,0.2,0c0.5,0,0.9-0.1,1.3-0.4
		c0.4-0.2,0.6-0.6,0.6-1.1c0-0.4-0.1-0.7-0.4-1c-0.3-0.3-0.7-0.4-1.1-0.4c-0.4,0-0.8,0.1-1.1,0.4c-0.3,0.3-0.5,0.7-0.6,1.2l-1.2-0.2
		c0.1-0.7,0.5-1.3,1-1.7c0.5-0.4,1.1-0.6,1.9-0.6c0.5,0,1,0.1,1.4,0.3s0.8,0.5,1,0.9c0.2,0.4,0.3,0.8,0.3,1.2c0,0.4-0.1,0.7-0.3,1.1
		c-0.2,0.3-0.5,0.6-1,0.8c0.6,0.1,1,0.4,1.3,0.8c0.3,0.4,0.5,0.9,0.5,1.5c0,0.8-0.3,1.5-0.9,2c-0.6,0.5-1.4,0.8-2.3,0.8
		c-0.8,0-1.5-0.2-2-0.7C735.4,139.4,735.1,138.8,735,138z"/>
</g>
<ellipse class="st13" cx="240.4" cy="184.2" rx="10.9" ry="10.5"/>
<g>
	<rect x="224.9" y="178.8" class="st2" width="31.2" height="26.2"/>
	<path d="M241.1,187.8v-2.2h-4.1v-1l4.3-5.9h0.9v5.9h1.3v1h-1.3v2.2H241.1z M241.1,184.6v-4.1l-2.9,4.1H241.1z"/>
</g>
<ellipse class="st16" cx="340.8" cy="184.2" rx="10.9" ry="10.5"/>
<g>
	<rect x="325.3" y="178.8" class="st2" width="31.2" height="26.2"/>
	<path d="M341.5,187.8v-2.2h-4.1v-1l4.3-5.9h0.9v5.9h1.3v1h-1.3v2.2H341.5z M341.5,184.6v-4.1l-2.9,4.1H341.5z"/>
</g>
<ellipse class="st17" cx="439" cy="186.3" rx="10.9" ry="10.5"/>
<g>
	<rect x="423.5" y="180.9" class="st2" width="31.2" height="26.2"/>
	<path d="M439.7,189.9v-2.2h-4.1v-1l4.3-5.9h0.9v5.9h1.3v1h-1.3v2.2H439.7z M439.7,186.7v-4.1l-2.9,4.1H439.7z"/>
</g>
<ellipse class="st18" cx="539.4" cy="184.2" rx="10.9" ry="10.5"/>
<g>
	<rect x="523.9" y="178.8" class="st2" width="31.2" height="26.2"/>
	<path d="M540.1,187.8v-2.2H536v-1l4.3-5.9h0.9v5.9h1.3v1h-1.3v2.2H540.1z M540.1,184.6v-4.1l-2.9,4.1H540.1z"/>
</g>
<ellipse class="st17" cx="637.6" cy="185.2" rx="10.9" ry="10.5"/>
<g>
	<rect x="622.1" y="179.8" class="st2" width="31.2" height="26.2"/>
	<path d="M638.3,188.9v-2.2h-4.1v-1l4.3-5.9h0.9v5.9h1.3v1h-1.3v2.2H638.3z M638.3,185.7v-4.1l-2.9,4.1H638.3z"/>
</g>
<ellipse class="st16" cx="738" cy="185.2" rx="10.9" ry="10.5"/>
<g>
	<rect x="722.5" y="179.8" class="st2" width="31.2" height="26.2"/>
	<path d="M738.7,188.9v-2.2h-4.1v-1l4.3-5.9h0.9v5.9h1.3v1h-1.3v2.2H738.7z M738.7,185.7v-4.1l-2.9,4.1H738.7z"/>
</g>
<ellipse class="st12" cx="241.5" cy="233.7" rx="10.9" ry="10.5"/>
<g>
	<rect x="226" y="228.3" class="st2" width="31.2" height="26.2"/>
	<path d="M238.5,235l1.2-0.1c0.1,0.6,0.3,1,0.6,1.3c0.3,0.3,0.7,0.4,1.2,0.4c0.6,0,1-0.2,1.4-0.6s0.6-0.9,0.6-1.6
		c0-0.6-0.2-1.1-0.6-1.5s-0.9-0.5-1.4-0.5c-0.4,0-0.7,0.1-1,0.2c-0.3,0.2-0.5,0.4-0.7,0.6l-1.1-0.1l0.9-4.6h4.7v1.1h-3.7l-0.5,2.4
		c0.6-0.4,1.2-0.6,1.8-0.6c0.8,0,1.5,0.3,2.1,0.8c0.6,0.5,0.8,1.3,0.8,2.1c0,0.8-0.2,1.5-0.7,2.1c-0.6,0.7-1.4,1.1-2.5,1.1
		c-0.9,0-1.5-0.2-2.1-0.7S238.6,235.7,238.5,235z"/>
</g>
<ellipse class="st18" cx="340.8" cy="232.6" rx="10.9" ry="10.5"/>
<g>
	<rect x="325.3" y="227.2" class="st2" width="31.2" height="26.2"/>
	<path d="M337.8,233.9l1.2-0.1c0.1,0.6,0.3,1,0.6,1.3c0.3,0.3,0.7,0.4,1.2,0.4c0.6,0,1-0.2,1.4-0.6s0.6-0.9,0.6-1.6
		c0-0.6-0.2-1.1-0.6-1.5s-0.9-0.5-1.4-0.5c-0.4,0-0.7,0.1-1,0.2c-0.3,0.2-0.5,0.4-0.7,0.6L338,232l0.9-4.6h4.7v1.1h-3.7l-0.5,2.4
		c0.6-0.4,1.2-0.6,1.8-0.6c0.8,0,1.5,0.3,2.1,0.8c0.6,0.5,0.8,1.3,0.8,2.1c0,0.8-0.2,1.5-0.7,2.1c-0.6,0.7-1.4,1.1-2.5,1.1
		c-0.9,0-1.5-0.2-2.1-0.7S337.9,234.7,337.8,233.9z"/>
</g>
<ellipse class="st16" cx="437.9" cy="233.7" rx="10.9" ry="10.5"/>
<g>
	<rect x="422.4" y="228.3" class="st2" width="31.2" height="26.2"/>
	<path d="M434.9,235l1.2-0.1c0.1,0.6,0.3,1,0.6,1.3c0.3,0.3,0.7,0.4,1.2,0.4c0.6,0,1-0.2,1.4-0.6s0.6-0.9,0.6-1.6
		c0-0.6-0.2-1.1-0.6-1.5s-0.9-0.5-1.4-0.5c-0.4,0-0.7,0.1-1,0.2c-0.3,0.2-0.5,0.4-0.7,0.6l-1.1-0.1l0.9-4.6h4.7v1.1H437l-0.5,2.4
		c0.6-0.4,1.2-0.6,1.8-0.6c0.8,0,1.5,0.3,2.1,0.8c0.6,0.5,0.8,1.3,0.8,2.1c0,0.8-0.2,1.5-0.7,2.1c-0.6,0.7-1.4,1.1-2.5,1.1
		c-0.9,0-1.5-0.2-2.1-0.7S435,235.7,434.9,235z"/>
</g>
<ellipse class="st16" cx="539.4" cy="233.7" rx="10.9" ry="10.5"/>
<g>
	<rect x="523.9" y="228.3" class="st2" width="31.2" height="26.2"/>
	<path d="M536.4,235l1.2-0.1c0.1,0.6,0.3,1,0.6,1.3c0.3,0.3,0.7,0.4,1.2,0.4c0.6,0,1-0.2,1.4-0.6s0.6-0.9,0.6-1.6
		c0-0.6-0.2-1.1-0.6-1.5s-0.9-0.5-1.4-0.5c-0.4,0-0.7,0.1-1,0.2c-0.3,0.2-0.5,0.4-0.7,0.6l-1.1-0.1l0.9-4.6h4.7v1.1h-3.7l-0.5,2.4
		c0.6-0.4,1.2-0.6,1.8-0.6c0.8,0,1.5,0.3,2.1,0.8c0.6,0.5,0.8,1.3,0.8,2.1c0,0.8-0.2,1.5-0.7,2.1c-0.6,0.7-1.4,1.1-2.5,1.1
		c-0.9,0-1.5-0.2-2.1-0.7S536.5,235.7,536.4,235z"/>
</g>
<ellipse class="st15" cx="637.6" cy="233.7" rx="10.9" ry="10.5"/>
<g>
	<rect x="622.1" y="228.3" class="st2" width="31.2" height="26.2"/>
	<path d="M634.6,235l1.2-0.1c0.1,0.6,0.3,1,0.6,1.3c0.3,0.3,0.7,0.4,1.2,0.4c0.6,0,1-0.2,1.4-0.6s0.6-0.9,0.6-1.6
		c0-0.6-0.2-1.1-0.6-1.5s-0.9-0.5-1.4-0.5c-0.4,0-0.7,0.1-1,0.2c-0.3,0.2-0.5,0.4-0.7,0.6l-1.1-0.1l0.9-4.6h4.7v1.1h-3.7l-0.5,2.4
		c0.6-0.4,1.2-0.6,1.8-0.6c0.8,0,1.5,0.3,2.1,0.8c0.6,0.5,0.8,1.3,0.8,2.1c0,0.8-0.2,1.5-0.7,2.1c-0.6,0.7-1.4,1.1-2.5,1.1
		c-0.9,0-1.5-0.2-2.1-0.7S634.7,235.7,634.6,235z"/>
</g>
<ellipse class="st17" cx="738" cy="233.7" rx="10.9" ry="10.5"/>
<g>
	<rect x="722.5" y="228.3" class="st2" width="31.2" height="26.2"/>
	<path d="M735,235l1.2-0.1c0.1,0.6,0.3,1,0.6,1.3s0.7,0.4,1.2,0.4c0.6,0,1-0.2,1.4-0.6c0.4-0.4,0.6-0.9,0.6-1.6
		c0-0.6-0.2-1.1-0.6-1.5c-0.4-0.4-0.9-0.5-1.4-0.5c-0.4,0-0.7,0.1-1,0.2c-0.3,0.2-0.5,0.4-0.7,0.6l-1.1-0.1l0.9-4.6h4.7v1.1H737
		l-0.5,2.4c0.6-0.4,1.2-0.6,1.8-0.6c0.8,0,1.5,0.3,2.1,0.8c0.6,0.5,0.8,1.3,0.8,2.1c0,0.8-0.2,1.5-0.7,2.1c-0.6,0.7-1.4,1.1-2.5,1.1
		c-0.9,0-1.5-0.2-2.1-0.7C735.4,236.3,735.1,235.7,735,235z"/>
</g>
<ellipse class="st16" cx="241.5" cy="282.2" rx="10.9" ry="10.5"/>
<g>
	<rect x="226" y="276.8" class="st2" width="31.2" height="26.2"/>
	<path d="M244.5,279l-1.1,0.1c-0.1-0.4-0.2-0.8-0.4-1c-0.3-0.3-0.7-0.5-1.2-0.5c-0.4,0-0.7,0.1-1,0.3c-0.4,0.3-0.6,0.6-0.9,1.1
		c-0.2,0.5-0.3,1.2-0.3,2.1c0.3-0.4,0.6-0.7,1-0.9c0.4-0.2,0.8-0.3,1.3-0.3c0.8,0,1.4,0.3,2,0.8c0.5,0.5,0.8,1.3,0.8,2.1
		c0,0.6-0.1,1.1-0.4,1.6c-0.3,0.5-0.6,0.9-1,1.1c-0.4,0.3-0.9,0.4-1.5,0.4c-1,0-1.7-0.3-2.3-1c-0.6-0.7-0.9-1.8-0.9-3.4
		c0-1.7,0.3-3,1-3.8c0.6-0.7,1.4-1,2.4-1c0.7,0,1.3,0.2,1.8,0.6C244.1,277.7,244.4,278.3,244.5,279z M239.8,282.9
		c0,0.4,0.1,0.7,0.3,1.1c0.2,0.3,0.4,0.6,0.7,0.8c0.3,0.2,0.6,0.3,1,0.3c0.5,0,0.9-0.2,1.3-0.6s0.5-0.9,0.5-1.5
		c0-0.6-0.2-1.1-0.5-1.5c-0.3-0.4-0.8-0.5-1.3-0.5c-0.5,0-1,0.2-1.3,0.5C240,281.8,239.8,282.3,239.8,282.9z"/>
</g>
<ellipse class="st15" cx="339.7" cy="282.2" rx="10.9" ry="10.5"/>
<g>
	<rect x="324.2" y="276.8" class="st2" width="31.2" height="26.2"/>
	<path d="M342.7,279l-1.1,0.1c-0.1-0.4-0.2-0.8-0.4-1c-0.3-0.3-0.7-0.5-1.2-0.5c-0.4,0-0.7,0.1-1,0.3c-0.4,0.3-0.6,0.6-0.9,1.1
		c-0.2,0.5-0.3,1.2-0.3,2.1c0.3-0.4,0.6-0.7,1-0.9c0.4-0.2,0.8-0.3,1.3-0.3c0.8,0,1.4,0.3,2,0.8c0.5,0.5,0.8,1.3,0.8,2.1
		c0,0.6-0.1,1.1-0.4,1.6c-0.3,0.5-0.6,0.9-1,1.1c-0.4,0.3-0.9,0.4-1.5,0.4c-1,0-1.7-0.3-2.3-1c-0.6-0.7-0.9-1.8-0.9-3.4
		c0-1.7,0.3-3,1-3.8c0.6-0.7,1.4-1,2.4-1c0.7,0,1.3,0.2,1.8,0.6C342.3,277.7,342.6,278.3,342.7,279z M338,282.9
		c0,0.4,0.1,0.7,0.3,1.1c0.2,0.3,0.4,0.6,0.7,0.8c0.3,0.2,0.6,0.3,1,0.3c0.5,0,0.9-0.2,1.3-0.6s0.5-0.9,0.5-1.5
		c0-0.6-0.2-1.1-0.5-1.5c-0.3-0.4-0.8-0.5-1.3-0.5c-0.5,0-1,0.2-1.3,0.5C338.2,281.8,338,282.3,338,282.9z"/>
</g>
<ellipse class="st18" cx="439" cy="282.2" rx="10.9" ry="10.5"/>
<g>
	<rect x="423.5" y="276.8" class="st2" width="31.2" height="26.2"/>
	<path d="M442,279l-1.1,0.1c-0.1-0.4-0.2-0.8-0.4-1c-0.3-0.3-0.7-0.5-1.2-0.5c-0.4,0-0.7,0.1-1,0.3c-0.4,0.3-0.6,0.6-0.9,1.1
		c-0.2,0.5-0.3,1.2-0.3,2.1c0.3-0.4,0.6-0.7,1-0.9c0.4-0.2,0.8-0.3,1.3-0.3c0.8,0,1.4,0.3,2,0.8c0.5,0.5,0.8,1.3,0.8,2.1
		c0,0.6-0.1,1.1-0.4,1.6c-0.3,0.5-0.6,0.9-1,1.1c-0.4,0.3-0.9,0.4-1.5,0.4c-1,0-1.7-0.3-2.3-1c-0.6-0.7-0.9-1.8-0.9-3.4
		c0-1.7,0.3-3,1-3.8c0.6-0.7,1.4-1,2.4-1c0.7,0,1.3,0.2,1.8,0.6C441.6,277.7,441.9,278.3,442,279z M437.3,282.9
		c0,0.4,0.1,0.7,0.3,1.1c0.2,0.3,0.4,0.6,0.7,0.8c0.3,0.2,0.6,0.3,1,0.3c0.5,0,0.9-0.2,1.3-0.6s0.5-0.9,0.5-1.5
		c0-0.6-0.2-1.1-0.5-1.5c-0.3-0.4-0.8-0.5-1.3-0.5c-0.5,0-1,0.2-1.3,0.5C437.5,281.8,437.3,282.3,437.3,282.9z"/>
</g>
<ellipse class="st15" cx="539.4" cy="282.2" rx="10.9" ry="10.5"/>
<g>
	<rect x="523.9" y="276.8" class="st2" width="31.2" height="26.2"/>
	<path d="M542.4,279l-1.1,0.1c-0.1-0.4-0.2-0.8-0.4-1c-0.3-0.3-0.7-0.5-1.2-0.5c-0.4,0-0.7,0.1-1,0.3c-0.4,0.3-0.6,0.6-0.9,1.1
		c-0.2,0.5-0.3,1.2-0.3,2.1c0.3-0.4,0.6-0.7,1-0.9c0.4-0.2,0.8-0.3,1.3-0.3c0.8,0,1.4,0.3,2,0.8c0.5,0.5,0.8,1.3,0.8,2.1
		c0,0.6-0.1,1.1-0.4,1.6c-0.3,0.5-0.6,0.9-1,1.1c-0.4,0.3-0.9,0.4-1.5,0.4c-1,0-1.7-0.3-2.3-1c-0.6-0.7-0.9-1.8-0.9-3.4
		c0-1.7,0.3-3,1-3.8c0.6-0.7,1.4-1,2.4-1c0.7,0,1.3,0.2,1.8,0.6C542,277.7,542.3,278.3,542.4,279z M537.7,282.9
		c0,0.4,0.1,0.7,0.3,1.1c0.2,0.3,0.4,0.6,0.7,0.8c0.3,0.2,0.6,0.3,1,0.3c0.5,0,0.9-0.2,1.3-0.6s0.5-0.9,0.5-1.5
		c0-0.6-0.2-1.1-0.5-1.5c-0.3-0.4-0.8-0.5-1.3-0.5c-0.5,0-1,0.2-1.3,0.5C537.9,281.8,537.7,282.3,537.7,282.9z"/>
</g>
<ellipse class="st18" cx="637.6" cy="282.2" rx="10.9" ry="10.5"/>
<g>
	<rect x="622.1" y="276.8" class="st2" width="31.2" height="26.2"/>
	<path d="M640.6,279l-1.1,0.1c-0.1-0.4-0.2-0.8-0.4-1c-0.3-0.3-0.7-0.5-1.2-0.5c-0.4,0-0.7,0.1-1,0.3c-0.4,0.3-0.6,0.6-0.9,1.1
		c-0.2,0.5-0.3,1.2-0.3,2.1c0.3-0.4,0.6-0.7,1-0.9c0.4-0.2,0.8-0.3,1.3-0.3c0.8,0,1.4,0.3,2,0.8c0.5,0.5,0.8,1.3,0.8,2.1
		c0,0.6-0.1,1.1-0.4,1.6c-0.3,0.5-0.6,0.9-1,1.1c-0.4,0.3-0.9,0.4-1.5,0.4c-1,0-1.7-0.3-2.3-1c-0.6-0.7-0.9-1.8-0.9-3.4
		c0-1.7,0.3-3,1-3.8c0.6-0.7,1.4-1,2.4-1c0.7,0,1.3,0.2,1.8,0.6C640.2,277.7,640.5,278.3,640.6,279z M635.9,282.9
		c0,0.4,0.1,0.7,0.3,1.1c0.2,0.3,0.4,0.6,0.7,0.8c0.3,0.2,0.6,0.3,1,0.3c0.5,0,0.9-0.2,1.3-0.6s0.5-0.9,0.5-1.5
		c0-0.6-0.2-1.1-0.5-1.5c-0.3-0.4-0.8-0.5-1.3-0.5c-0.5,0-1,0.2-1.3,0.5C636.1,281.8,635.9,282.3,635.9,282.9z"/>
</g>
<ellipse class="st15" cx="738" cy="282.2" rx="10.9" ry="10.5"/>
<g>
	<rect x="722.5" y="276.8" class="st2" width="31.2" height="26.2"/>
	<path d="M741,279l-1.1,0.1c-0.1-0.4-0.2-0.8-0.4-1c-0.3-0.3-0.7-0.5-1.2-0.5c-0.4,0-0.7,0.1-1,0.3c-0.4,0.3-0.6,0.6-0.9,1.1
		c-0.2,0.5-0.3,1.2-0.3,2.1c0.3-0.4,0.6-0.7,1-0.9c0.4-0.2,0.8-0.3,1.3-0.3c0.8,0,1.4,0.3,2,0.8c0.5,0.5,0.8,1.3,0.8,2.1
		c0,0.6-0.1,1.1-0.4,1.6c-0.3,0.5-0.6,0.9-1,1.1c-0.4,0.3-0.9,0.4-1.5,0.4c-1,0-1.7-0.3-2.3-1c-0.6-0.7-0.9-1.8-0.9-3.4
		c0-1.7,0.3-3,1-3.8c0.6-0.7,1.4-1,2.4-1c0.7,0,1.3,0.2,1.8,0.6S740.9,278.3,741,279z M736.3,282.9c0,0.4,0.1,0.7,0.3,1.1
		c0.2,0.3,0.4,0.6,0.7,0.8c0.3,0.2,0.6,0.3,1,0.3c0.5,0,0.9-0.2,1.3-0.6s0.5-0.9,0.5-1.5c0-0.6-0.2-1.1-0.5-1.5
		c-0.3-0.4-0.8-0.5-1.3-0.5c-0.5,0-1,0.2-1.3,0.5C736.5,281.8,736.3,282.3,736.3,282.9z"/>
</g>
<line class="st9" x1="899.8" y1="330.3" x2="999.9" y2="330.3"/>
<line class="st8" x1="899.8" y1="282.9" x2="999.9" y2="282.9"/>
<line class="st11" x1="899.8" y1="235.5" x2="999.9" y2="235.5"/>
<line class="st19" x1="899.8" y1="186" x2="999.9" y2="186"/>
<line class="st7" x1="899.8" y1="139.6" x2="999.9" y2="139.6"/>
<line class="st6" x1="899.8" y1="90.1" x2="999.9" y2="90.1"/>
<line class="st4" x1="899.8" y1="40.6" x2="999.9" y2="40.6"/>
<g>
	<rect x="1022.9" y="34.7" class="st2" width="83.8" height="17.8"/>
	<path d="M1023.3,40.7l1.2-0.1c0,0.6,0.2,1.1,0.4,1.3c0.2,0.2,0.6,0.4,1,0.4c0.3,0,0.6-0.1,0.8-0.2c0.2-0.1,0.4-0.3,0.5-0.5
		s0.1-0.6,0.1-1.1v-5.8h1.3v5.7c0,0.7-0.1,1.2-0.3,1.6s-0.5,0.7-0.9,0.9s-0.9,0.3-1.5,0.3c-0.9,0-1.5-0.2-2-0.6
		C1023.5,42.2,1023.3,41.6,1023.3,40.7z"/>
	<path d="M1030.2,40.1c0-1.1,0.4-2,1.1-2.5c0.6-0.5,1.4-0.7,2.2-0.7c1,0,1.8,0.3,2.4,0.8s0.9,1.3,0.9,2.3c0,0.8-0.1,1.4-0.4,1.8
		s-0.7,0.8-1.2,1c-0.5,0.2-1.1,0.4-1.7,0.4c-1,0-1.8-0.3-2.4-0.8C1030.5,41.9,1030.2,41.1,1030.2,40.1z M1031.4,40.1
		c0,0.8,0.2,1.4,0.6,1.8c0.4,0.4,0.9,0.6,1.5,0.6c0.6,0,1.1-0.2,1.5-0.6c0.4-0.4,0.6-1,0.6-1.8c0-0.8-0.2-1.3-0.6-1.7
		c-0.4-0.4-0.9-0.6-1.5-0.6c-0.6,0-1.1,0.2-1.5,0.6C1031.6,38.7,1031.4,39.3,1031.4,40.1z"/>
	<path d="M1038.3,43.1V37h1.1v0.9c0.5-0.7,1.3-1,2.3-1c0.4,0,0.8,0.1,1.2,0.2c0.4,0.1,0.6,0.3,0.8,0.5c0.2,0.2,0.3,0.5,0.4,0.8
		c0,0.2,0.1,0.5,0.1,1v3.7h-1.2v-3.7c0-0.4,0-0.7-0.1-0.9c-0.1-0.2-0.3-0.4-0.5-0.5c-0.2-0.1-0.5-0.2-0.8-0.2c-0.5,0-1,0.1-1.3,0.4
		c-0.4,0.3-0.6,0.8-0.6,1.6v3.3H1038.3z"/>
	<path d="M1049.3,40.4l1.2-0.1c0.1,0.4,0.2,0.8,0.4,1s0.5,0.5,1,0.7c0.4,0.2,0.9,0.2,1.5,0.2c0.5,0,0.9-0.1,1.3-0.2
		c0.4-0.1,0.7-0.3,0.8-0.5s0.3-0.5,0.3-0.7c0-0.3-0.1-0.5-0.3-0.7c-0.2-0.2-0.5-0.4-0.9-0.5c-0.3-0.1-0.8-0.2-1.7-0.4
		c-0.9-0.2-1.5-0.4-1.9-0.5c-0.5-0.2-0.8-0.5-1-0.8s-0.3-0.7-0.3-1c0-0.4,0.1-0.8,0.4-1.2c0.3-0.4,0.7-0.6,1.2-0.8
		c0.5-0.2,1.1-0.3,1.8-0.3c0.7,0,1.4,0.1,1.9,0.3s1,0.5,1.3,0.9c0.3,0.4,0.5,0.8,0.5,1.3l-1.2,0.1c-0.1-0.5-0.3-0.9-0.7-1.2
		c-0.4-0.3-1-0.4-1.7-0.4c-0.8,0-1.4,0.1-1.7,0.4c-0.4,0.2-0.5,0.5-0.5,0.9c0,0.3,0.1,0.6,0.4,0.7c0.2,0.2,0.9,0.4,1.9,0.6
		s1.8,0.4,2.2,0.5c0.6,0.2,1,0.5,1.3,0.9c0.3,0.3,0.4,0.7,0.4,1.2c0,0.4-0.1,0.9-0.4,1.3c-0.3,0.4-0.7,0.7-1.3,0.9s-1.2,0.3-1.9,0.3
		c-0.9,0-1.6-0.1-2.2-0.3c-0.6-0.2-1.1-0.6-1.4-1C1049.5,41.5,1049.4,41,1049.3,40.4z"/>
	<path d="M1058.7,43.1V37h1.1v0.9c0.5-0.7,1.3-1,2.3-1c0.4,0,0.8,0.1,1.2,0.2c0.4,0.1,0.6,0.3,0.8,0.5c0.2,0.2,0.3,0.5,0.4,0.8
		c0,0.2,0.1,0.5,0.1,1v3.7h-1.2v-3.7c0-0.4,0-0.7-0.1-0.9c-0.1-0.2-0.3-0.4-0.5-0.5c-0.2-0.1-0.5-0.2-0.8-0.2c-0.5,0-1,0.1-1.3,0.4
		c-0.4,0.3-0.6,0.8-0.6,1.6v3.3H1058.7z"/>
	<path d="M1065.9,40.1c0-1.1,0.4-2,1.1-2.5c0.6-0.5,1.4-0.7,2.2-0.7c1,0,1.8,0.3,2.4,0.8s0.9,1.3,0.9,2.3c0,0.8-0.1,1.4-0.4,1.8
		s-0.7,0.8-1.2,1c-0.5,0.2-1.1,0.4-1.7,0.4c-1,0-1.8-0.3-2.4-0.8C1066.2,41.9,1065.9,41.1,1065.9,40.1z M1067.1,40.1
		c0,0.8,0.2,1.4,0.6,1.8c0.4,0.4,0.9,0.6,1.5,0.6c0.6,0,1.1-0.2,1.5-0.6c0.4-0.4,0.6-1,0.6-1.8c0-0.8-0.2-1.3-0.6-1.7
		c-0.4-0.4-0.9-0.6-1.5-0.6c-0.6,0-1.1,0.2-1.5,0.6C1067.3,38.7,1067.1,39.3,1067.1,40.1z"/>
	<path d="M1075.2,43.1L1073,37h1.2l1.1,3.5l0.4,1.3c0-0.1,0.1-0.5,0.4-1.3l1.1-3.6h1.2l1.1,3.5l0.4,1.2l0.4-1.2l1.2-3.5h1.2
		l-2.2,6.1h-1.2l-1.1-3.6l-0.3-1l-1.4,4.7H1075.2z"/>
</g>
<g>
	<rect x="1022.9" y="83.2" class="st2" width="134.1" height="17.8"/>
	<path d="M1024,91.6v-8.4h3.4c0.8,0,1.3,0,1.7,0.1c0.6,0.1,1,0.3,1.4,0.6c0.5,0.4,0.9,0.9,1.2,1.4c0.3,0.6,0.4,1.2,0.4,2
		c0,0.6-0.1,1.2-0.3,1.7c-0.2,0.5-0.4,0.9-0.7,1.2c-0.3,0.3-0.6,0.6-0.9,0.8c-0.3,0.2-0.7,0.3-1.2,0.4c-0.5,0.1-1,0.1-1.6,0.1H1024z
		 M1025.3,90.6h2.1c0.6,0,1.1-0.1,1.5-0.2c0.4-0.1,0.7-0.2,0.9-0.4c0.3-0.3,0.5-0.6,0.7-1.1s0.3-1,0.3-1.6c0-0.9-0.2-1.6-0.5-2
		c-0.3-0.5-0.7-0.8-1.2-0.9c-0.3-0.1-0.9-0.2-1.7-0.2h-2.1V90.6z"/>
	<path d="M1038.3,90.8c-0.4,0.3-0.9,0.6-1.3,0.7s-0.9,0.2-1.3,0.2c-0.8,0-1.4-0.2-1.8-0.5c-0.4-0.3-0.6-0.7-0.6-1.3
		c0-0.3,0.1-0.6,0.2-0.8s0.4-0.4,0.6-0.6c0.3-0.1,0.5-0.3,0.9-0.3c0.2-0.1,0.6-0.1,1.1-0.2c1-0.1,1.7-0.2,2.1-0.4c0-0.1,0-0.2,0-0.3
		c0-0.4-0.1-0.7-0.3-0.9c-0.3-0.2-0.8-0.4-1.4-0.4c-0.6,0-1,0.1-1.2,0.3s-0.5,0.5-0.6,0.9l-1.2-0.1c0.1-0.4,0.3-0.8,0.5-1
		s0.6-0.5,1.1-0.6c0.5-0.1,1-0.2,1.6-0.2c0.6,0,1.1,0.1,1.5,0.2c0.4,0.1,0.7,0.3,0.8,0.5s0.3,0.4,0.4,0.7c0,0.2,0.1,0.5,0.1,1V89
		c0,1,0,1.6,0.1,1.8s0.2,0.5,0.3,0.7h-1.3C1038.4,91.4,1038.3,91.1,1038.3,90.8z M1038.2,88.5c-0.4,0.2-1.1,0.3-2,0.4
		c-0.5,0.1-0.8,0.1-1,0.2c-0.2,0.1-0.4,0.2-0.5,0.3c-0.1,0.1-0.2,0.3-0.2,0.5c0,0.3,0.1,0.5,0.4,0.7c0.2,0.2,0.6,0.3,1.1,0.3
		c0.5,0,0.9-0.1,1.2-0.3c0.4-0.2,0.6-0.4,0.8-0.7c0.1-0.2,0.2-0.6,0.2-1V88.5z"/>
	<path d="M1046.1,89.6l1.2,0.1c-0.2,0.6-0.6,1.1-1.1,1.5s-1.2,0.5-2,0.5c-1,0-1.9-0.3-2.5-0.8s-0.9-1.3-0.9-2.3c0-1,0.3-1.8,0.9-2.4
		c0.6-0.6,1.4-0.8,2.4-0.8c0.9,0,1.7,0.3,2.3,0.8c0.6,0.6,0.9,1.3,0.9,2.3c0,0.1,0,0.2,0,0.3h-5.3c0,0.7,0.3,1.2,0.7,1.5
		s0.9,0.5,1.5,0.5c0.4,0,0.8-0.1,1.1-0.3C1045.7,90.4,1045.9,90.1,1046.1,89.6z M1042.2,88h4c-0.1-0.5-0.2-0.9-0.5-1.2
		c-0.4-0.4-0.9-0.6-1.5-0.6c-0.6,0-1,0.2-1.4,0.5C1042.4,87,1042.2,87.4,1042.2,88z"/>
	<path d="M1048.9,91.6v-6.1h1.1v0.9c0.5-0.7,1.3-1,2.3-1c0.4,0,0.8,0.1,1.2,0.2c0.4,0.1,0.6,0.3,0.8,0.5c0.2,0.2,0.3,0.5,0.4,0.8
		c0,0.2,0.1,0.5,0.1,1v3.7h-1.2v-3.7c0-0.4,0-0.7-0.1-0.9c-0.1-0.2-0.3-0.4-0.5-0.5c-0.2-0.1-0.5-0.2-0.8-0.2c-0.5,0-1,0.1-1.3,0.4
		c-0.4,0.3-0.6,0.8-0.6,1.6v3.3H1048.9z"/>
	<path d="M1061.3,89.6l1.2,0.1c-0.2,0.6-0.6,1.1-1.1,1.5s-1.2,0.5-2,0.5c-1,0-1.9-0.3-2.5-0.8s-0.9-1.3-0.9-2.3c0-1,0.3-1.8,0.9-2.4
		c0.6-0.6,1.4-0.8,2.4-0.8c0.9,0,1.7,0.3,2.3,0.8c0.6,0.6,0.9,1.3,0.9,2.3c0,0.1,0,0.2,0,0.3h-5.3c0,0.7,0.3,1.2,0.7,1.5
		s0.9,0.5,1.5,0.5c0.4,0,0.8-0.1,1.1-0.3C1060.9,90.4,1061.1,90.1,1061.3,89.6z M1057.4,88h4c-0.1-0.5-0.2-0.9-0.5-1.2
		c-0.4-0.4-0.9-0.6-1.5-0.6c-0.6,0-1,0.2-1.4,0.5C1057.6,87,1057.4,87.4,1057.4,88z"/>
	<path d="M1064,91.6v-6.1h1.1v0.9c0.3-0.4,0.5-0.7,0.8-0.9c0.2-0.1,0.5-0.2,0.8-0.2c0.4,0,0.8,0.1,1.2,0.3l-0.4,1
		c-0.3-0.1-0.6-0.2-0.9-0.2c-0.3,0-0.5,0.1-0.7,0.2s-0.4,0.3-0.4,0.6c-0.1,0.4-0.2,0.8-0.2,1.2v3.2H1064z"/>
	<path d="M1068.5,93.9l-0.1-1c0.3,0.1,0.5,0.1,0.7,0.1c0.3,0,0.5,0,0.6-0.1c0.2-0.1,0.3-0.2,0.4-0.3c0.1-0.1,0.2-0.4,0.4-0.8
		c0-0.1,0.1-0.1,0.1-0.3l-2.7-6.1h1.3l1.5,3.5c0.2,0.4,0.4,0.9,0.5,1.4c0.1-0.5,0.3-0.9,0.5-1.4l1.5-3.5h1.2l-2.7,6.2
		c-0.3,0.7-0.5,1.1-0.7,1.4c-0.2,0.3-0.5,0.6-0.7,0.7c-0.3,0.2-0.6,0.2-1,0.2C1069.1,94.1,1068.8,94,1068.5,93.9z"/>
	<path d="M1074.9,89.8l1.2-0.2c0.1,0.4,0.3,0.7,0.6,0.9c0.3,0.2,0.7,0.3,1.3,0.3c0.5,0,1-0.1,1.2-0.3s0.4-0.4,0.4-0.7
		c0-0.2-0.1-0.4-0.4-0.6c-0.2-0.1-0.6-0.2-1.2-0.3c-0.9-0.2-1.5-0.4-1.8-0.5c-0.3-0.1-0.6-0.3-0.8-0.6s-0.3-0.5-0.3-0.8
		c0-0.3,0.1-0.5,0.2-0.8s0.3-0.4,0.6-0.6c0.2-0.1,0.4-0.2,0.8-0.3c0.3-0.1,0.7-0.1,1-0.1c0.6,0,1,0.1,1.5,0.2
		c0.4,0.1,0.7,0.3,0.9,0.6c0.2,0.2,0.3,0.5,0.4,0.9l-1.2,0.1c-0.1-0.3-0.2-0.6-0.5-0.7c-0.3-0.2-0.6-0.3-1.1-0.3
		c-0.6,0-0.9,0.1-1.2,0.2s-0.4,0.3-0.4,0.6c0,0.1,0,0.3,0.1,0.4c0.1,0.1,0.3,0.2,0.5,0.3c0.1,0,0.5,0.1,1.1,0.3
		c0.8,0.2,1.4,0.4,1.8,0.5c0.3,0.1,0.6,0.3,0.8,0.5c0.2,0.2,0.3,0.5,0.3,0.9c0,0.3-0.1,0.7-0.4,1c-0.2,0.3-0.6,0.5-1,0.7
		c-0.4,0.2-0.9,0.2-1.5,0.2c-0.9,0-1.6-0.2-2.1-0.5C1075.4,90.9,1075.1,90.4,1074.9,89.8z"/>
	<path d="M1088.4,91.6v-7.4h-3.2v-1h7.7v1h-3.2v7.4H1088.4z"/>
	<path d="M1097.2,90.8c-0.4,0.3-0.9,0.6-1.3,0.7s-0.9,0.2-1.3,0.2c-0.8,0-1.4-0.2-1.8-0.5c-0.4-0.3-0.6-0.7-0.6-1.3
		c0-0.3,0.1-0.6,0.2-0.8s0.4-0.4,0.6-0.6c0.3-0.1,0.5-0.3,0.9-0.3c0.2-0.1,0.6-0.1,1.1-0.2c1-0.1,1.7-0.2,2.1-0.4c0-0.1,0-0.2,0-0.3
		c0-0.4-0.1-0.7-0.3-0.9c-0.3-0.2-0.8-0.4-1.4-0.4c-0.6,0-1,0.1-1.2,0.3s-0.5,0.5-0.6,0.9l-1.2-0.1c0.1-0.4,0.3-0.8,0.5-1
		s0.6-0.5,1.1-0.6c0.5-0.1,1-0.2,1.6-0.2c0.6,0,1.1,0.1,1.5,0.2c0.4,0.1,0.7,0.3,0.8,0.5s0.3,0.4,0.4,0.7c0,0.2,0.1,0.5,0.1,1V89
		c0,1,0,1.6,0.1,1.8s0.2,0.5,0.3,0.7h-1.3C1097.3,91.4,1097.3,91.1,1097.2,90.8z M1097.1,88.5c-0.4,0.2-1.1,0.3-2,0.4
		c-0.5,0.1-0.8,0.1-1,0.2c-0.2,0.1-0.4,0.2-0.5,0.3c-0.1,0.1-0.2,0.3-0.2,0.5c0,0.3,0.1,0.5,0.4,0.7c0.2,0.2,0.6,0.3,1.1,0.3
		c0.5,0,0.9-0.1,1.2-0.3c0.4-0.2,0.6-0.4,0.8-0.7c0.1-0.2,0.2-0.6,0.2-1V88.5z"/>
	<path d="M1100.2,91.6v-6.1h1.1v0.9c0.3-0.4,0.5-0.7,0.8-0.9c0.2-0.1,0.5-0.2,0.8-0.2c0.4,0,0.8,0.1,1.2,0.3l-0.4,1
		c-0.3-0.1-0.6-0.2-0.9-0.2c-0.3,0-0.5,0.1-0.7,0.2s-0.4,0.3-0.4,0.6c-0.1,0.4-0.2,0.8-0.2,1.2v3.2H1100.2z"/>
	<path d="M1104.5,92.1l1.2,0.1c0,0.3,0.2,0.5,0.4,0.7c0.3,0.2,0.7,0.3,1.2,0.3c0.6,0,1-0.1,1.3-0.3c0.3-0.2,0.5-0.5,0.6-0.8
		c0.1-0.2,0.1-0.7,0.1-1.3c-0.5,0.5-1.2,0.8-2,0.8c-1,0-1.7-0.3-2.3-0.9s-0.8-1.3-0.8-2.2c0-0.6,0.1-1.1,0.4-1.6
		c0.2-0.5,0.6-0.9,1.1-1.1c0.5-0.3,1-0.4,1.6-0.4c0.8,0,1.5,0.3,2.1,0.9v-0.7h1.1v5.3c0,0.9-0.1,1.6-0.3,2c-0.2,0.4-0.6,0.7-1.1,0.9
		c-0.5,0.2-1.1,0.3-1.8,0.3c-0.8,0-1.5-0.2-2-0.5S1104.5,92.7,1104.5,92.1z M1105.5,88.4c0,0.8,0.2,1.4,0.6,1.7
		c0.4,0.4,0.8,0.6,1.4,0.6c0.6,0,1-0.2,1.4-0.5c0.4-0.4,0.6-0.9,0.6-1.7c0-0.7-0.2-1.3-0.6-1.7s-0.8-0.6-1.4-0.6
		c-0.5,0-1,0.2-1.4,0.6C1105.7,87.1,1105.5,87.7,1105.5,88.4z"/>
	<path d="M1116.9,90.8c-0.4,0.3-0.9,0.6-1.3,0.7s-0.9,0.2-1.3,0.2c-0.8,0-1.4-0.2-1.8-0.5c-0.4-0.3-0.6-0.7-0.6-1.3
		c0-0.3,0.1-0.6,0.2-0.8s0.4-0.4,0.6-0.6c0.3-0.1,0.5-0.3,0.9-0.3c0.2-0.1,0.6-0.1,1.1-0.2c1-0.1,1.7-0.2,2.1-0.4c0-0.1,0-0.2,0-0.3
		c0-0.4-0.1-0.7-0.3-0.9c-0.3-0.2-0.8-0.4-1.4-0.4c-0.6,0-1,0.1-1.2,0.3s-0.5,0.5-0.6,0.9l-1.2-0.1c0.1-0.4,0.3-0.8,0.5-1
		s0.6-0.5,1.1-0.6c0.5-0.1,1-0.2,1.6-0.2c0.6,0,1.1,0.1,1.5,0.2c0.4,0.1,0.7,0.3,0.8,0.5s0.3,0.4,0.4,0.7c0,0.2,0.1,0.5,0.1,1V89
		c0,1,0,1.6,0.1,1.8s0.2,0.5,0.3,0.7h-1.3C1117.1,91.4,1117,91.1,1116.9,90.8z M1116.8,88.5c-0.4,0.2-1.1,0.3-2,0.4
		c-0.5,0.1-0.8,0.1-1,0.2c-0.2,0.1-0.4,0.2-0.5,0.3c-0.1,0.1-0.2,0.3-0.2,0.5c0,0.3,0.1,0.5,0.4,0.7c0.2,0.2,0.6,0.3,1.1,0.3
		c0.5,0,0.9-0.1,1.2-0.3c0.4-0.2,0.6-0.4,0.8-0.7c0.1-0.2,0.2-0.6,0.2-1V88.5z"/>
	<path d="M1119.9,91.6v-6.1h1.1v0.9c0.3-0.4,0.5-0.7,0.8-0.9c0.2-0.1,0.5-0.2,0.8-0.2c0.4,0,0.8,0.1,1.2,0.3l-0.4,1
		c-0.3-0.1-0.6-0.2-0.9-0.2c-0.3,0-0.5,0.1-0.7,0.2s-0.4,0.3-0.4,0.6c-0.1,0.4-0.2,0.8-0.2,1.2v3.2H1119.9z"/>
	<path d="M1124.4,93.9l-0.1-1c0.3,0.1,0.5,0.1,0.7,0.1c0.3,0,0.5,0,0.6-0.1c0.2-0.1,0.3-0.2,0.4-0.3c0.1-0.1,0.2-0.4,0.4-0.8
		c0-0.1,0.1-0.1,0.1-0.3l-2.7-6.1h1.3l1.5,3.5c0.2,0.4,0.4,0.9,0.5,1.4c0.1-0.5,0.3-0.9,0.5-1.4l1.5-3.5h1.2l-2.7,6.2
		c-0.3,0.7-0.5,1.1-0.7,1.4c-0.2,0.3-0.5,0.6-0.7,0.7c-0.3,0.2-0.6,0.2-1,0.2C1124.9,94.1,1124.7,94,1124.4,93.9z"/>
	<path d="M1136.1,89.6l1.2,0.1c-0.2,0.6-0.6,1.1-1.1,1.5s-1.2,0.5-2,0.5c-1,0-1.9-0.3-2.5-0.8s-0.9-1.3-0.9-2.3c0-1,0.3-1.8,0.9-2.4
		c0.6-0.6,1.4-0.8,2.4-0.8c0.9,0,1.7,0.3,2.3,0.8c0.6,0.6,0.9,1.3,0.9,2.3c0,0.1,0,0.2,0,0.3h-5.3c0,0.7,0.3,1.2,0.7,1.5
		s0.9,0.5,1.5,0.5c0.4,0,0.8-0.1,1.1-0.3C1135.7,90.4,1135.9,90.1,1136.1,89.6z M1132.2,88h4c-0.1-0.5-0.2-0.9-0.5-1.2
		c-0.4-0.4-0.9-0.6-1.5-0.6c-0.6,0-1,0.2-1.4,0.5C1132.4,87,1132.2,87.4,1132.2,88z"/>
	<path d="M1138.9,91.6v-6.1h1.1v0.9c0.5-0.7,1.3-1,2.3-1c0.4,0,0.8,0.1,1.2,0.2c0.4,0.1,0.6,0.3,0.8,0.5c0.2,0.2,0.3,0.5,0.4,0.8
		c0,0.2,0.1,0.5,0.1,1v3.7h-1.2v-3.7c0-0.4,0-0.7-0.1-0.9c-0.1-0.2-0.3-0.4-0.5-0.5c-0.2-0.1-0.5-0.2-0.8-0.2c-0.5,0-1,0.1-1.3,0.4
		c-0.4,0.3-0.6,0.8-0.6,1.6v3.3H1138.9z"/>
</g>
<g>
	<rect x="1022.9" y="133.7" class="st2" width="128.6" height="17.8"/>
	<path d="M1026.5,142.2v-7.4h-3.2v-1h7.7v1h-3.2v7.4H1026.5z"/>
	<path d="M1031.4,144.5l-0.1-1c0.3,0.1,0.5,0.1,0.7,0.1c0.3,0,0.5,0,0.6-0.1c0.2-0.1,0.3-0.2,0.4-0.3c0.1-0.1,0.2-0.4,0.4-0.8
		c0-0.1,0.1-0.1,0.1-0.3l-2.7-6.1h1.3l1.5,3.5c0.2,0.4,0.4,0.9,0.5,1.4c0.1-0.5,0.3-0.9,0.5-1.4l1.5-3.5h1.2l-2.7,6.2
		c-0.3,0.7-0.5,1.1-0.7,1.4c-0.2,0.3-0.5,0.6-0.7,0.7c-0.3,0.2-0.6,0.2-1,0.2C1031.9,144.6,1031.7,144.6,1031.4,144.5z"/>
	<path d="M1038.2,142.2v-6.1h1.1v0.9c0.3-0.4,0.5-0.7,0.8-0.9s0.5-0.2,0.8-0.2c0.4,0,0.8,0.1,1.2,0.3l-0.4,1
		c-0.3-0.1-0.6-0.2-0.9-0.2c-0.3,0-0.5,0.1-0.7,0.2s-0.4,0.3-0.4,0.6c-0.1,0.4-0.2,0.8-0.2,1.2v3.2H1038.2z"/>
	<path d="M1042.8,134.9v-1.2h1.2v1.2H1042.8z M1042.8,142.2v-6.1h1.2v6.1H1042.8z"/>
	<path d="M1045.4,139.1c0-1.1,0.4-2,1.1-2.5c0.6-0.5,1.4-0.7,2.2-0.7c1,0,1.8,0.3,2.4,0.8c0.6,0.5,0.9,1.3,0.9,2.3
		c0,0.8-0.1,1.4-0.4,1.8s-0.7,0.8-1.2,1c-0.5,0.2-1.1,0.4-1.7,0.4c-1,0-1.8-0.3-2.4-0.8C1045.7,140.9,1045.4,140.1,1045.4,139.1z
		 M1046.6,139.1c0,0.8,0.2,1.4,0.6,1.8c0.4,0.4,0.9,0.6,1.5,0.6c0.6,0,1.1-0.2,1.5-0.6s0.6-1,0.6-1.8c0-0.8-0.2-1.3-0.6-1.7
		c-0.4-0.4-0.9-0.6-1.5-0.6c-0.6,0-1.1,0.2-1.5,0.6C1046.8,137.7,1046.6,138.3,1046.6,139.1z"/>
	<path d="M1053.4,142.2v-6.1h1.1v0.9c0.5-0.7,1.3-1,2.3-1c0.4,0,0.8,0.1,1.2,0.2c0.4,0.1,0.6,0.3,0.8,0.5s0.3,0.5,0.4,0.8
		c0,0.2,0.1,0.5,0.1,1v3.7h-1.2v-3.7c0-0.4,0-0.7-0.1-0.9c-0.1-0.2-0.3-0.4-0.5-0.5c-0.2-0.1-0.5-0.2-0.8-0.2c-0.5,0-1,0.1-1.3,0.4
		c-0.4,0.3-0.6,0.8-0.6,1.6v3.3H1053.4z"/>
	<path d="M1064.9,142.2v-8.4h1.3v7.4h4.8v1H1064.9z"/>
	<path d="M1077,141.4c-0.4,0.3-0.9,0.6-1.3,0.7s-0.9,0.2-1.3,0.2c-0.8,0-1.4-0.2-1.8-0.5c-0.4-0.3-0.6-0.7-0.6-1.3
		c0-0.3,0.1-0.6,0.2-0.8c0.2-0.2,0.4-0.4,0.6-0.6c0.3-0.1,0.5-0.3,0.9-0.3c0.2-0.1,0.6-0.1,1.1-0.2c1-0.1,1.7-0.2,2.1-0.4
		c0-0.1,0-0.2,0-0.3c0-0.4-0.1-0.7-0.3-0.9c-0.3-0.2-0.8-0.3-1.4-0.3c-0.6,0-1,0.1-1.2,0.3s-0.5,0.5-0.6,0.9l-1.2-0.1
		c0.1-0.4,0.3-0.8,0.5-1s0.6-0.5,1.1-0.6s1-0.2,1.6-0.2c0.6,0,1.1,0.1,1.5,0.2c0.4,0.1,0.7,0.3,0.8,0.5c0.2,0.2,0.3,0.4,0.4,0.7
		c0,0.2,0.1,0.5,0.1,1v1.4c0,1,0,1.6,0.1,1.8c0.1,0.3,0.2,0.5,0.3,0.7h-1.3C1077.1,141.9,1077,141.7,1077,141.4z M1076.9,139.1
		c-0.4,0.2-1.1,0.3-2,0.4c-0.5,0.1-0.8,0.1-1,0.2c-0.2,0.1-0.4,0.2-0.5,0.3c-0.1,0.1-0.2,0.3-0.2,0.5c0,0.3,0.1,0.5,0.4,0.7
		s0.6,0.3,1.1,0.3c0.5,0,0.9-0.1,1.2-0.3c0.4-0.2,0.6-0.4,0.8-0.7c0.1-0.2,0.2-0.6,0.2-1V139.1z"/>
	<path d="M1080,142.2v-6.1h1.1v0.9c0.5-0.7,1.3-1,2.3-1c0.4,0,0.8,0.1,1.2,0.2c0.4,0.1,0.6,0.3,0.8,0.5s0.3,0.5,0.4,0.8
		c0,0.2,0.1,0.5,0.1,1v3.7h-1.2v-3.7c0-0.4,0-0.7-0.1-0.9c-0.1-0.2-0.3-0.4-0.5-0.5c-0.2-0.1-0.5-0.2-0.8-0.2c-0.5,0-1,0.1-1.3,0.4
		c-0.4,0.3-0.6,0.8-0.6,1.6v3.3H1080z"/>
	<path d="M1087.6,142.2v-6.1h1.1v0.9c0.5-0.7,1.3-1,2.3-1c0.4,0,0.8,0.1,1.2,0.2c0.4,0.1,0.6,0.3,0.8,0.5s0.3,0.5,0.4,0.8
		c0,0.2,0.1,0.5,0.1,1v3.7h-1.2v-3.7c0-0.4,0-0.7-0.1-0.9c-0.1-0.2-0.3-0.4-0.5-0.5c-0.2-0.1-0.5-0.2-0.8-0.2c-0.5,0-1,0.1-1.3,0.4
		c-0.4,0.3-0.6,0.8-0.6,1.6v3.3H1087.6z"/>
	<path d="M1095.1,134.9v-1.2h1.2v1.2H1095.1z M1095.1,142.2v-6.1h1.2v6.1H1095.1z"/>
	<path d="M1097.7,140.3l1.2-0.2c0.1,0.4,0.3,0.7,0.6,0.9c0.3,0.2,0.7,0.3,1.3,0.3c0.5,0,1-0.1,1.2-0.3c0.3-0.2,0.4-0.4,0.4-0.7
		c0-0.2-0.1-0.4-0.4-0.6c-0.2-0.1-0.6-0.2-1.2-0.3c-0.9-0.2-1.5-0.4-1.8-0.5s-0.6-0.3-0.8-0.6c-0.2-0.2-0.3-0.5-0.3-0.8
		c0-0.3,0.1-0.5,0.2-0.8c0.1-0.2,0.3-0.4,0.6-0.6c0.2-0.1,0.4-0.2,0.8-0.3s0.7-0.1,1-0.1c0.6,0,1,0.1,1.5,0.2s0.7,0.3,0.9,0.6
		c0.2,0.2,0.3,0.5,0.4,0.9l-1.2,0.1c-0.1-0.3-0.2-0.6-0.5-0.7c-0.3-0.2-0.6-0.3-1.1-0.3c-0.6,0-0.9,0.1-1.2,0.2
		c-0.2,0.2-0.4,0.3-0.4,0.5c0,0.1,0,0.3,0.1,0.4c0.1,0.1,0.3,0.2,0.5,0.3c0.1,0,0.5,0.1,1.1,0.3c0.8,0.2,1.4,0.4,1.8,0.5
		c0.3,0.1,0.6,0.3,0.8,0.5c0.2,0.2,0.3,0.5,0.3,0.9c0,0.3-0.1,0.7-0.4,1c-0.2,0.3-0.6,0.5-1,0.7c-0.4,0.2-0.9,0.2-1.5,0.2
		c-0.9,0-1.6-0.2-2.1-0.5C1098.1,141.5,1097.8,141,1097.7,140.3z"/>
	<path d="M1107.6,141.2l0.2,0.9c-0.3,0.1-0.6,0.1-0.9,0.1c-0.4,0-0.8-0.1-1-0.2c-0.2-0.1-0.4-0.3-0.5-0.5c-0.1-0.2-0.1-0.6-0.1-1.2
		v-3.5h-0.9v-0.8h0.9v-1.5l1.2-0.6v2.1h1.2v0.8h-1.2v3.6c0,0.3,0,0.5,0.1,0.6s0.1,0.2,0.2,0.2c0.1,0,0.2,0.1,0.4,0.1
		C1107.2,141.3,1107.4,141.3,1107.6,141.2z"/>
	<path d="M1113.6,140.2l1.2,0.1c-0.2,0.6-0.6,1.1-1.1,1.5c-0.5,0.3-1.2,0.5-2,0.5c-1,0-1.9-0.3-2.5-0.8c-0.6-0.5-0.9-1.3-0.9-2.3
		c0-1,0.3-1.8,0.9-2.4c0.6-0.6,1.4-0.8,2.4-0.8c0.9,0,1.7,0.3,2.3,0.8c0.6,0.6,0.9,1.3,0.9,2.3c0,0.1,0,0.2,0,0.3h-5.3
		c0,0.7,0.3,1.2,0.7,1.5s0.9,0.5,1.5,0.5c0.4,0,0.8-0.1,1.1-0.3C1113.2,140.9,1113.5,140.6,1113.6,140.2z M1109.7,138.5h4
		c-0.1-0.5-0.2-0.9-0.5-1.2c-0.4-0.4-0.9-0.6-1.5-0.6c-0.6,0-1,0.2-1.4,0.5C1109.9,137.6,1109.7,138,1109.7,138.5z"/>
	<path d="M1116.4,142.2v-6.1h1.1v0.9c0.3-0.4,0.5-0.7,0.8-0.9s0.5-0.2,0.8-0.2c0.4,0,0.8,0.1,1.2,0.3l-0.4,1
		c-0.3-0.1-0.6-0.2-0.9-0.2c-0.3,0-0.5,0.1-0.7,0.2s-0.4,0.3-0.4,0.6c-0.1,0.4-0.2,0.8-0.2,1.2v3.2H1116.4z"/>
</g>
<g>
	<rect x="1022.9" y="179.1" class="st2" width="118.8" height="17.8"/>
	<path d="M1023.6,184.8l1.2-0.1c0.1,0.4,0.2,0.8,0.4,1c0.2,0.3,0.5,0.5,1,0.7c0.4,0.2,0.9,0.2,1.5,0.2c0.5,0,0.9-0.1,1.3-0.2
		c0.4-0.1,0.7-0.3,0.8-0.5s0.3-0.5,0.3-0.7c0-0.3-0.1-0.5-0.3-0.7c-0.2-0.2-0.5-0.4-0.9-0.5c-0.3-0.1-0.8-0.2-1.7-0.4
		c-0.9-0.2-1.5-0.4-1.9-0.5c-0.5-0.2-0.8-0.5-1-0.8s-0.3-0.7-0.3-1c0-0.4,0.1-0.8,0.4-1.2c0.3-0.4,0.7-0.6,1.2-0.8
		c0.5-0.2,1.1-0.3,1.8-0.3c0.7,0,1.4,0.1,1.9,0.3c0.6,0.2,1,0.5,1.3,0.9c0.3,0.4,0.5,0.8,0.5,1.3l-1.2,0.1c-0.1-0.5-0.3-0.9-0.7-1.2
		c-0.4-0.3-1-0.4-1.7-0.4c-0.8,0-1.4,0.1-1.7,0.4c-0.4,0.2-0.5,0.5-0.5,0.9c0,0.3,0.1,0.5,0.4,0.7c0.2,0.2,0.9,0.4,1.9,0.6
		c1.1,0.2,1.8,0.4,2.2,0.5c0.6,0.2,1,0.5,1.3,0.9c0.3,0.3,0.4,0.7,0.4,1.2c0,0.4-0.1,0.9-0.4,1.3c-0.3,0.4-0.7,0.7-1.3,0.9
		s-1.2,0.3-1.9,0.3c-0.9,0-1.6-0.1-2.2-0.3c-0.6-0.2-1.1-0.6-1.4-1S1023.6,185.3,1023.6,184.8z"/>
	<path d="M1037.6,186.7c-0.4,0.3-0.9,0.6-1.3,0.7s-0.9,0.2-1.3,0.2c-0.8,0-1.4-0.2-1.8-0.5c-0.4-0.3-0.6-0.7-0.6-1.3
		c0-0.3,0.1-0.6,0.2-0.8c0.2-0.2,0.4-0.4,0.6-0.6c0.3-0.1,0.5-0.3,0.9-0.3c0.2-0.1,0.6-0.1,1.1-0.2c1-0.1,1.7-0.2,2.1-0.4
		c0-0.1,0-0.2,0-0.3c0-0.4-0.1-0.7-0.3-0.9c-0.3-0.2-0.8-0.3-1.4-0.3c-0.6,0-1,0.1-1.2,0.3s-0.5,0.5-0.6,0.9l-1.2-0.1
		c0.1-0.4,0.3-0.8,0.5-1s0.6-0.5,1.1-0.6s1-0.2,1.6-0.2c0.6,0,1.1,0.1,1.5,0.2c0.4,0.1,0.7,0.3,0.8,0.5c0.2,0.2,0.3,0.4,0.4,0.7
		c0,0.2,0.1,0.5,0.1,1v1.4c0,1,0,1.6,0.1,1.8c0.1,0.3,0.2,0.5,0.3,0.7h-1.3C1037.7,187.2,1037.6,187,1037.6,186.7z M1037.5,184.4
		c-0.4,0.2-1.1,0.3-2,0.4c-0.5,0.1-0.8,0.1-1,0.2c-0.2,0.1-0.4,0.2-0.5,0.3c-0.1,0.1-0.2,0.3-0.2,0.5c0,0.3,0.1,0.5,0.4,0.7
		s0.6,0.3,1.1,0.3c0.5,0,0.9-0.1,1.2-0.3c0.4-0.2,0.6-0.4,0.8-0.7c0.1-0.2,0.2-0.6,0.2-1V184.4z"/>
	<path d="M1040.5,187.5v-6.1h1.1v0.9c0.5-0.7,1.3-1,2.3-1c0.4,0,0.8,0.1,1.2,0.2c0.4,0.1,0.6,0.3,0.8,0.5s0.3,0.5,0.4,0.8
		c0,0.2,0.1,0.5,0.1,1v3.7h-1.2v-3.7c0-0.4,0-0.7-0.1-0.9c-0.1-0.2-0.3-0.4-0.5-0.5c-0.2-0.1-0.5-0.2-0.8-0.2c-0.5,0-1,0.1-1.3,0.4
		c-0.4,0.3-0.6,0.8-0.6,1.6v3.3H1040.5z"/>
	<path d="M1047.6,185.6l1.2-0.2c0.1,0.4,0.3,0.7,0.6,0.9c0.3,0.2,0.7,0.3,1.3,0.3c0.5,0,1-0.1,1.2-0.3c0.3-0.2,0.4-0.4,0.4-0.7
		c0-0.2-0.1-0.4-0.4-0.6c-0.2-0.1-0.6-0.2-1.2-0.3c-0.9-0.2-1.5-0.4-1.8-0.5s-0.6-0.3-0.8-0.6c-0.2-0.2-0.3-0.5-0.3-0.8
		c0-0.3,0.1-0.5,0.2-0.8c0.1-0.2,0.3-0.4,0.6-0.6c0.2-0.1,0.4-0.2,0.8-0.3s0.7-0.1,1-0.1c0.6,0,1,0.1,1.5,0.2s0.7,0.3,0.9,0.6
		c0.2,0.2,0.3,0.5,0.4,0.9l-1.2,0.1c-0.1-0.3-0.2-0.6-0.5-0.7c-0.3-0.2-0.6-0.3-1.1-0.3c-0.6,0-0.9,0.1-1.2,0.2
		c-0.2,0.2-0.4,0.3-0.4,0.5c0,0.1,0,0.3,0.1,0.4c0.1,0.1,0.3,0.2,0.5,0.3c0.1,0,0.5,0.1,1.1,0.3c0.8,0.2,1.4,0.4,1.8,0.5
		c0.3,0.1,0.6,0.3,0.8,0.5c0.2,0.2,0.3,0.5,0.3,0.9c0,0.3-0.1,0.7-0.4,1c-0.2,0.3-0.6,0.5-1,0.7c-0.4,0.2-0.9,0.2-1.5,0.2
		c-0.9,0-1.6-0.2-2.1-0.5C1048.1,186.8,1047.8,186.3,1047.6,185.6z"/>
	<path d="M1059.6,186.7c-0.4,0.3-0.9,0.6-1.3,0.7s-0.9,0.2-1.3,0.2c-0.8,0-1.4-0.2-1.8-0.5c-0.4-0.3-0.6-0.7-0.6-1.3
		c0-0.3,0.1-0.6,0.2-0.8c0.2-0.2,0.4-0.4,0.6-0.6c0.3-0.1,0.5-0.3,0.9-0.3c0.2-0.1,0.6-0.1,1.1-0.2c1-0.1,1.7-0.2,2.1-0.4
		c0-0.1,0-0.2,0-0.3c0-0.4-0.1-0.7-0.3-0.9c-0.3-0.2-0.8-0.3-1.4-0.3c-0.6,0-1,0.1-1.2,0.3s-0.5,0.5-0.6,0.9l-1.2-0.1
		c0.1-0.4,0.3-0.8,0.5-1s0.6-0.5,1.1-0.6s1-0.2,1.6-0.2c0.6,0,1.1,0.1,1.5,0.2c0.4,0.1,0.7,0.3,0.8,0.5c0.2,0.2,0.3,0.4,0.4,0.7
		c0,0.2,0.1,0.5,0.1,1v1.4c0,1,0,1.6,0.1,1.8c0.1,0.3,0.2,0.5,0.3,0.7h-1.3C1059.7,187.2,1059.6,187,1059.6,186.7z M1059.5,184.4
		c-0.4,0.2-1.1,0.3-2,0.4c-0.5,0.1-0.8,0.1-1,0.2c-0.2,0.1-0.4,0.2-0.5,0.3c-0.1,0.1-0.2,0.3-0.2,0.5c0,0.3,0.1,0.5,0.4,0.7
		s0.6,0.3,1.1,0.3c0.5,0,0.9-0.1,1.2-0.3c0.4-0.2,0.6-0.4,0.8-0.7c0.1-0.2,0.2-0.6,0.2-1V184.4z"/>
	<path d="M1066,184.8l1.2-0.1c0.1,0.4,0.2,0.8,0.4,1c0.2,0.3,0.5,0.5,1,0.7c0.4,0.2,0.9,0.2,1.5,0.2c0.5,0,0.9-0.1,1.3-0.2
		c0.4-0.1,0.7-0.3,0.8-0.5s0.3-0.5,0.3-0.7c0-0.3-0.1-0.5-0.3-0.7c-0.2-0.2-0.5-0.4-0.9-0.5c-0.3-0.1-0.8-0.2-1.7-0.4
		c-0.9-0.2-1.5-0.4-1.9-0.5c-0.5-0.2-0.8-0.5-1-0.8s-0.3-0.7-0.3-1c0-0.4,0.1-0.8,0.4-1.2c0.3-0.4,0.7-0.6,1.2-0.8
		c0.5-0.2,1.1-0.3,1.8-0.3c0.7,0,1.4,0.1,1.9,0.3c0.6,0.2,1,0.5,1.3,0.9c0.3,0.4,0.5,0.8,0.5,1.3l-1.2,0.1c-0.1-0.5-0.3-0.9-0.7-1.2
		c-0.4-0.3-1-0.4-1.7-0.4c-0.8,0-1.4,0.1-1.7,0.4c-0.4,0.2-0.5,0.5-0.5,0.9c0,0.3,0.1,0.5,0.4,0.7c0.2,0.2,0.9,0.4,1.9,0.6
		c1.1,0.2,1.8,0.4,2.2,0.5c0.6,0.2,1,0.5,1.3,0.9c0.3,0.3,0.4,0.7,0.4,1.2c0,0.4-0.1,0.9-0.4,1.3c-0.3,0.4-0.7,0.7-1.3,0.9
		s-1.2,0.3-1.9,0.3c-0.9,0-1.6-0.1-2.2-0.3c-0.6-0.2-1.1-0.6-1.4-1S1066.1,185.3,1066,184.8z"/>
	<path d="M1078,186.5l0.2,0.9c-0.3,0.1-0.6,0.1-0.9,0.1c-0.4,0-0.8-0.1-1-0.2c-0.2-0.1-0.4-0.3-0.5-0.5c-0.1-0.2-0.1-0.6-0.1-1.2
		v-3.5h-0.9v-0.8h0.9v-1.5l1.2-0.6v2.1h1.2v0.8h-1.2v3.6c0,0.3,0,0.5,0.1,0.6s0.1,0.2,0.2,0.2c0.1,0,0.2,0.1,0.4,0.1
		C1077.6,186.6,1077.8,186.6,1078,186.5z"/>
	<path d="M1083.8,186.7c-0.4,0.3-0.9,0.6-1.3,0.7s-0.9,0.2-1.3,0.2c-0.8,0-1.4-0.2-1.8-0.5c-0.4-0.3-0.6-0.7-0.6-1.3
		c0-0.3,0.1-0.6,0.2-0.8c0.2-0.2,0.4-0.4,0.6-0.6c0.3-0.1,0.5-0.3,0.9-0.3c0.2-0.1,0.6-0.1,1.1-0.2c1-0.1,1.7-0.2,2.1-0.4
		c0-0.1,0-0.2,0-0.3c0-0.4-0.1-0.7-0.3-0.9c-0.3-0.2-0.8-0.3-1.4-0.3c-0.6,0-1,0.1-1.2,0.3s-0.5,0.5-0.6,0.9l-1.2-0.1
		c0.1-0.4,0.3-0.8,0.5-1s0.6-0.5,1.1-0.6s1-0.2,1.6-0.2c0.6,0,1.1,0.1,1.5,0.2c0.4,0.1,0.7,0.3,0.8,0.5c0.2,0.2,0.3,0.4,0.4,0.7
		c0,0.2,0.1,0.5,0.1,1v1.4c0,1,0,1.6,0.1,1.8c0.1,0.3,0.2,0.5,0.3,0.7h-1.3C1083.9,187.2,1083.9,187,1083.8,186.7z M1083.7,184.4
		c-0.4,0.2-1.1,0.3-2,0.4c-0.5,0.1-0.8,0.1-1,0.2c-0.2,0.1-0.4,0.2-0.5,0.3c-0.1,0.1-0.2,0.3-0.2,0.5c0,0.3,0.1,0.5,0.4,0.7
		s0.6,0.3,1.1,0.3c0.5,0,0.9-0.1,1.2-0.3c0.4-0.2,0.6-0.4,0.8-0.7c0.1-0.2,0.2-0.6,0.2-1V184.4z"/>
	<path d="M1086.8,187.5v-6.1h1.1v0.9c0.3-0.4,0.5-0.7,0.8-0.9s0.5-0.2,0.8-0.2c0.4,0,0.8,0.1,1.2,0.3l-0.4,1
		c-0.3-0.1-0.6-0.2-0.9-0.2c-0.3,0-0.5,0.1-0.7,0.2s-0.4,0.3-0.4,0.6c-0.1,0.4-0.2,0.8-0.2,1.2v3.2H1086.8z"/>
	<path d="M1091.4,187.5v-8.4h1.2v4.8l2.8-2.5h1.6l-2.7,2.3l3,3.8h-1.5l-2.3-3.1l-0.8,0.7v2.4H1091.4z"/>
</g>
<g>
	<rect x="1022.9" y="230.7" class="st2" width="118.8" height="17.8"/>
	<path d="M1031,236.1l1.3,0.3c-0.3,0.9-0.8,1.6-1.5,2.1s-1.6,0.7-2.6,0.7c-1.1,0-1.9-0.2-2.6-0.6c-0.7-0.4-1.2-0.9-1.5-1.6
		c-0.3-0.7-0.5-1.5-0.5-2.3c0-0.9,0.2-1.6,0.6-2.3c0.4-0.7,0.9-1.1,1.7-1.5c0.7-0.3,1.5-0.5,2.4-0.5c1,0,1.8,0.2,2.5,0.6
		c0.7,0.4,1.1,1,1.4,1.8l-1.3,0.3c-0.2-0.6-0.6-1.1-1-1.3c-0.4-0.3-1-0.4-1.6-0.4c-0.8,0-1.4,0.2-1.9,0.5c-0.5,0.3-0.9,0.7-1.1,1.2
		c-0.2,0.5-0.3,1.1-0.3,1.6c0,0.7,0.1,1.3,0.4,1.9s0.6,0.9,1.1,1.2s1.1,0.4,1.7,0.4c0.7,0,1.3-0.2,1.8-0.5S1030.8,236.8,1031,236.1z
		"/>
	<path d="M1038.5,237.1l1.2,0.1c-0.2,0.6-0.6,1.1-1.1,1.5c-0.5,0.3-1.2,0.5-2,0.5c-1,0-1.9-0.3-2.5-0.8c-0.6-0.5-0.9-1.3-0.9-2.3
		c0-1,0.3-1.8,0.9-2.4c0.6-0.6,1.4-0.8,2.4-0.8c0.9,0,1.7,0.3,2.3,0.8c0.6,0.6,0.9,1.3,0.9,2.3c0,0.1,0,0.2,0,0.3h-5.3
		c0,0.7,0.3,1.2,0.7,1.5s0.9,0.5,1.5,0.5c0.4,0,0.8-0.1,1.1-0.3C1038.1,237.9,1038.4,237.6,1038.5,237.1z M1034.6,235.5h4
		c-0.1-0.5-0.2-0.9-0.5-1.2c-0.4-0.4-0.9-0.6-1.5-0.6c-0.6,0-1,0.2-1.4,0.5C1034.8,234.5,1034.6,234.9,1034.6,235.5z"/>
	<path d="M1041.3,239.1V233h1.1v0.9c0.3-0.4,0.5-0.7,0.8-0.9s0.5-0.2,0.8-0.2c0.4,0,0.8,0.1,1.2,0.3l-0.4,1
		c-0.3-0.1-0.6-0.2-0.9-0.2c-0.3,0-0.5,0.1-0.7,0.2s-0.4,0.3-0.4,0.6c-0.1,0.4-0.2,0.8-0.2,1.2v3.2H1041.3z"/>
	<path d="M1045.3,237.3l1.2-0.2c0.1,0.4,0.3,0.7,0.6,0.9c0.3,0.2,0.7,0.3,1.3,0.3c0.5,0,1-0.1,1.2-0.3c0.3-0.2,0.4-0.4,0.4-0.7
		c0-0.2-0.1-0.4-0.4-0.6c-0.2-0.1-0.6-0.2-1.2-0.3c-0.9-0.2-1.5-0.4-1.8-0.5s-0.6-0.3-0.8-0.6c-0.2-0.2-0.3-0.5-0.3-0.8
		c0-0.3,0.1-0.5,0.2-0.8c0.1-0.2,0.3-0.4,0.6-0.6c0.2-0.1,0.4-0.2,0.8-0.3s0.7-0.1,1-0.1c0.6,0,1,0.1,1.5,0.2s0.7,0.3,0.9,0.6
		c0.2,0.2,0.3,0.5,0.4,0.9l-1.2,0.1c-0.1-0.3-0.2-0.6-0.5-0.7c-0.3-0.2-0.6-0.3-1.1-0.3c-0.6,0-0.9,0.1-1.2,0.2
		c-0.2,0.2-0.4,0.3-0.4,0.5c0,0.1,0,0.3,0.1,0.4c0.1,0.1,0.3,0.2,0.5,0.3c0.1,0,0.5,0.1,1.1,0.3c0.8,0.2,1.4,0.4,1.8,0.5
		c0.3,0.1,0.6,0.3,0.8,0.5c0.2,0.2,0.3,0.5,0.3,0.9c0,0.3-0.1,0.7-0.4,1c-0.2,0.3-0.6,0.5-1,0.7c-0.4,0.2-0.9,0.2-1.5,0.2
		c-0.9,0-1.6-0.2-2.1-0.5C1045.8,238.4,1045.5,237.9,1045.3,237.3z"/>
	<path d="M1057.5,237.1l1.2,0.1c-0.2,0.6-0.6,1.1-1.1,1.5c-0.5,0.3-1.2,0.5-2,0.5c-1,0-1.9-0.3-2.5-0.8c-0.6-0.5-0.9-1.3-0.9-2.3
		c0-1,0.3-1.8,0.9-2.4c0.6-0.6,1.4-0.8,2.4-0.8c0.9,0,1.7,0.3,2.3,0.8c0.6,0.6,0.9,1.3,0.9,2.3c0,0.1,0,0.2,0,0.3h-5.3
		c0,0.7,0.3,1.2,0.7,1.5s0.9,0.5,1.5,0.5c0.4,0,0.8-0.1,1.1-0.3C1057.1,237.9,1057.3,237.6,1057.5,237.1z M1053.6,235.5h4
		c-0.1-0.5-0.2-0.9-0.5-1.2c-0.4-0.4-0.9-0.6-1.5-0.6c-0.6,0-1,0.2-1.4,0.5C1053.8,234.5,1053.6,234.9,1053.6,235.5z"/>
	<path d="M1060.2,231.9v-1.2h1.2v1.2H1060.2z M1060.2,239.1V233h1.2v6.1H1060.2z"/>
	<path d="M1067.2,239.1v-8.4h1.3v7.4h4.8v1H1067.2z"/>
	<path d="M1079.3,238.3c-0.4,0.3-0.9,0.6-1.3,0.7s-0.9,0.2-1.3,0.2c-0.8,0-1.4-0.2-1.8-0.5c-0.4-0.3-0.6-0.7-0.6-1.3
		c0-0.3,0.1-0.6,0.2-0.8c0.2-0.2,0.4-0.4,0.6-0.6c0.3-0.1,0.5-0.3,0.9-0.3c0.2-0.1,0.6-0.1,1.1-0.2c1-0.1,1.7-0.2,2.1-0.4
		c0-0.1,0-0.2,0-0.3c0-0.4-0.1-0.7-0.3-0.9c-0.3-0.2-0.8-0.3-1.4-0.3c-0.6,0-1,0.1-1.2,0.3s-0.5,0.5-0.6,0.9l-1.2-0.1
		c0.1-0.4,0.3-0.8,0.5-1s0.6-0.5,1.1-0.6s1-0.2,1.6-0.2c0.6,0,1.1,0.1,1.5,0.2c0.4,0.1,0.7,0.3,0.8,0.5c0.2,0.2,0.3,0.4,0.4,0.7
		c0,0.2,0.1,0.5,0.1,1v1.4c0,1,0,1.6,0.1,1.8c0.1,0.3,0.2,0.5,0.3,0.7h-1.3C1079.4,238.9,1079.3,238.6,1079.3,238.3z M1079.2,236
		c-0.4,0.2-1.1,0.3-2,0.4c-0.5,0.1-0.8,0.1-1,0.2c-0.2,0.1-0.4,0.2-0.5,0.3c-0.1,0.1-0.2,0.3-0.2,0.5c0,0.3,0.1,0.5,0.4,0.7
		s0.6,0.3,1.1,0.3c0.5,0,0.9-0.1,1.2-0.3c0.4-0.2,0.6-0.4,0.8-0.7c0.1-0.2,0.2-0.6,0.2-1V236z"/>
	<path d="M1082.2,239.1V233h1.1v0.9c0.5-0.7,1.3-1,2.3-1c0.4,0,0.8,0.1,1.2,0.2c0.4,0.1,0.6,0.3,0.8,0.5s0.3,0.5,0.4,0.8
		c0,0.2,0.1,0.5,0.1,1v3.7h-1.2v-3.7c0-0.4,0-0.7-0.1-0.9c-0.1-0.2-0.3-0.4-0.5-0.5c-0.2-0.1-0.5-0.2-0.8-0.2c-0.5,0-1,0.1-1.3,0.4
		c-0.4,0.3-0.6,0.8-0.6,1.6v3.3H1082.2z"/>
	<path d="M1089.8,239.1V233h1.1v0.9c0.5-0.7,1.3-1,2.3-1c0.4,0,0.8,0.1,1.2,0.2c0.4,0.1,0.6,0.3,0.8,0.5s0.3,0.5,0.4,0.8
		c0,0.2,0.1,0.5,0.1,1v3.7h-1.2v-3.7c0-0.4,0-0.7-0.1-0.9c-0.1-0.2-0.3-0.4-0.5-0.5c-0.2-0.1-0.5-0.2-0.8-0.2c-0.5,0-1,0.1-1.3,0.4
		c-0.4,0.3-0.6,0.8-0.6,1.6v3.3H1089.8z"/>
	<path d="M1097.4,231.9v-1.2h1.2v1.2H1097.4z M1097.4,239.1V233h1.2v6.1H1097.4z"/>
	<path d="M1100,237.3l1.2-0.2c0.1,0.4,0.3,0.7,0.6,0.9c0.3,0.2,0.7,0.3,1.3,0.3c0.5,0,1-0.1,1.2-0.3c0.3-0.2,0.4-0.4,0.4-0.7
		c0-0.2-0.1-0.4-0.4-0.6c-0.2-0.1-0.6-0.2-1.2-0.3c-0.9-0.2-1.5-0.4-1.8-0.5s-0.6-0.3-0.8-0.6c-0.2-0.2-0.3-0.5-0.3-0.8
		c0-0.3,0.1-0.5,0.2-0.8c0.1-0.2,0.3-0.4,0.6-0.6c0.2-0.1,0.4-0.2,0.8-0.3s0.7-0.1,1-0.1c0.6,0,1,0.1,1.5,0.2s0.7,0.3,0.9,0.6
		c0.2,0.2,0.3,0.5,0.4,0.9l-1.2,0.1c-0.1-0.3-0.2-0.6-0.5-0.7c-0.3-0.2-0.6-0.3-1.1-0.3c-0.6,0-0.9,0.1-1.2,0.2
		c-0.2,0.2-0.4,0.3-0.4,0.5c0,0.1,0,0.3,0.1,0.4c0.1,0.1,0.3,0.2,0.5,0.3c0.1,0,0.5,0.1,1.1,0.3c0.8,0.2,1.4,0.4,1.8,0.5
		c0.3,0.1,0.6,0.3,0.8,0.5c0.2,0.2,0.3,0.5,0.3,0.9c0,0.3-0.1,0.7-0.4,1c-0.2,0.3-0.6,0.5-1,0.7c-0.4,0.2-0.9,0.2-1.5,0.2
		c-0.9,0-1.6-0.2-2.1-0.5C1100.4,238.4,1100.1,237.9,1100,237.3z"/>
	<path d="M1109.9,238.2l0.2,0.9c-0.3,0.1-0.6,0.1-0.9,0.1c-0.4,0-0.8-0.1-1-0.2c-0.2-0.1-0.4-0.3-0.5-0.5c-0.1-0.2-0.1-0.6-0.1-1.2
		v-3.5h-0.9V233h0.9v-1.5l1.2-0.6v2.1h1.2v0.8h-1.2v3.6c0,0.3,0,0.5,0.1,0.6s0.1,0.2,0.2,0.2c0.1,0,0.2,0.1,0.4,0.1
		C1109.5,238.2,1109.7,238.2,1109.9,238.2z"/>
	<path d="M1115.9,237.1l1.2,0.1c-0.2,0.6-0.6,1.1-1.1,1.5c-0.5,0.3-1.2,0.5-2,0.5c-1,0-1.9-0.3-2.5-0.8c-0.6-0.5-0.9-1.3-0.9-2.3
		c0-1,0.3-1.8,0.9-2.4c0.6-0.6,1.4-0.8,2.4-0.8c0.9,0,1.7,0.3,2.3,0.8c0.6,0.6,0.9,1.3,0.9,2.3c0,0.1,0,0.2,0,0.3h-5.3
		c0,0.7,0.3,1.2,0.7,1.5s0.9,0.5,1.5,0.5c0.4,0,0.8-0.1,1.1-0.3C1115.5,237.9,1115.7,237.6,1115.9,237.1z M1112,235.5h4
		c-0.1-0.5-0.2-0.9-0.5-1.2c-0.4-0.4-0.9-0.6-1.5-0.6c-0.6,0-1,0.2-1.4,0.5C1112.2,234.5,1112,234.9,1112,235.5z"/>
	<path d="M1118.6,239.1V233h1.1v0.9c0.3-0.4,0.5-0.7,0.8-0.9s0.5-0.2,0.8-0.2c0.4,0,0.8,0.1,1.2,0.3l-0.4,1
		c-0.3-0.1-0.6-0.2-0.9-0.2c-0.3,0-0.5,0.1-0.7,0.2s-0.4,0.3-0.4,0.6c-0.1,0.4-0.2,0.8-0.2,1.2v3.2H1118.6z"/>
</g>
<g>
	<rect x="1022.9" y="277" class="st2" width="118.8" height="17.8"/>
	<path d="M1022.9,285.4l3.8-8.4h1.4l4,8.4h-1.5l-1.1-2.5h-4.1l-1.1,2.5H1022.9z M1025.7,282h3.3l-1-2.3c-0.3-0.7-0.5-1.3-0.7-1.7
		c-0.1,0.5-0.3,1.1-0.5,1.6L1025.7,282z"/>
	<path d="M1032.9,285.4v-6.1h1.1v0.9c0.3-0.4,0.5-0.7,0.8-0.9s0.5-0.2,0.8-0.2c0.4,0,0.8,0.1,1.2,0.3l-0.4,1
		c-0.3-0.1-0.6-0.2-0.9-0.2c-0.3,0-0.5,0.1-0.7,0.2s-0.4,0.3-0.4,0.6c-0.1,0.4-0.2,0.8-0.2,1.2v3.2H1032.9z"/>
	<path d="M1037.4,287.8l-0.1-1c0.3,0.1,0.5,0.1,0.7,0.1c0.3,0,0.5,0,0.6-0.1c0.2-0.1,0.3-0.2,0.4-0.3c0.1-0.1,0.2-0.4,0.4-0.8
		c0-0.1,0.1-0.1,0.1-0.3l-2.7-6.1h1.3l1.5,3.5c0.2,0.4,0.4,0.9,0.5,1.4c0.1-0.5,0.3-0.9,0.5-1.4l1.5-3.5h1.2l-2.7,6.2
		c-0.3,0.7-0.5,1.1-0.7,1.4c-0.2,0.3-0.5,0.6-0.7,0.7c-0.3,0.2-0.6,0.2-1,0.2C1038,287.9,1037.7,287.9,1037.4,287.8z"/>
	<path d="M1048.9,284.7c-0.4,0.3-0.9,0.6-1.3,0.7s-0.9,0.2-1.3,0.2c-0.8,0-1.4-0.2-1.8-0.5c-0.4-0.3-0.6-0.7-0.6-1.3
		c0-0.3,0.1-0.6,0.2-0.8c0.2-0.2,0.4-0.4,0.6-0.6c0.3-0.1,0.5-0.3,0.9-0.3c0.2-0.1,0.6-0.1,1.1-0.2c1-0.1,1.7-0.2,2.1-0.4
		c0-0.1,0-0.2,0-0.3c0-0.4-0.1-0.7-0.3-0.9c-0.3-0.2-0.8-0.3-1.4-0.3c-0.6,0-1,0.1-1.2,0.3s-0.5,0.5-0.6,0.9l-1.2-0.1
		c0.1-0.4,0.3-0.8,0.5-1s0.6-0.5,1.1-0.6s1-0.2,1.6-0.2c0.6,0,1.1,0.1,1.5,0.2c0.4,0.1,0.7,0.3,0.8,0.5c0.2,0.2,0.3,0.4,0.4,0.7
		c0,0.2,0.1,0.5,0.1,1v1.4c0,1,0,1.6,0.1,1.8c0.1,0.3,0.2,0.5,0.3,0.7h-1.3C1049,285.2,1049,285,1048.9,284.7z M1048.8,282.4
		c-0.4,0.2-1.1,0.3-2,0.4c-0.5,0.1-0.8,0.1-1,0.2c-0.2,0.1-0.4,0.2-0.5,0.3c-0.1,0.1-0.2,0.3-0.2,0.5c0,0.3,0.1,0.5,0.4,0.7
		s0.6,0.3,1.1,0.3c0.5,0,0.9-0.1,1.2-0.3c0.4-0.2,0.6-0.4,0.8-0.7c0.1-0.2,0.2-0.6,0.2-1V282.4z"/>
	<path d="M1055.4,282.7l1.2-0.1c0.1,0.4,0.2,0.8,0.4,1c0.2,0.3,0.5,0.5,1,0.7c0.4,0.2,0.9,0.2,1.5,0.2c0.5,0,0.9-0.1,1.3-0.2
		c0.4-0.1,0.7-0.3,0.8-0.5s0.3-0.5,0.3-0.7c0-0.3-0.1-0.5-0.3-0.7c-0.2-0.2-0.5-0.4-0.9-0.5c-0.3-0.1-0.8-0.2-1.7-0.4
		c-0.9-0.2-1.5-0.4-1.9-0.5c-0.5-0.2-0.8-0.5-1-0.8s-0.3-0.7-0.3-1c0-0.4,0.1-0.8,0.4-1.2c0.3-0.4,0.7-0.6,1.2-0.8
		c0.5-0.2,1.1-0.3,1.8-0.3c0.7,0,1.4,0.1,1.9,0.3c0.6,0.2,1,0.5,1.3,0.9c0.3,0.4,0.5,0.8,0.5,1.3l-1.2,0.1c-0.1-0.5-0.3-0.9-0.7-1.2
		c-0.4-0.3-1-0.4-1.7-0.4c-0.8,0-1.4,0.1-1.7,0.4c-0.4,0.2-0.5,0.5-0.5,0.9c0,0.3,0.1,0.5,0.4,0.7c0.2,0.2,0.9,0.4,1.9,0.6
		c1.1,0.2,1.8,0.4,2.2,0.5c0.6,0.2,1,0.5,1.3,0.9c0.3,0.3,0.4,0.7,0.4,1.2c0,0.4-0.1,0.9-0.4,1.3c-0.3,0.4-0.7,0.7-1.3,0.9
		s-1.2,0.3-1.9,0.3c-0.9,0-1.6-0.1-2.2-0.3c-0.6-0.2-1.1-0.6-1.4-1S1055.4,283.3,1055.4,282.7z"/>
	<path d="M1067.4,284.5l0.2,0.9c-0.3,0.1-0.6,0.1-0.9,0.1c-0.4,0-0.8-0.1-1-0.2c-0.2-0.1-0.4-0.3-0.5-0.5c-0.1-0.2-0.1-0.6-0.1-1.2
		v-3.5h-0.9v-0.8h0.9v-1.5l1.2-0.6v2.1h1.2v0.8h-1.2v3.6c0,0.3,0,0.5,0.1,0.6s0.1,0.2,0.2,0.2c0.1,0,0.2,0.1,0.4,0.1
		C1067,284.6,1067.2,284.5,1067.4,284.5z"/>
	<path d="M1073.2,284.7c-0.4,0.3-0.9,0.6-1.3,0.7s-0.9,0.2-1.3,0.2c-0.8,0-1.4-0.2-1.8-0.5c-0.4-0.3-0.6-0.7-0.6-1.3
		c0-0.3,0.1-0.6,0.2-0.8c0.2-0.2,0.4-0.4,0.6-0.6c0.3-0.1,0.5-0.3,0.9-0.3c0.2-0.1,0.6-0.1,1.1-0.2c1-0.1,1.7-0.2,2.1-0.4
		c0-0.1,0-0.2,0-0.3c0-0.4-0.1-0.7-0.3-0.9c-0.3-0.2-0.8-0.3-1.4-0.3c-0.6,0-1,0.1-1.2,0.3s-0.5,0.5-0.6,0.9l-1.2-0.1
		c0.1-0.4,0.3-0.8,0.5-1s0.6-0.5,1.1-0.6s1-0.2,1.6-0.2c0.6,0,1.1,0.1,1.5,0.2c0.4,0.1,0.7,0.3,0.8,0.5c0.2,0.2,0.3,0.4,0.4,0.7
		c0,0.2,0.1,0.5,0.1,1v1.4c0,1,0,1.6,0.1,1.8c0.1,0.3,0.2,0.5,0.3,0.7h-1.3C1073.3,285.2,1073.2,285,1073.2,284.7z M1073.1,282.4
		c-0.4,0.2-1.1,0.3-2,0.4c-0.5,0.1-0.8,0.1-1,0.2c-0.2,0.1-0.4,0.2-0.5,0.3c-0.1,0.1-0.2,0.3-0.2,0.5c0,0.3,0.1,0.5,0.4,0.7
		s0.6,0.3,1.1,0.3c0.5,0,0.9-0.1,1.2-0.3c0.4-0.2,0.6-0.4,0.8-0.7c0.1-0.2,0.2-0.6,0.2-1V282.4z"/>
	<path d="M1076.2,285.4v-6.1h1.1v0.9c0.3-0.4,0.5-0.7,0.8-0.9s0.5-0.2,0.8-0.2c0.4,0,0.8,0.1,1.2,0.3l-0.4,1
		c-0.3-0.1-0.6-0.2-0.9-0.2c-0.3,0-0.5,0.1-0.7,0.2s-0.4,0.3-0.4,0.6c-0.1,0.4-0.2,0.8-0.2,1.2v3.2H1076.2z"/>
	<path d="M1080.7,285.4V277h1.2v4.8l2.8-2.5h1.6l-2.7,2.3l3,3.8h-1.5l-2.3-3.1l-0.8,0.7v2.4H1080.7z"/>
</g>
<g>
	<rect x="1022.9" y="324.4" class="st2" width="118.8" height="17.8"/>
	<path d="M1023.3,330.5l1.2-0.1c0,0.6,0.2,1.1,0.4,1.3c0.2,0.2,0.6,0.4,1,0.4c0.3,0,0.6-0.1,0.8-0.2c0.2-0.1,0.4-0.3,0.5-0.5
		s0.1-0.6,0.1-1.1v-5.8h1.3v5.7c0,0.7-0.1,1.2-0.3,1.6c-0.2,0.4-0.5,0.7-0.9,0.9c-0.4,0.2-0.9,0.3-1.5,0.3c-0.9,0-1.5-0.2-2-0.6
		C1023.5,331.9,1023.3,331.3,1023.3,330.5z"/>
	<path d="M1035.3,332.1c-0.4,0.3-0.9,0.6-1.3,0.7s-0.9,0.2-1.3,0.2c-0.8,0-1.4-0.2-1.8-0.5c-0.4-0.3-0.6-0.7-0.6-1.3
		c0-0.3,0.1-0.6,0.2-0.8c0.2-0.2,0.4-0.4,0.6-0.6c0.3-0.1,0.5-0.3,0.9-0.3c0.2-0.1,0.6-0.1,1.1-0.2c1-0.1,1.7-0.2,2.1-0.4
		c0-0.1,0-0.2,0-0.3c0-0.4-0.1-0.7-0.3-0.9c-0.3-0.2-0.8-0.3-1.4-0.3c-0.6,0-1,0.1-1.2,0.3s-0.5,0.5-0.6,0.9l-1.2-0.1
		c0.1-0.4,0.3-0.8,0.5-1s0.6-0.5,1.1-0.6s1-0.2,1.6-0.2c0.6,0,1.1,0.1,1.5,0.2c0.4,0.1,0.7,0.3,0.8,0.5c0.2,0.2,0.3,0.4,0.4,0.7
		c0,0.2,0.1,0.5,0.1,1v1.4c0,1,0,1.6,0.1,1.8c0.1,0.3,0.2,0.5,0.3,0.7h-1.3C1035.4,332.6,1035.3,332.4,1035.3,332.1z M1035.2,329.8
		c-0.4,0.2-1.1,0.3-2,0.4c-0.5,0.1-0.8,0.1-1,0.2c-0.2,0.1-0.4,0.2-0.5,0.3c-0.1,0.1-0.2,0.3-0.2,0.5c0,0.3,0.1,0.5,0.4,0.7
		s0.6,0.3,1.1,0.3c0.5,0,0.9-0.1,1.2-0.3c0.4-0.2,0.6-0.4,0.8-0.7c0.1-0.2,0.2-0.6,0.2-1V329.8z"/>
	<path d="M1038.3,325.6v-1.2h1.2v1.2H1038.3z M1038.3,332.9v-6.1h1.2v6.1H1038.3z"/>
	<path d="M1041.3,332.9v-6.1h1.1v0.9c0.2-0.3,0.5-0.5,0.9-0.7c0.4-0.2,0.8-0.3,1.3-0.3c0.5,0,1,0.1,1.3,0.3c0.3,0.2,0.6,0.4,0.7,0.8
		c0.6-0.7,1.3-1.1,2.2-1.1c0.7,0,1.2,0.2,1.6,0.5c0.4,0.3,0.6,0.8,0.6,1.5v4.2h-1.2V329c0-0.4,0-0.7-0.1-0.9
		c-0.1-0.2-0.2-0.3-0.4-0.4c-0.2-0.1-0.4-0.2-0.7-0.2c-0.5,0-0.9,0.1-1.2,0.4c-0.3,0.3-0.5,0.7-0.5,1.4v3.5h-1.2v-4
		c0-0.5-0.1-0.8-0.3-1s-0.5-0.3-1-0.3c-0.3,0-0.7,0.1-0.9,0.2c-0.3,0.2-0.5,0.4-0.6,0.7c-0.1,0.3-0.2,0.7-0.2,1.3v3.2H1041.3z"/>
	<path d="M1057.5,330.9l1.2,0.1c-0.2,0.6-0.6,1.1-1.1,1.5c-0.5,0.3-1.2,0.5-2,0.5c-1,0-1.9-0.3-2.5-0.8c-0.6-0.5-0.9-1.3-0.9-2.3
		c0-1,0.3-1.8,0.9-2.4c0.6-0.6,1.4-0.8,2.4-0.8c0.9,0,1.7,0.3,2.3,0.8c0.6,0.6,0.9,1.3,0.9,2.3c0,0.1,0,0.2,0,0.3h-5.3
		c0,0.7,0.3,1.2,0.7,1.5s0.9,0.5,1.5,0.5c0.4,0,0.8-0.1,1.1-0.3C1057.1,331.6,1057.3,331.3,1057.5,330.9z M1053.6,329.2h4
		c-0.1-0.5-0.2-0.9-0.5-1.2c-0.4-0.4-0.9-0.6-1.5-0.6c-0.6,0-1,0.2-1.4,0.5C1053.8,328.3,1053.6,328.7,1053.6,329.2z"/>
	<path d="M1064.1,332.9v-8.4h1.3v7.4h4.8v1H1064.1z"/>
	<path d="M1076.2,332.1c-0.4,0.3-0.9,0.6-1.3,0.7s-0.9,0.2-1.3,0.2c-0.8,0-1.4-0.2-1.8-0.5c-0.4-0.3-0.6-0.7-0.6-1.3
		c0-0.3,0.1-0.6,0.2-0.8c0.2-0.2,0.4-0.4,0.6-0.6c0.3-0.1,0.5-0.3,0.9-0.3c0.2-0.1,0.6-0.1,1.1-0.2c1-0.1,1.7-0.2,2.1-0.4
		c0-0.1,0-0.2,0-0.3c0-0.4-0.1-0.7-0.3-0.9c-0.3-0.2-0.8-0.3-1.4-0.3c-0.6,0-1,0.1-1.2,0.3s-0.5,0.5-0.6,0.9l-1.2-0.1
		c0.1-0.4,0.3-0.8,0.5-1s0.6-0.5,1.1-0.6s1-0.2,1.6-0.2c0.6,0,1.1,0.1,1.5,0.2c0.4,0.1,0.7,0.3,0.8,0.5c0.2,0.2,0.3,0.4,0.4,0.7
		c0,0.2,0.1,0.5,0.1,1v1.4c0,1,0,1.6,0.1,1.8c0.1,0.3,0.2,0.5,0.3,0.7h-1.3C1076.3,332.6,1076.3,332.4,1076.2,332.1z M1076.1,329.8
		c-0.4,0.2-1.1,0.3-2,0.4c-0.5,0.1-0.8,0.1-1,0.2c-0.2,0.1-0.4,0.2-0.5,0.3c-0.1,0.1-0.2,0.3-0.2,0.5c0,0.3,0.1,0.5,0.4,0.7
		s0.6,0.3,1.1,0.3c0.5,0,0.9-0.1,1.2-0.3c0.4-0.2,0.6-0.4,0.8-0.7c0.1-0.2,0.2-0.6,0.2-1V329.8z"/>
	<path d="M1079.2,332.9v-6.1h1.1v0.9c0.5-0.7,1.3-1,2.3-1c0.4,0,0.8,0.1,1.2,0.2c0.4,0.1,0.6,0.3,0.8,0.5s0.3,0.5,0.4,0.8
		c0,0.2,0.1,0.5,0.1,1v3.7h-1.2v-3.7c0-0.4,0-0.7-0.1-0.9c-0.1-0.2-0.3-0.4-0.5-0.5c-0.2-0.1-0.5-0.2-0.8-0.2c-0.5,0-1,0.1-1.3,0.4
		c-0.4,0.3-0.6,0.8-0.6,1.6v3.3H1079.2z"/>
	<path d="M1086.8,332.9v-6.1h1.1v0.9c0.5-0.7,1.3-1,2.3-1c0.4,0,0.8,0.1,1.2,0.2c0.4,0.1,0.6,0.3,0.8,0.5s0.3,0.5,0.4,0.8
		c0,0.2,0.1,0.5,0.1,1v3.7h-1.2v-3.7c0-0.4,0-0.7-0.1-0.9c-0.1-0.2-0.3-0.4-0.5-0.5c-0.2-0.1-0.5-0.2-0.8-0.2c-0.5,0-1,0.1-1.3,0.4
		c-0.4,0.3-0.6,0.8-0.6,1.6v3.3H1086.8z"/>
	<path d="M1094.4,325.6v-1.2h1.2v1.2H1094.4z M1094.4,332.9v-6.1h1.2v6.1H1094.4z"/>
	<path d="M1096.9,331l1.2-0.2c0.1,0.4,0.3,0.7,0.6,0.9c0.3,0.2,0.7,0.3,1.3,0.3c0.5,0,1-0.1,1.2-0.3c0.3-0.2,0.4-0.4,0.4-0.7
		c0-0.2-0.1-0.4-0.4-0.6c-0.2-0.1-0.6-0.2-1.2-0.3c-0.9-0.2-1.5-0.4-1.8-0.5s-0.6-0.3-0.8-0.6c-0.2-0.2-0.3-0.5-0.3-0.8
		c0-0.3,0.1-0.5,0.2-0.8c0.1-0.2,0.3-0.4,0.6-0.6c0.2-0.1,0.4-0.2,0.8-0.3s0.7-0.1,1-0.1c0.6,0,1,0.1,1.5,0.2s0.7,0.3,0.9,0.6
		c0.2,0.2,0.3,0.5,0.4,0.9l-1.2,0.1c-0.1-0.3-0.2-0.6-0.5-0.7c-0.3-0.2-0.6-0.3-1.1-0.3c-0.6,0-0.9,0.1-1.2,0.2
		c-0.2,0.2-0.4,0.3-0.4,0.5c0,0.1,0,0.3,0.1,0.4c0.1,0.1,0.3,0.2,0.5,0.3c0.1,0,0.5,0.1,1.1,0.3c0.8,0.2,1.4,0.4,1.8,0.5
		c0.3,0.1,0.6,0.3,0.8,0.5c0.2,0.2,0.3,0.5,0.3,0.9c0,0.3-0.1,0.7-0.4,1c-0.2,0.3-0.6,0.5-1,0.7c-0.4,0.2-0.9,0.2-1.5,0.2
		c-0.9,0-1.6-0.2-2.1-0.5C1097.4,332.2,1097.1,331.7,1096.9,331z"/>
	<path d="M1106.9,331.9l0.2,0.9c-0.3,0.1-0.6,0.1-0.9,0.1c-0.4,0-0.8-0.1-1-0.2c-0.2-0.1-0.4-0.3-0.5-0.5c-0.1-0.2-0.1-0.6-0.1-1.2
		v-3.5h-0.9v-0.8h0.9v-1.5l1.2-0.6v2.1h1.2v0.8h-1.2v3.6c0,0.3,0,0.5,0.1,0.6s0.1,0.2,0.2,0.2c0.1,0,0.2,0.1,0.4,0.1
		C1106.5,332,1106.6,332,1106.9,331.9z"/>
	<path d="M1112.9,330.9l1.2,0.1c-0.2,0.6-0.6,1.1-1.1,1.5c-0.5,0.3-1.2,0.5-2,0.5c-1,0-1.9-0.3-2.5-0.8c-0.6-0.5-0.9-1.3-0.9-2.3
		c0-1,0.3-1.8,0.9-2.4c0.6-0.6,1.4-0.8,2.4-0.8c0.9,0,1.7,0.3,2.3,0.8c0.6,0.6,0.9,1.3,0.9,2.3c0,0.1,0,0.2,0,0.3h-5.3
		c0,0.7,0.3,1.2,0.7,1.5s0.9,0.5,1.5,0.5c0.4,0,0.8-0.1,1.1-0.3C1112.4,331.6,1112.7,331.3,1112.9,330.9z M1108.9,329.2h4
		c-0.1-0.5-0.2-0.9-0.5-1.2c-0.4-0.4-0.9-0.6-1.5-0.6c-0.6,0-1,0.2-1.4,0.5C1109.2,328.3,1109,328.7,1108.9,329.2z"/>
	<path d="M1115.6,332.9v-6.1h1.1v0.9c0.3-0.4,0.5-0.7,0.8-0.9s0.5-0.2,0.8-0.2c0.4,0,0.8,0.1,1.2,0.3l-0.4,1
		c-0.3-0.1-0.6-0.2-0.9-0.2c-0.3,0-0.5,0.1-0.7,0.2s-0.4,0.3-0.4,0.6c-0.1,0.4-0.2,0.8-0.2,1.2v3.2H1115.6z"/>
</g>
<g>
</g>
<g>
</g>
<g>
</g>
<g>
</g>
<g>
</g>
<g>
</g>
<g>
</g>
<g>
</g>
<g>
</g>
<g>
</g>
<g>
</g>
<g>
</g>
<g>
</g>
<g>
</g>
<g>
</g>
</svg>
